<?xml version="1.0" encoding="UTF-8" standalone="no"?>
<svg
   xmlns:dc="http://purl.org/dc/elements/1.1/"
   xmlns:cc="http://creativecommons.org/ns#"
   xmlns:rdf="http://www.w3.org/1999/02/22-rdf-syntax-ns#"
   xmlns:svg="http://www.w3.org/2000/svg"
   xmlns="http://www.w3.org/2000/svg"
   xmlns:sodipodi="http://sodipodi.sourceforge.net/DTD/sodipodi-0.dtd"
   xmlns:inkscape="http://www.inkscape.org/namespaces/inkscape"
   width="1000"
   height="1000"
   viewBox="0 0 1000 1000"
   version="1.1"
   id="svg22"
   sodipodi:docname="i (12-я копия).svg"
   inkscape:version="0.92.3 (2405546, 2018-03-11)">
  <metadata
     id="metadata26">
    <rdf:RDF>
      <cc:Work
         rdf:about="">
        <dc:format>image/svg+xml</dc:format>
        <dc:type
           rdf:resource="http://purl.org/dc/dcmitype/StillImage" />
        <dc:title />
      </cc:Work>
    </rdf:RDF>
  </metadata>
  <sodipodi:namedview
     pagecolor="#ffffff"
     bordercolor="#666666"
     borderopacity="1"
     objecttolerance="10"
     gridtolerance="10"
     guidetolerance="10"
     inkscape:pageopacity="0"
     inkscape:pageshadow="2"
     inkscape:window-width="1280"
     inkscape:window-height="743"
     id="namedview24"
     showgrid="false"
     inkscape:zoom="0.43457604"
     inkscape:cx="183.20388"
     inkscape:cy="446.53196"
     inkscape:window-x="0"
     inkscape:window-y="0"
     inkscape:window-maximized="1"
     inkscape:current-layer="svg22"
     showguides="true"
     inkscape:guide-bbox="true">
    <sodipodi:guide
       position="0,200"
       orientation="0,1"
       id="guide841"
       inkscape:locked="false"
       inkscape:label=""
       inkscape:color="rgb(0,0,255)" />
  </sodipodi:namedview>
  <defs
     id="defs12">
    <linearGradient
       id="a"
       x1="0.5"
       x2="0.5"
       y1="0"
       y2="1">
      <stop
         offset="0%"
         stop-color="#9FC7FF"
         id="stop2" />
      <stop
         offset="100%"
         stop-color="#9BC1F5"
         id="stop4" />
    </linearGradient>
    <radialGradient
       id="b"
       cx="0.55584997"
       cy="0.10083"
       r="0.58214998"
       fx="0.55584997"
       fy="0.10083"
       gradientTransform="matrix(0,-1,0.719,0,0.483,0.657)">
      <stop
         offset="0%"
         stop-color="#486DA8"
         stop-opacity=".4"
         id="stop7" />
      <stop
         offset="100%"
         stop-color="#486DA8"
         stop-opacity="0"
         id="stop9" />
    </radialGradient>
  </defs>
  <path
     sodipodi:nodetypes="sccssscssscccscscsccccccccssccscsccccssccsccc"
     style="display:inline;opacity:1;fill-opacity:1;fill-rule:nonzero;stroke:none;stroke-width:87.73652649;stroke-linecap:round;stroke-linejoin:round;stroke-miterlimit:4;stroke-dasharray:none;stroke-opacity:1;paint-order:stroke fill markers"
     d="M 500.10059,-1.674627e-8 C 279.3795,-1.674627e-8 100.00158,179.43071 99.999985,400.1462 99.999985,620.85969 279.3795,800.0016 500.10059,800 720.81731,800.002 900.00001,620.85969 900.00001,400.1462 900.00001,179.43071 720.81731,-1.6746299e-8 500.10059,-1.674627e-8 Z M 500.10059,37.15118 c 200.71873,0 363.04782,162.27192 363.04902,362.99502 0,200.7351 -162.3303,363.00982 -363.04903,363.00982 -200.7231,0 -363.25622,-162.27472 -363.25622,-363.00982 0,-200.7231 162.53312,-362.99502 363.25623,-362.99502 z m 39.34958,116.16474 0.0392,0.04 c -13.90879,0 -25.43759,4.9284 -34.44358,14.876 -9.0104,9.91759 -13.546,23.42238 -13.546,40.52278 0,10.50679 3.492,19.03639 10.1896,26.01798 7.0604,6.8184 16.08279,10.114 27.33199,10.114 13.90879,0 25.31238,-5.0192 34.09154,-15.1828 9.0104,-10.23519 13.5004,-23.07478 13.5004,-38.83238 0,-11.21759 -3.552,-20.28879 -10.5524,-27.04478 -6.8484,-7.06 -15.64556,-10.5072 -26.67275,-10.5072 z m -17.52639,155.72673 c -9.5396,0 -23.60559,4.59599 -42.51998,14.13559 -14.61919,7.40799 -49.16398,30.94678 -103.64195,70.57116 l 7.922,18.23879 c 13.69679,-10.43159 29.41358,-20.01799 46.96557,-29.02558 7.3024,-3.66 12.6692,-5.3516 16.2068,-5.3516 5.15519,0 7.69519,2.888 7.69519,8.708 0,12.15479 -5.54839,38.41678 -16.92479,78.71396 l -22.57879,80.32076 c -7.31719,26.34198 -10.71879,47.98197 -10.71879,64.87196 0,12.8504 2.224,22.07559 6.86359,27.69319 4.6716,5.7752 11.3536,8.708 19.92999,8.708 5.5184,0 11.5352,-1.512 18.1948,-3.78 9.55479,-3.22 23.52238,-10.5976 42.20957,-22.28559 l 69.91073,-46.60758 -9.17676,-17.88159 c -32.64598,21.61279 -51.82917,32.45559 -57.69517,32.45559 -6.33439,0 -9.53959,-3.916 -9.53959,-11.4292 0,-14.86119 8.31519,-50.42357 25.28198,-106.70515 l 10.7796,-36.43158 c 14.61919,-49.74757 21.92119,-82.65676 21.92119,-98.63355 0,-8.28479 -1.92,-14.70999 -6.0172,-19.21959 -4.0968,-4.596 -9.17679,-7.19639 -15.23759,-7.19639 z"
     id="path5026"
     inkscape:connector-curvature="0" />
</svg>
