<?xml version="1.0" encoding="UTF-8" standalone="no"?>
<svg
   xmlns:dc="http://purl.org/dc/elements/1.1/"
   xmlns:cc="http://creativecommons.org/ns#"
   xmlns:rdf="http://www.w3.org/1999/02/22-rdf-syntax-ns#"
   xmlns:svg="http://www.w3.org/2000/svg"
   xmlns="http://www.w3.org/2000/svg"
   xmlns:sodipodi="http://sodipodi.sourceforge.net/DTD/sodipodi-0.dtd"
   xmlns:inkscape="http://www.inkscape.org/namespaces/inkscape"
   width="1000"
   height="1000"
   viewBox="0 0 1000 1000"
   version="1.1"
   id="svg22"
   sodipodi:docname="i (16-я копия).svg"
   inkscape:version="0.92.3 (2405546, 2018-03-11)">
  <metadata
     id="metadata26">
    <rdf:RDF>
      <cc:Work
         rdf:about="">
        <dc:format>image/svg+xml</dc:format>
        <dc:type
           rdf:resource="http://purl.org/dc/dcmitype/StillImage" />
        <dc:title />
      </cc:Work>
    </rdf:RDF>
  </metadata>
  <sodipodi:namedview
     pagecolor="#ffffff"
     bordercolor="#666666"
     borderopacity="1"
     objecttolerance="10"
     gridtolerance="10"
     guidetolerance="10"
     inkscape:pageopacity="0"
     inkscape:pageshadow="2"
     inkscape:window-width="1280"
     inkscape:window-height="743"
     id="namedview24"
     showgrid="false"
     inkscape:zoom="0.43457604"
     inkscape:cx="183.20388"
     inkscape:cy="446.53196"
     inkscape:window-x="0"
     inkscape:window-y="0"
     inkscape:window-maximized="1"
     inkscape:current-layer="svg22"
     showguides="true"
     inkscape:guide-bbox="true">
    <sodipodi:guide
       position="0,200"
       orientation="0,1"
       id="guide841"
       inkscape:locked="false"
       inkscape:label=""
       inkscape:color="rgb(0,0,255)" />
  </sodipodi:namedview>
  <defs
     id="defs12">
    <linearGradient
       id="a"
       x1="0.5"
       x2="0.5"
       y1="0"
       y2="1">
      <stop
         offset="0%"
         stop-color="#9FC7FF"
         id="stop2" />
      <stop
         offset="100%"
         stop-color="#9BC1F5"
         id="stop4" />
    </linearGradient>
    <radialGradient
       id="b"
       cx="0.55584997"
       cy="0.10083"
       r="0.58214998"
       fx="0.55584997"
       fy="0.10083"
       gradientTransform="matrix(0,-1,0.719,0,0.483,0.657)">
      <stop
         offset="0%"
         stop-color="#486DA8"
         stop-opacity=".4"
         id="stop7" />
      <stop
         offset="100%"
         stop-color="#486DA8"
         stop-opacity="0"
         id="stop9" />
    </radialGradient>
  </defs>
  <path
     style="color:#000000;font-style:normal;font-variant:normal;font-weight:normal;font-stretch:normal;font-size:medium;line-height:normal;font-family:sans-serif;font-variant-ligatures:normal;font-variant-position:normal;font-variant-caps:normal;font-variant-numeric:normal;font-variant-alternates:normal;font-feature-settings:normal;text-indent:0;text-align:start;text-decoration:none;text-decoration-line:none;text-decoration-style:solid;text-decoration-color:#000000;letter-spacing:normal;word-spacing:normal;text-transform:none;writing-mode:lr-tb;direction:ltr;text-orientation:mixed;dominant-baseline:auto;baseline-shift:baseline;text-anchor:start;white-space:normal;shape-padding:0;clip-rule:nonzero;display:inline;overflow:visible;visibility:visible;opacity:1;isolation:auto;mix-blend-mode:normal;color-interpolation:sRGB;color-interpolation-filters:linearRGB;solid-color:#000000;solid-opacity:1;vector-effect:none;fill-opacity:1;fill-rule:evenodd;stroke:none;stroke-width:57.03099823;stroke-linecap:round;stroke-linejoin:round;stroke-miterlimit:4;stroke-dasharray:none;stroke-dashoffset:0;stroke-opacity:1;paint-order:stroke fill markers;color-rendering:auto;image-rendering:auto;shape-rendering:auto;text-rendering:auto;enable-background:accumulate"
     d="M 500.15562,0 C 279.42965,0 100.00138,179.35707 99.99978,400.0786 99.99978,620.79893 279.42965,800 500.15562,800 720.88032,800 900.00022,620.79893 900.00022,400.0786 900.00022,179.35707 720.88032,0 500.15562,0 Z m 0,37.108856 c 200.7251,0 362.9669,162.240244 362.9697,362.969744 0,200.7415 -162.2446,363.04694 -362.9697,363.04694 -200.72794,0 -363.28098,-162.30544 -363.28098,-363.04694 0,-200.7295 162.55304,-362.969744 363.28098,-362.969744 z m -123.515,114.843374 c -20.3973,0 -40.78129,7.66521 -56.17131,23.04763 l -45.46927,45.46927 c -30.78084,30.78205 -30.78084,81.63972 0,112.42137 l 75.62528,75.54691 c 30.7789,30.77925 81.5638,30.78045 112.3442,0 l 2.572,-2.572 28.5929,28.59284 -2.5841,2.58401 c -30.7804,30.77924 -30.7792,81.56412 0,112.34296 l 75.547,75.62532 c 30.7804,30.78084 81.6409,30.78084 112.4229,0 l 45.4677,-45.46927 c 30.7804,-30.78045 30.7804,-81.56212 0,-112.34257 l -75.6241,-75.62571 c -30.7805,-30.78045 -81.5637,-30.78205 -112.3442,0 l -2.572,2.584 -28.5944,-28.59284 2.572,-2.58401 c 30.7804,-30.78044 30.7804,-81.56252 0,-112.34296 l -75.6253,-75.62532 c -15.3889,-15.39042 -35.7741,-23.04763 -56.1717,-23.04763 z m 0,56.48448 c 5.654,-0.002 11.2932,2.31201 15.8588,6.87881 l 75.6257,75.62532 c 9.1312,9.13161 9.1464,22.58643 0,31.71804 l -2.572,2.58401 -15.9372,-15.93763 c -26.8697,-28.30124 -68.6153,13.44002 -40.3125,40.31246 l 15.9372,15.93763 -2.568,2.572 c -9.1312,9.14642 -22.5804,9.13122 -31.7176,0 L 315.3293,292.50204 c -9.13121,-9.13161 -9.14641,-22.58804 0,-31.71805 l 45.46812,-45.46927 c 4.5656,-4.5656 10.2044,-6.87881 15.8604,-6.87881 z m 216.5627,216.56273 c 5.6392,-0.004 11.2932,2.3 15.8588,6.87881 l 75.6257,75.62531 c 9.1313,9.13121 9.1313,22.57124 0,31.71805 l -45.4692,45.46927 c -9.1316,9.13121 -22.5793,9.14641 -31.7181,0 l -75.6253,-75.62572 c -9.1316,-9.13121 -9.1464,-22.58643 0,-31.71764 l 2.572,-2.58401 15.9376,15.93763 c 26.8693,28.29964 68.6149,-13.44002 40.3125,-40.31246 l -15.9376,-15.93763 2.572,-2.572 c 4.5656,-4.56561 10.2048,-6.86361 15.8604,-6.87881 z"
     id="path23234"
     inkscape:connector-curvature="0" />
</svg>
