<?xml version="1.0" encoding="UTF-8" standalone="no"?>
<svg
   xmlns:dc="http://purl.org/dc/elements/1.1/"
   xmlns:cc="http://creativecommons.org/ns#"
   xmlns:rdf="http://www.w3.org/1999/02/22-rdf-syntax-ns#"
   xmlns:svg="http://www.w3.org/2000/svg"
   xmlns="http://www.w3.org/2000/svg"
   xmlns:sodipodi="http://sodipodi.sourceforge.net/DTD/sodipodi-0.dtd"
   xmlns:inkscape="http://www.inkscape.org/namespaces/inkscape"
   width="1000"
   height="1000"
   viewBox="0 0 1000 1000"
   version="1.1"
   id="svg22"
   sodipodi:docname="i (18-я копия).svg"
   inkscape:version="0.92.3 (2405546, 2018-03-11)">
  <metadata
     id="metadata26">
    <rdf:RDF>
      <cc:Work
         rdf:about="">
        <dc:format>image/svg+xml</dc:format>
        <dc:type
           rdf:resource="http://purl.org/dc/dcmitype/StillImage" />
        <dc:title />
      </cc:Work>
    </rdf:RDF>
  </metadata>
  <sodipodi:namedview
     pagecolor="#ffffff"
     bordercolor="#666666"
     borderopacity="1"
     objecttolerance="10"
     gridtolerance="10"
     guidetolerance="10"
     inkscape:pageopacity="0"
     inkscape:pageshadow="2"
     inkscape:window-width="1280"
     inkscape:window-height="743"
     id="namedview24"
     showgrid="false"
     inkscape:zoom="0.43457604"
     inkscape:cx="91.160152"
     inkscape:cy="446.53196"
     inkscape:window-x="0"
     inkscape:window-y="0"
     inkscape:window-maximized="1"
     inkscape:current-layer="svg22"
     showguides="true"
     inkscape:guide-bbox="true">
    <sodipodi:guide
       position="0,200"
       orientation="0,1"
       id="guide841"
       inkscape:locked="false"
       inkscape:label=""
       inkscape:color="rgb(0,0,255)" />
  </sodipodi:namedview>
  <defs
     id="defs12">
    <linearGradient
       id="a"
       x1="0.5"
       x2="0.5"
       y1="0"
       y2="1">
      <stop
         offset="0%"
         stop-color="#9FC7FF"
         id="stop2" />
      <stop
         offset="100%"
         stop-color="#9BC1F5"
         id="stop4" />
    </linearGradient>
    <radialGradient
       id="b"
       cx="0.55584997"
       cy="0.10083"
       r="0.58214998"
       fx="0.55584997"
       fy="0.10083"
       gradientTransform="matrix(0,-1,0.719,0,0.483,0.657)">
      <stop
         offset="0%"
         stop-color="#486DA8"
         stop-opacity=".4"
         id="stop7" />
      <stop
         offset="100%"
         stop-color="#486DA8"
         stop-opacity="0"
         id="stop9" />
    </radialGradient>
  </defs>
  <path
     inkscape:connector-curvature="0"
     id="path1238"
     d="m 585.7963,227.57738 c -96.9443,0.0265 -185.3908,50.74486 -237.4166,131.56804 -16.4032,-7.78533 -33.85477,-13.11471 -52.16035,-13.11471 h -0.0225 c -66.18752,0.002 -119.64581,53.03881 -122.24025,118.61434 -1.98496,-0.1 -3.92992,-0.56499 -5.91487,-0.56499 -0.036,0 -0.05,0 -0.1,0 C 75.411305,464.08306 -0.00199498,539.53286 5.01989e-6,632.05528 0.00200502,724.5817 75.414805,799.995 167.94123,799.9985 c 0.1,0.002 0.39999,0.002 0.39999,0 0.75499,-0.0185 1.50997,-0.1 2.20995,-0.1 h 0.39999 c 1.13498,0.0285 2.56995,0.1 4.5749,0.1 220.14504,0 440.29014,0 660.43664,0 C 926.5202,799.9985 1000,726.48865 1000,635.92719 1000,556.22298 942.3483,491.79093 866.869,477.03027 849.3704,335.67545 729.7526,227.62288 585.9108,227.58688 h -0.024 z m 0,38.45963 h 0.029 c 128.6561,0.036 235.2437,98.90228 244.9365,227.19939 0.755,9.33529 8.0498,16.78062 17.3476,17.6686 63.9256,6.12287 113.33,59.22767 113.33,125.00719 0,69.92343 -55.6538,125.61168 -125.5737,125.61168 -220.1315,0 -440.2636,0 -660.39514,0 -0.94498,0 -2.11495,-0.032 -3.89491,-0.1 -0.39999,-0.008 -0.94498,0.002 -1.32497,0.0245 -0.75498,0.0245 -1.50997,0.032 -2.28495,0.1 h -0.0265 C 96.214845,761.52187 38.503135,703.79266 38.501135,632.06078 c -0.002,-71.73389 57.71021,-129.49109 129.438095,-129.51209 7.46433,0.034 14.91017,0.75499 22.248,2.01996 13.05771,2.37994 24.55295,-8.8818 22.429,-21.99451 -0.75499,-4.4199 -1.13498,-8.8438 -1.13498,-13.3037 v -0.0245 -0.0245 c 0.0265,-47.01794 37.74165,-84.73509 84.77109,-84.73709 16.89412,0.0115 33.40076,5.06439 47.40196,14.51317 9.3353,6.31186 22.0925,3.24993 27.5689,-6.59535 43.3315,-77.97724 125.4266,-126.29766 214.6366,-126.35216 z"
     style="color:#000000;font-style:normal;font-variant:normal;font-weight:normal;font-stretch:normal;font-size:medium;line-height:normal;font-family:sans-serif;font-variant-ligatures:normal;font-variant-position:normal;font-variant-caps:normal;font-variant-numeric:normal;font-variant-alternates:normal;font-feature-settings:normal;text-indent:0;text-align:start;text-decoration:none;text-decoration-line:none;text-decoration-style:solid;text-decoration-color:#000000;letter-spacing:normal;word-spacing:normal;text-transform:none;writing-mode:lr-tb;direction:ltr;text-orientation:mixed;dominant-baseline:auto;baseline-shift:baseline;text-anchor:start;white-space:normal;shape-padding:0;clip-rule:nonzero;display:inline;overflow:visible;visibility:visible;opacity:1;isolation:auto;mix-blend-mode:normal;color-interpolation:sRGB;color-interpolation-filters:linearRGB;solid-color:#000000;solid-opacity:1;vector-effect:none;fill-opacity:1;fill-rule:nonzero;stroke:none;stroke-width:38.45428848;stroke-linecap:round;stroke-linejoin:round;stroke-miterlimit:4;stroke-dasharray:none;stroke-dashoffset:0;stroke-opacity:1;color-rendering:auto;image-rendering:auto;shape-rendering:auto;text-rendering:auto;enable-background:accumulate"
     sodipodi:nodetypes="ccccccccccccccsccccccccscccccccccccccccccc" />
</svg>
