<?xml version="1.0" encoding="UTF-8" standalone="no"?>
<svg
   xmlns:dc="http://purl.org/dc/elements/1.1/"
   xmlns:cc="http://creativecommons.org/ns#"
   xmlns:rdf="http://www.w3.org/1999/02/22-rdf-syntax-ns#"
   xmlns:svg="http://www.w3.org/2000/svg"
   xmlns="http://www.w3.org/2000/svg"
   xmlns:sodipodi="http://sodipodi.sourceforge.net/DTD/sodipodi-0.dtd"
   xmlns:inkscape="http://www.inkscape.org/namespaces/inkscape"
   width="1000"
   height="1000"
   viewBox="0 0 1000 1000"
   version="1.1"
   id="svg22"
   sodipodi:docname="i (24-я копия).svg"
   inkscape:version="0.92.3 (2405546, 2018-03-11)">
  <metadata
     id="metadata26">
    <rdf:RDF>
      <cc:Work
         rdf:about="">
        <dc:format>image/svg+xml</dc:format>
        <dc:type
           rdf:resource="http://purl.org/dc/dcmitype/StillImage" />
        <dc:title />
      </cc:Work>
    </rdf:RDF>
  </metadata>
  <sodipodi:namedview
     pagecolor="#ffffff"
     bordercolor="#666666"
     borderopacity="1"
     objecttolerance="10"
     gridtolerance="10"
     guidetolerance="10"
     inkscape:pageopacity="0"
     inkscape:pageshadow="2"
     inkscape:window-width="1280"
     inkscape:window-height="743"
     id="namedview24"
     showgrid="false"
     inkscape:zoom="0.43457604"
     inkscape:cx="-553.14596"
     inkscape:cy="446.53196"
     inkscape:window-x="0"
     inkscape:window-y="0"
     inkscape:window-maximized="1"
     inkscape:current-layer="svg22"
     showguides="true"
     inkscape:guide-bbox="true">
    <sodipodi:guide
       position="0,200"
       orientation="0,1"
       id="guide841"
       inkscape:locked="false"
       inkscape:label=""
       inkscape:color="rgb(0,0,255)" />
  </sodipodi:namedview>
  <defs
     id="defs12">
    <linearGradient
       id="a"
       x1="0.5"
       x2="0.5"
       y1="0"
       y2="1">
      <stop
         offset="0%"
         stop-color="#9FC7FF"
         id="stop2" />
      <stop
         offset="100%"
         stop-color="#9BC1F5"
         id="stop4" />
    </linearGradient>
    <radialGradient
       id="b"
       cx="0.55584997"
       cy="0.10083"
       r="0.58214998"
       fx="0.55584997"
       fy="0.10083"
       gradientTransform="matrix(0,-1,0.719,0,0.483,0.657)">
      <stop
         offset="0%"
         stop-color="#486DA8"
         stop-opacity=".4"
         id="stop7" />
      <stop
         offset="100%"
         stop-color="#486DA8"
         stop-opacity="0"
         id="stop9" />
    </radialGradient>
  </defs>
  <path
     style="color:#000000;font-style:normal;font-variant:normal;font-weight:normal;font-stretch:normal;font-size:medium;line-height:normal;font-family:sans-serif;font-variant-ligatures:normal;font-variant-position:normal;font-variant-caps:normal;font-variant-numeric:normal;font-variant-alternates:normal;font-feature-settings:normal;text-indent:0;text-align:start;text-decoration:none;text-decoration-line:none;text-decoration-style:solid;text-decoration-color:#000000;letter-spacing:normal;word-spacing:normal;text-transform:none;writing-mode:lr-tb;direction:ltr;text-orientation:mixed;dominant-baseline:auto;baseline-shift:baseline;text-anchor:start;white-space:normal;shape-padding:0;clip-rule:nonzero;display:inline;overflow:visible;visibility:visible;opacity:1;isolation:auto;mix-blend-mode:normal;color-interpolation:sRGB;color-interpolation-filters:linearRGB;solid-color:#000000;solid-opacity:1;vector-effect:none;fill-opacity:1;fill-rule:evenodd;stroke:none;stroke-width:91.95424652;stroke-linecap:round;stroke-linejoin:round;stroke-miterlimit:4;stroke-dasharray:none;stroke-dashoffset:0;stroke-opacity:1;paint-order:stroke fill markers;color-rendering:auto;image-rendering:auto;shape-rendering:auto;text-rendering:auto;enable-background:accumulate"
     d="m 862.77875,508.27299 c 49.6268,49.632 49.6284,131.556 0,181.188 l -73.3092,73.308 c -49.6296,49.628 -131.5788,49.648 -181.2056,0.02 l -121.9184,-121.916 c -49.6268,-49.624 -49.604,-131.576 0.024,-181.204 l 4.1424,-4.144 -46.0376,-46.04 -4.1424,4.144 c -49.6296,49.628 -131.5772,49.652 -181.2072,0.024 l -121.914,-121.916 c -49.627999,-49.632 -49.606799,-131.58 0.0228,-181.208 l 73.3092,-73.307995 c 49.6284,-49.628 131.5532,-49.628 181.1832,0 l 121.9152,121.915995 c 49.63,49.628 49.63,131.552 0,181.18 l -4.1724,4.168 46.0392,46.044 4.1724,-4.168 c 49.6284,-49.632 131.5548,-49.632 181.1848,0 z m -65.006,65.008 -121.9156,-121.916 c -14.7404,-14.748 -36.4212,-14.7 -51.152,0.02 l -4.1576,4.168 25.74,25.744 c 45.634,43.316 -21.6808,110.632 -65.0032,65.004 l -25.7416,-25.744 -4.1424,4.144 c -14.7404,14.724 -14.7552,36.416 -0.0228,51.152 l 121.9156,121.912 c 14.74,14.748 36.436,14.72 51.1672,-0.004 l 73.3108,-73.308 c 14.74,-14.748 14.74,-36.436 0.004,-51.172 z m -349.1364,-349.136 -121.9152,-121.916 c -14.7404,-14.723995 -36.438,-14.699995 -51.1676,0.004 l -73.3076,73.308 c -14.74,14.724 -14.74,36.44 -0.008,51.168 l 121.9156,121.916 c 14.74,14.724 36.418,14.724 51.152,-0.02 l 4.1424,-4.144 -25.7416,-25.74 c -45.634,-43.324 21.6824,-110.636 65.0064,-65.004 l 25.74,25.74 4.1728,-4.144 c 14.74,-14.724 14.7552,-36.424 0.0196,-51.156 z"
     id="path1319"
     inkscape:connector-curvature="0" />
</svg>
