<?xml version="1.0" encoding="UTF-8" standalone="no"?>
<svg
   xmlns:dc="http://purl.org/dc/elements/1.1/"
   xmlns:cc="http://creativecommons.org/ns#"
   xmlns:rdf="http://www.w3.org/1999/02/22-rdf-syntax-ns#"
   xmlns:svg="http://www.w3.org/2000/svg"
   xmlns="http://www.w3.org/2000/svg"
   xmlns:sodipodi="http://sodipodi.sourceforge.net/DTD/sodipodi-0.dtd"
   xmlns:inkscape="http://www.inkscape.org/namespaces/inkscape"
   width="1000"
   height="1000"
   viewBox="0 0 1000 1000"
   version="1.1"
   id="svg22"
   sodipodi:docname="i (26-я копия).svg"
   inkscape:version="0.92.3 (2405546, 2018-03-11)">
  <metadata
     id="metadata26">
    <rdf:RDF>
      <cc:Work
         rdf:about="">
        <dc:format>image/svg+xml</dc:format>
        <dc:type
           rdf:resource="http://purl.org/dc/dcmitype/StillImage" />
        <dc:title />
      </cc:Work>
    </rdf:RDF>
  </metadata>
  <sodipodi:namedview
     pagecolor="#ffffff"
     bordercolor="#666666"
     borderopacity="1"
     objecttolerance="10"
     gridtolerance="10"
     guidetolerance="10"
     inkscape:pageopacity="0"
     inkscape:pageshadow="2"
     inkscape:window-width="1280"
     inkscape:window-height="743"
     id="namedview24"
     showgrid="false"
     inkscape:zoom="0.43457604"
     inkscape:cx="183.20388"
     inkscape:cy="446.53196"
     inkscape:window-x="0"
     inkscape:window-y="0"
     inkscape:window-maximized="1"
     inkscape:current-layer="svg22"
     showguides="true"
     inkscape:guide-bbox="true">
    <sodipodi:guide
       position="0,200"
       orientation="0,1"
       id="guide841"
       inkscape:locked="false"
       inkscape:label=""
       inkscape:color="rgb(0,0,255)" />
  </sodipodi:namedview>
  <defs
     id="defs12">
    <linearGradient
       id="a"
       x1="0.5"
       x2="0.5"
       y1="0"
       y2="1">
      <stop
         offset="0%"
         stop-color="#9FC7FF"
         id="stop2" />
      <stop
         offset="100%"
         stop-color="#9BC1F5"
         id="stop4" />
    </linearGradient>
    <radialGradient
       id="b"
       cx="0.55584997"
       cy="0.10083"
       r="0.58214998"
       fx="0.55584997"
       fy="0.10083"
       gradientTransform="matrix(0,-1,0.719,0,0.483,0.657)">
      <stop
         offset="0%"
         stop-color="#486DA8"
         stop-opacity=".4"
         id="stop7" />
      <stop
         offset="100%"
         stop-color="#486DA8"
         stop-opacity="0"
         id="stop9" />
    </radialGradient>
  </defs>
  <path
     style="color:#000000;font-style:normal;font-variant:normal;font-weight:normal;font-stretch:normal;font-size:medium;line-height:normal;font-family:sans-serif;font-variant-ligatures:normal;font-variant-position:normal;font-variant-caps:normal;font-variant-numeric:normal;font-variant-alternates:normal;font-feature-settings:normal;text-indent:0;text-align:start;text-decoration:none;text-decoration-line:none;text-decoration-style:solid;text-decoration-color:#000000;letter-spacing:normal;word-spacing:normal;text-transform:none;writing-mode:lr-tb;direction:ltr;text-orientation:mixed;dominant-baseline:auto;baseline-shift:baseline;text-anchor:start;white-space:normal;shape-padding:0;clip-rule:nonzero;display:inline;overflow:visible;visibility:visible;opacity:1;isolation:auto;mix-blend-mode:normal;color-interpolation:sRGB;color-interpolation-filters:linearRGB;solid-color:#000000;solid-opacity:1;vector-effect:none;fill-opacity:1;fill-rule:nonzero;stroke:none;stroke-width:74.47279358;stroke-linecap:round;stroke-linejoin:round;stroke-miterlimit:4;stroke-dasharray:none;stroke-dashoffset:0;stroke-opacity:1;paint-order:stroke fill markers;color-rendering:auto;image-rendering:auto;shape-rendering:auto;text-rendering:auto;enable-background:accumulate"
     d="m 377.08545,0 c -5.6692,0 -21.44039,11.16319 -21.44039,26.67519 0,15.47399 15.76959,26.70558 21.44039,26.70558 h 5.2764 l 0.32,162.47232 -147.54833,537.10973 c -6.47039,23.65159 11.278,46.97798 35.83598,47.03718 h 458.06493 c 24.5184,-0.04 42.2912,-23.38559 35.8404,-47.03718 l -147.5511,-537.10973 0.08,-162.47232 h 6.0172 c 5.6692,0 20.8008,-11.19359 20.8008,-26.70558 C 644.22173,11.20119 629.08853,0 623.42093,0 Z m 41.04398,53.38077 h 163.5811 l -0.08,167.38952 148.8859,541.73253 c 0,0.04 0,0.04 0,0.08 0,0.04 0,0.04 0,0.08 0.011,0.08 0.011,0.32 0,0.452 0,0.04 0,0.04 0,0.08 -0.028,0.08 -0.04,0.32 -0.08,0.452 0,0.04 0,0.04 0,0.08 -0.04,0.04 -0.08,0.04 -0.12,0.08 -0.04,0.032 -0.04,0.04 -0.08,0.08 0,0.04 0,0.04 0,0.08 -0.08,0.08 -0.32,0.12 -0.452,0.32 -0.026,0.04 -0.039,0.04 -0.08,0.08 -0.035,0 -0.08,0 -0.08,0 -0.028,0.04 -0.039,0.04 -0.08,0.08 -0.08,0.012 -0.32,0.012 -0.452,0 -0.04,0.002 -0.04,0.002 -0.08,0 H 270.9759 c -0.04,0.006 -0.12,0.006 -0.32,0 -0.04,0.002 -0.04,0.002 -0.08,0 -0.08,-0.0304 -0.32,-0.04 -0.452,-0.08 -0.0288,-0.04 -0.04,-0.04 -0.08,-0.08 -0.0392,0.002 -0.0392,0.002 -0.08,0 -0.0392,-0.0304 -0.0392,-0.04 -0.08,-0.08 -0.0392,-0.026 -0.0392,-0.04 -0.08,-0.08 -0.0392,-0.032 -0.0392,-0.04 -0.08,-0.08 -0.0396,-0.08 -0.08,-0.32 -0.12,-0.452 -0.04,-0.0244 -0.04,-0.04 -0.08,-0.08 -0.002,-0.04 -0.002,-0.04 0,-0.08 -0.012,-0.08 -0.012,-0.32 0,-0.452 -0.0136,-0.08 -0.0136,-0.32 0,-0.452 -0.002,-0.04 -0.002,-0.04 0,-0.08 L 418.40863,220.95349 Z"
     id="path4752"
     inkscape:connector-curvature="0" />
</svg>
