<?xml version="1.0" encoding="UTF-8" standalone="no"?>
<svg
   xmlns:dc="http://purl.org/dc/elements/1.1/"
   xmlns:cc="http://creativecommons.org/ns#"
   xmlns:rdf="http://www.w3.org/1999/02/22-rdf-syntax-ns#"
   xmlns:svg="http://www.w3.org/2000/svg"
   xmlns="http://www.w3.org/2000/svg"
   xmlns:sodipodi="http://sodipodi.sourceforge.net/DTD/sodipodi-0.dtd"
   xmlns:inkscape="http://www.inkscape.org/namespaces/inkscape"
   width="1000"
   height="1000"
   viewBox="0 0 1000 1000"
   version="1.1"
   id="svg22"
   sodipodi:docname="i (6-я копия).svg"
   inkscape:version="0.92.3 (2405546, 2018-03-11)">
  <metadata
     id="metadata26">
    <rdf:RDF>
      <cc:Work
         rdf:about="">
        <dc:format>image/svg+xml</dc:format>
        <dc:type
           rdf:resource="http://purl.org/dc/dcmitype/StillImage" />
        <dc:title />
      </cc:Work>
    </rdf:RDF>
  </metadata>
  <sodipodi:namedview
     pagecolor="#ffffff"
     bordercolor="#666666"
     borderopacity="1"
     objecttolerance="10"
     gridtolerance="10"
     guidetolerance="10"
     inkscape:pageopacity="0"
     inkscape:pageshadow="2"
     inkscape:window-width="1280"
     inkscape:window-height="743"
     id="namedview24"
     showgrid="false"
     inkscape:zoom="0.15364583"
     inkscape:cx="-1048.79"
     inkscape:cy="666.31494"
     inkscape:window-x="0"
     inkscape:window-y="0"
     inkscape:window-maximized="1"
     inkscape:current-layer="svg22"
     showguides="true"
     inkscape:guide-bbox="true">
    <sodipodi:guide
       position="0,200"
       orientation="0,1"
       id="guide841"
       inkscape:locked="false"
       inkscape:label=""
       inkscape:color="rgb(0,0,255)" />
  </sodipodi:namedview>
  <defs
     id="defs12">
    <linearGradient
       id="a"
       x1="0.5"
       x2="0.5"
       y1="0"
       y2="1">
      <stop
         offset="0%"
         stop-color="#9FC7FF"
         id="stop2" />
      <stop
         offset="100%"
         stop-color="#9BC1F5"
         id="stop4" />
    </linearGradient>
    <radialGradient
       id="b"
       cx="0.55584997"
       cy="0.10083"
       r="0.58214998"
       fx="0.55584997"
       fy="0.10083"
       gradientTransform="matrix(0,-1,0.719,0,0.483,0.657)">
      <stop
         offset="0%"
         stop-color="#486DA8"
         stop-opacity=".4"
         id="stop7" />
      <stop
         offset="100%"
         stop-color="#486DA8"
         stop-opacity="0"
         id="stop9" />
    </radialGradient>
  </defs>
  <path
     inkscape:connector-curvature="0"
     style="color:#000000;font-style:normal;font-variant:normal;font-weight:normal;font-stretch:normal;font-size:medium;line-height:normal;font-family:sans-serif;font-variant-ligatures:normal;font-variant-position:normal;font-variant-caps:normal;font-variant-numeric:normal;font-variant-alternates:normal;font-feature-settings:normal;text-indent:0;text-align:start;text-decoration:none;text-decoration-line:none;text-decoration-style:solid;text-decoration-color:#000000;letter-spacing:normal;word-spacing:normal;text-transform:none;writing-mode:lr-tb;direction:ltr;text-orientation:mixed;dominant-baseline:auto;baseline-shift:baseline;text-anchor:start;white-space:normal;shape-padding:0;clip-rule:nonzero;display:inline;overflow:visible;visibility:visible;opacity:1;isolation:auto;mix-blend-mode:normal;color-interpolation:sRGB;color-interpolation-filters:linearRGB;solid-color:#000000;solid-opacity:1;vector-effect:none;fill-opacity:1;fill-rule:nonzero;stroke:none;stroke-width:44.0994072;stroke-linecap:round;stroke-linejoin:miter;stroke-miterlimit:4;stroke-dasharray:none;stroke-dashoffset:0;stroke-opacity:1;paint-order:stroke fill markers;color-rendering:auto;image-rendering:auto;shape-rendering:auto;text-rendering:auto;enable-background:accumulate"
     d="m 506.83023,0.00480633 c -21.44638,0 -42.50696,1.74269607 -63.03873,5.07224707 a 22.051907,22.051907 0 1 0 7.08616,43.5257366 c 18.20016,-2.968592 36.88467,-4.51218 55.95096,-4.51218 168.47385,0 308.40435,120.30131 339.16315,279.51002 a 22.051907,22.051907 0 1 0 43.2969,-8.35813 C 854.58587,135.60459 696.31897,-1.1059664e-6 506.82862,-1.1059664e-6 Z M 359.18822,31.25355 a 22.051907,22.051907 0 0 0 -10.06918,2.015117 C 280.52772,63.672904 222.40861,113.2508 181.49772,175.2375 a 22.051907,22.051907 0 1 0 36.80294,24.29439 C 254.5904,144.55283 306.20505,100.53032 366.99229,73.587843 a 22.051907,22.051907 0 0 0 -7.79806,-42.322275 z m 147.64201,42.249763 c -72.34633,0 -139.24302,24.403353 -192.53667,65.395967 a 22.051907,22.051907 0 1 0 26.8868,34.95608 c 45.88659,-35.295 103.19565,-56.25262 165.64987,-56.25262 82.50764,0 156.16364,36.59742 206.05514,94.46654 a 22.051907,22.051907 0 1 0 33.4005,-28.79735 C 688.34707,116.07517 602.40807,73.503313 506.83023,73.503313 Z m 0,73.499707 c -73.19885,0 -139.09599,32.57119 -183.54876,83.98874 a 22.051907,22.051907 0 1 0 33.3584,28.84021 c 36.41394,-42.11635 90.0405,-68.73073 150.19036,-68.73073 109.85794,0 198.44504,88.58705 198.44504,198.44821 a 22.051907,22.051907 0 1 0 44.101,0 c 0,-133.69523 -108.8524,-242.54643 -242.54604,-242.54643 z m -236.42577,46.2832 a 22.051907,22.051907 0 0 0 -18.36681,9.23629 c -38.48995,52.35219 -61.25356,117.15004 -61.25356,187.02534 0,56.97174 -17.89128,112.50004 -51.15114,158.75761 a 22.051907,22.051907 0 1 0 35.8066,25.74503 c 38.64899,-53.75396 59.44436,-118.29621 59.44436,-184.50264 0,-60.31932 19.55065,-115.8312 52.68791,-160.90132 a 22.051907,22.051907 0 0 0 -17.16736,-35.36151 z m 236.42577,27.21571 c -93.10244,0 -169.04913,75.94509 -169.04913,169.04752 0,56.21737 -11.3107,111.36429 -32.73905,162.35638 a 22.051906,22.051906 0 1 0 40.6565,17.09044 c 23.69065,-56.35999 36.18077,-117.3183 36.18077,-179.44682 0,-69.26796 55.68295,-124.9497 124.95091,-124.9497 44.38306,0 83.07692,22.97915 105.28964,57.64117 a 22.051906,22.051906 0 1 0 37.1287,-23.79681 c -30.0425,-46.87933 -82.76365,-77.94218 -142.41834,-77.94218 z m 259.79994,9.34205 a 22.051907,22.051907 0 0 0 -19.2979,32.6453 c 20.0791,37.91746 31.4447,81.07984 31.4447,127.06298 0,102.93845 -18.4834,205.0376 -54.5672,301.44395 a 22.051907,22.051907 0 1 0 41.3031,15.46112 c 37.931,-101.3516 57.3623,-208.69006 57.3623,-316.90507 0,-53.26761 -13.2341,-103.6163 -36.5686,-147.7009 a 22.051907,22.051907 0 0 0 -19.6764,-12.00738 z m -602.50132,2.49987 a 22.051907,22.051907 0 0 0 -19.75977,14.23322 c -17.48225,44.28291 -27.0835,92.5664 -27.0835,142.9816 0,23.57527 -4.20931,46.96305 -12.41601,69.06364 a 22.051907,22.051907 0 1 0 41.34396,15.34895 c 9.61488,-25.91489 14.71757,-53.27562 15.1262,-80.89675 a 22.051907,22.051907 0 0 0 0.0801,-1.69462 c -0.004,-0.60494 -0.006,-1.20988 -0.006,-1.81882 0,-44.82174 8.50956,-87.54824 24.00233,-126.78614 a 22.051907,22.051907 0 0 0 -21.25408,-30.42067 z m 138.64048,50.33347 a 22.051906,22.051906 0 0 0 -20.00975,13.88508 c -11.91604,28.65513 -18.47699,60.11941 -18.47699,92.99907 0,82.00046 -29.16111,161.31517 -82.2837,223.78461 a 22.051906,22.051906 0 1 0 33.59438,28.56579 c 59.89546,-70.43376 92.78754,-159.89016 92.78754,-252.3504 0,-27.0186 5.37512,-52.66507 15.11138,-76.0785 a 22.051906,22.051906 0 0 0 -20.71244,-30.79484 z m 204.0609,11.32592 c -52.50924,0 -95.55063,43.03858 -95.55063,95.54782 a 22.051906,22.051906 0 1 0 44.10103,0 c 0,-28.67517 22.77443,-51.4496 51.4496,-51.4496 28.67356,0 51.44799,22.77443 51.44799,51.4496 0,78.9297 -14.61181,156.67999 -42.60071,229.48943 a 22.051906,22.051906 0 1 0 41.16208,15.82929 c 29.9259,-77.83201 45.53848,-160.9502 45.53848,-245.31872 0,-52.50924 -43.03861,-95.54782 -95.54784,-95.54782 z m -0.3205,73.18842 a 22.051906,22.051906 0 0 0 -21.71439,22.3594 c 0,128.51201 -43.73486,253.18769 -124.01506,353.53974 a 22.051906,22.051906 0 1 0 34.43768,27.54982 c 86.53106,-108.16493 133.6756,-242.57167 133.6756,-381.08956 a 22.051906,22.051906 0 0 0 -22.38223,-22.3594 z m 146.99704,0 a 22.051906,22.051906 0 0 0 -21.716,22.3594 c 0,133.05624 -37.2328,263.45518 -107.48831,376.45039 a 22.051906,22.051906 0 1 0 37.44953,23.28442 C 636.35297,669.30305 675.89057,530.83363 675.89057,389.55106 a 22.051906,22.051906 0 0 0 -22.3822,-22.3594 z m 220.8392,1.20988 a 22.282843,22.282843 0 0 0 -22.282,22.28247 22.282843,22.282843 0 0 0 0.1602,2.78431 c -0.1602,52.93789 -4.936,105.76682 -14.1271,157.90789 a 22.051907,22.051907 0 1 0 43.4288,7.64663 c 9.5849,-54.43982 14.4904,-109.59595 14.748,-164.86706 a 22.282843,22.282843 0 0 0 0.3205,-3.46536 22.282843,22.282843 0 0 0 -22.2824,-22.28247 z m -150.2676,61.9895 a 22.051906,22.051906 0 0 0 -21.1948,20.62591 c -8.0405,102.646 -36.1928,202.92233 -83.0501,295.05246 a 22.051906,22.051906 0 1 0 39.3076,19.99133 c 49.4841,-97.29492 79.2097,-203.19636 87.7073,-311.59926 a 22.051906,22.051906 0 0 0 -22.77,-24.07044 z m -296.25758,18.74219 a 22.051906,22.051906 0 0 0 -22.80928,18.82553 C 390.62886,557.10147 351.92258,641.11584 292.43294,710.3854 a 22.051906,22.051906 0 1 0 33.45496,28.73246 C 390.69977,663.65231 432.88423,572.10988 448.55127,474.98122 A 22.051906,22.051906 0 0 0 427.8224,449.13323 Z M 286.1384,610.57219 a 22.051906,22.051906 0 0 0 -17.88647,10.12967 c -10.64446,16.10011 -22.45514,31.52197 -35.36631,46.14258 a 22.051906,22.051906 0 1 0 33.05394,29.18836 c 14.26326,-16.1578 27.31706,-33.20417 39.09087,-50.9985 A 22.051906,22.051906 0 0 0 286.1384,610.56778 Z m 228.3028,46.51476 a 22.051906,22.051906 0 0 0 -20.80619,12.65838 c -15.776,32.36207 -34.32871,63.48862 -55.54673,93.00709 a 22.051906,22.051906 0 1 0 35.8082,25.74062 c 22.68068,-31.55522 42.51457,-64.82709 59.37906,-99.42261 A 22.051906,22.051906 0 0 0 514.4412,657.09296 Z"
     id="path5503" />
</svg>
