<?xml version="1.0" encoding="UTF-8" standalone="no"?>
<svg
   xmlns:dc="http://purl.org/dc/elements/1.1/"
   xmlns:cc="http://creativecommons.org/ns#"
   xmlns:rdf="http://www.w3.org/1999/02/22-rdf-syntax-ns#"
   xmlns:svg="http://www.w3.org/2000/svg"
   xmlns="http://www.w3.org/2000/svg"
   xmlns:sodipodi="http://sodipodi.sourceforge.net/DTD/sodipodi-0.dtd"
   xmlns:inkscape="http://www.inkscape.org/namespaces/inkscape"
   width="1000"
   height="1000"
   viewBox="0 0 1000 1000"
   version="1.1"
   id="svg22"
   sodipodi:docname="i (13-я копия).svg"
   inkscape:version="0.92.3 (2405546, 2018-03-11)">
  <metadata
     id="metadata26">
    <rdf:RDF>
      <cc:Work
         rdf:about="">
        <dc:format>image/svg+xml</dc:format>
        <dc:type
           rdf:resource="http://purl.org/dc/dcmitype/StillImage" />
        <dc:title />
      </cc:Work>
    </rdf:RDF>
  </metadata>
  <sodipodi:namedview
     pagecolor="#ffffff"
     bordercolor="#666666"
     borderopacity="1"
     objecttolerance="10"
     gridtolerance="10"
     guidetolerance="10"
     inkscape:pageopacity="0"
     inkscape:pageshadow="2"
     inkscape:window-width="1280"
     inkscape:window-height="743"
     id="namedview24"
     showgrid="false"
     inkscape:zoom="0.15364583"
     inkscape:cx="-1172.3989"
     inkscape:cy="1266.7957"
     inkscape:window-x="0"
     inkscape:window-y="0"
     inkscape:window-maximized="1"
     inkscape:current-layer="svg22"
     showguides="true"
     inkscape:guide-bbox="true">
    <sodipodi:guide
       position="0,200"
       orientation="0,1"
       id="guide841"
       inkscape:locked="false"
       inkscape:label=""
       inkscape:color="rgb(0,0,255)" />
  </sodipodi:namedview>
  <defs
     id="defs12">
    <linearGradient
       id="a"
       x1="0.5"
       x2="0.5"
       y1="0"
       y2="1">
      <stop
         offset="0%"
         stop-color="#9FC7FF"
         id="stop2" />
      <stop
         offset="100%"
         stop-color="#9BC1F5"
         id="stop4" />
    </linearGradient>
    <radialGradient
       id="b"
       cx="0.55584997"
       cy="0.10083"
       r="0.58214998"
       fx="0.55584997"
       fy="0.10083"
       gradientTransform="matrix(0,-1,0.719,0,0.483,0.657)">
      <stop
         offset="0%"
         stop-color="#486DA8"
         stop-opacity=".4"
         id="stop7" />
      <stop
         offset="100%"
         stop-color="#486DA8"
         stop-opacity="0"
         id="stop9" />
    </radialGradient>
  </defs>
  <path
     id="path1340"
     d="m 235.91373,170.7199 c 0,-37.37503 -30.02952,-67.40357 -67.40405,-67.40357 -37.37504,0 -67.40409,30.02854 -67.40409,67.40357 0,37.37553 30.02905,67.40357 67.40409,67.40357 37.37453,0 67.40405,-30.02804 67.40405,-67.40357 z M 797.7893,474.0362 c 0,17.896 -7.37604,35.28602 -19.48004,47.38454 L 519.75001,780.51998 C 507.11501,792.6205 489.72047,800 471.82547,800 c -17.89603,0 -35.28602,-7.3795 -47.38404,-19.48002 L 47.924564,403.46462 C 21.064533,377.14358 0,326.05154 0,288.67651 V 69.614806 C 0,32.744754 30.535033,2.2112311 67.404058,2.2112311 H 286.46529 c 37.37653,0 88.46708,21.0635329 115.3286,47.9240389 l 376.51537,375.97686 c 12.10051,12.63901 19.48004,30.02853 19.48004,47.92407 z m 202.2107,0 c 0,17.896 -7.37606,35.28602 -19.47955,47.38454 L 721.96021,780.51998 A 70.099717,70.099717 0 0 1 674.03617,800 c -27.36554,0 -41.08257,-12.63901 -58.97806,-31.07301 L 862.56436,521.42074 c 12.1,-12.10001 19.4795,-29.48905 19.4795,-47.38454 0,-17.89605 -7.37551,-35.28554 -19.4795,-47.92407 L 486.04848,50.13527 C 459.18747,23.274764 408.12939,2.2112311 370.71988,2.2112311 h 117.95661 c 37.37602,0 88.46658,21.0635329 115.32812,47.9240389 L 980.52045,426.11213 C 992.62045,438.75114 1000,456.14066 1000,474.0362 Z"
     inkscape:connector-curvature="0"
     style="display:inline;stroke-width:33.70178986" />
</svg>
