<?xml version="1.0" encoding="UTF-8" standalone="no"?>
<svg
   xmlns:dc="http://purl.org/dc/elements/1.1/"
   xmlns:cc="http://creativecommons.org/ns#"
   xmlns:rdf="http://www.w3.org/1999/02/22-rdf-syntax-ns#"
   xmlns:svg="http://www.w3.org/2000/svg"
   xmlns="http://www.w3.org/2000/svg"
   xmlns:sodipodi="http://sodipodi.sourceforge.net/DTD/sodipodi-0.dtd"
   xmlns:inkscape="http://www.inkscape.org/namespaces/inkscape"
   width="1000"
   height="1000"
   viewBox="0 0 1000 1000"
   version="1.1"
   id="svg22"
   sodipodi:docname="i (14-я копия).svg"
   inkscape:version="0.92.3 (2405546, 2018-03-11)">
  <metadata
     id="metadata26">
    <rdf:RDF>
      <cc:Work
         rdf:about="">
        <dc:format>image/svg+xml</dc:format>
        <dc:type
           rdf:resource="http://purl.org/dc/dcmitype/StillImage" />
        <dc:title />
      </cc:Work>
    </rdf:RDF>
  </metadata>
  <sodipodi:namedview
     pagecolor="#ffffff"
     bordercolor="#666666"
     borderopacity="1"
     objecttolerance="10"
     gridtolerance="10"
     guidetolerance="10"
     inkscape:pageopacity="0"
     inkscape:pageshadow="2"
     inkscape:window-width="1280"
     inkscape:window-height="743"
     id="namedview24"
     showgrid="false"
     inkscape:zoom="0.15364583"
     inkscape:cx="-329.33539"
     inkscape:cy="251.00546"
     inkscape:window-x="0"
     inkscape:window-y="0"
     inkscape:window-maximized="1"
     inkscape:current-layer="svg22"
     showguides="true"
     inkscape:guide-bbox="true">
    <sodipodi:guide
       position="0,200"
       orientation="0,1"
       id="guide841"
       inkscape:locked="false"
       inkscape:label=""
       inkscape:color="rgb(0,0,255)" />
  </sodipodi:namedview>
  <defs
     id="defs12">
    <linearGradient
       id="a"
       x1="0.5"
       x2="0.5"
       y1="0"
       y2="1">
      <stop
         offset="0%"
         stop-color="#9FC7FF"
         id="stop2" />
      <stop
         offset="100%"
         stop-color="#9BC1F5"
         id="stop4" />
    </linearGradient>
    <radialGradient
       id="b"
       cx="0.55584997"
       cy="0.10083"
       r="0.58214998"
       fx="0.55584997"
       fy="0.10083"
       gradientTransform="matrix(0,-1,0.719,0,0.483,0.657)">
      <stop
         offset="0%"
         stop-color="#486DA8"
         stop-opacity=".4"
         id="stop7" />
      <stop
         offset="100%"
         stop-color="#486DA8"
         stop-opacity="0"
         id="stop9" />
    </radialGradient>
  </defs>
  <path
     id="path1362"
     d="m 566.66671,216.66662 v 233.33343 c 0,9.36721 -7.2989,16.66642 -16.6669,16.66642 H 383.33328 a 16.466672,16.466672 0 0 1 -16.66682,-16.66642 v -33.33363 c 0,-9.36721 7.2992,-16.66642 16.66682,-16.66642 H 500.0002 V 216.66662 c 0,-9.36721 7.29881,-16.66682 16.66642,-16.66682 h 33.33319 c 9.3672,0 16.6669,7.29921 16.6669,16.66682 z M 783.33331,400 c 0,-156.26696 -127.1002,-283.33348 -283.33311,-283.33348 -156.23376,0 -283.33349,127.10012 -283.33349,283.33348 0,156.23336 127.09973,283.33348 283.33349,283.33348 156.23291,0 283.33311,-127.10012 283.33311,-283.33348 z m 116.6669,0 c 0,220.83342 -179.167,400 -400.00001,400 C 279.16637,800 99.999795,620.83342 99.999795,400 99.999795,179.16658 279.16637,0 500.0002,0 720.83321,0 900.00021,179.16658 900.00021,400 Z"
     inkscape:connector-curvature="0"
     style="display:inline;stroke-width:33.33334351" />
</svg>
