<?xml version="1.0" encoding="UTF-8" standalone="no"?>
<svg
   xmlns:dc="http://purl.org/dc/elements/1.1/"
   xmlns:cc="http://creativecommons.org/ns#"
   xmlns:rdf="http://www.w3.org/1999/02/22-rdf-syntax-ns#"
   xmlns:svg="http://www.w3.org/2000/svg"
   xmlns="http://www.w3.org/2000/svg"
   xmlns:sodipodi="http://sodipodi.sourceforge.net/DTD/sodipodi-0.dtd"
   xmlns:inkscape="http://www.inkscape.org/namespaces/inkscape"
   width="1000"
   height="1000"
   viewBox="0 0 1000 1000"
   version="1.1"
   id="svg22"
   sodipodi:docname="i (10-я копия).svg"
   inkscape:version="0.92.3 (2405546, 2018-03-11)">
  <metadata
     id="metadata26">
    <rdf:RDF>
      <cc:Work
         rdf:about="">
        <dc:format>image/svg+xml</dc:format>
        <dc:type
           rdf:resource="http://purl.org/dc/dcmitype/StillImage" />
        <dc:title />
      </cc:Work>
    </rdf:RDF>
  </metadata>
  <sodipodi:namedview
     pagecolor="#ffffff"
     bordercolor="#666666"
     borderopacity="1"
     objecttolerance="10"
     gridtolerance="10"
     guidetolerance="10"
     inkscape:pageopacity="0"
     inkscape:pageshadow="2"
     inkscape:window-width="1280"
     inkscape:window-height="743"
     id="namedview24"
     showgrid="false"
     inkscape:zoom="0.15364583"
     inkscape:cx="1334.3315"
     inkscape:cy="586.812"
     inkscape:window-x="0"
     inkscape:window-y="0"
     inkscape:window-maximized="1"
     inkscape:current-layer="svg22"
     showguides="true"
     inkscape:guide-bbox="true">
    <sodipodi:guide
       position="0,200"
       orientation="0,1"
       id="guide841"
       inkscape:locked="false"
       inkscape:label=""
       inkscape:color="rgb(0,0,255)" />
  </sodipodi:namedview>
  <defs
     id="defs12">
    <linearGradient
       id="a"
       x1="0.5"
       x2="0.5"
       y1="0"
       y2="1">
      <stop
         offset="0%"
         stop-color="#9FC7FF"
         id="stop2" />
      <stop
         offset="100%"
         stop-color="#9BC1F5"
         id="stop4" />
    </linearGradient>
    <radialGradient
       id="b"
       cx="0.55584997"
       cy="0.10083"
       r="0.58214998"
       fx="0.55584997"
       fy="0.10083"
       gradientTransform="matrix(0,-1,0.719,0,0.483,0.657)">
      <stop
         offset="0%"
         stop-color="#486DA8"
         stop-opacity=".4"
         id="stop7" />
      <stop
         offset="100%"
         stop-color="#486DA8"
         stop-opacity="0"
         id="stop9" />
    </radialGradient>
  </defs>
  <path
     sodipodi:nodetypes="csccccccccccccccccccccccccccccccccccccccccssssccccccccccccccccccccccccccccccccccccccccsccccsssc"
     style="color:#000000;font-style:normal;font-variant:normal;font-weight:normal;font-stretch:normal;font-size:medium;line-height:normal;font-family:sans-serif;font-variant-ligatures:normal;font-variant-position:normal;font-variant-caps:normal;font-variant-numeric:normal;font-variant-alternates:normal;font-feature-settings:normal;text-indent:0;text-align:start;text-decoration:none;text-decoration-line:none;text-decoration-style:solid;text-decoration-color:#000000;letter-spacing:normal;word-spacing:normal;text-transform:none;writing-mode:lr-tb;direction:ltr;text-orientation:mixed;dominant-baseline:auto;baseline-shift:baseline;text-anchor:start;white-space:normal;shape-padding:0;clip-rule:nonzero;display:inline;overflow:visible;visibility:visible;opacity:1;isolation:auto;mix-blend-mode:normal;color-interpolation:sRGB;color-interpolation-filters:linearRGB;solid-color:#000000;solid-opacity:1;vector-effect:none;fill-opacity:1;fill-rule:nonzero;stroke:none;stroke-width:14.70567608;stroke-linecap:butt;stroke-linejoin:miter;stroke-miterlimit:4;stroke-dasharray:none;stroke-dashoffset:0;stroke-opacity:1;color-rendering:auto;image-rendering:auto;shape-rendering:auto;text-rendering:auto;enable-background:accumulate"
     d="m 330.91675,0 c -5.60876,0 -10.08352,4.51996 -10.08352,10.07912 v 15.76827 h -78.78617 v 14.76749 h 78.78617 v 66.32186 h -78.78617 v 14.76709 h 78.78617 v 66.28987 h -78.78617 v 14.76748 h 78.78617 v 66.31867 h -78.78617 v 14.76708 h 78.78617 v 66.32067 h -78.78617 v 14.76708 h 78.78617 v 66.31587 h -78.78617 v 14.76748 h 78.78617 v 66.32187 h -78.78617 v 14.76708 h 78.78617 v 66.31867 h -78.78617 v 14.76748 h 78.78617 v 66.31867 h -78.78617 v 14.76749 h 78.78617 v 66.31587 h -78.78617 v 14.76708 h 78.78617 v 19.55864 c 0,5.60436 4.50516,10.07912 10.08352,10.07912 h 317.92227 c 5.62394,0 10.0835,-4.51996 10.0835,-10.07912 v -19.55864 h 99.03042 v -14.76708 h -99.03042 v -66.31587 h 99.03042 V 674.5118 h -99.03042 v -66.31867 h 99.03042 v -14.76748 h -99.03042 v -66.31867 h 99.03042 V 512.3399 h -99.03042 v -66.32187 h 99.03042 v -14.76748 h -99.03042 v -66.31587 h 99.03042 V 350.1676 h -99.03042 v -66.32067 h 99.03042 v -14.76708 h -99.03042 v -66.31867 h 99.03042 V 187.9937 h -99.03042 v -66.28987 h 99.03042 V 106.93674 H 658.92252 V 40.61648 h 99.03042 V 25.84899 H 658.92252 V 10.08072 c 0,-5.60436 -4.50515,-10.07912 -10.0835,-10.07912 z m 110.66671,32.61814 h 116.84107 v 6.38275 c 0,32.35694 -26.06219,58.42233 -58.42073,58.42233 -32.35694,0 -58.42034,-26.06539 -58.42034,-58.42233 z"
     id="path5554"
     inkscape:connector-curvature="0" />
</svg>
