<?xml version="1.0" encoding="UTF-8" standalone="no"?>
<svg
   xmlns:dc="http://purl.org/dc/elements/1.1/"
   xmlns:cc="http://creativecommons.org/ns#"
   xmlns:rdf="http://www.w3.org/1999/02/22-rdf-syntax-ns#"
   xmlns:svg="http://www.w3.org/2000/svg"
   xmlns="http://www.w3.org/2000/svg"
   xmlns:sodipodi="http://sodipodi.sourceforge.net/DTD/sodipodi-0.dtd"
   xmlns:inkscape="http://www.inkscape.org/namespaces/inkscape"
   width="1000"
   height="1000"
   viewBox="0 0 1000 1000"
   version="1.1"
   id="svg22"
   sodipodi:docname="i (20-я копия).svg"
   inkscape:version="0.92.3 (2405546, 2018-03-11)">
  <metadata
     id="metadata26">
    <rdf:RDF>
      <cc:Work
         rdf:about="">
        <dc:format>image/svg+xml</dc:format>
        <dc:type
           rdf:resource="http://purl.org/dc/dcmitype/StillImage" />
        <dc:title />
      </cc:Work>
    </rdf:RDF>
  </metadata>
  <sodipodi:namedview
     pagecolor="#ffffff"
     bordercolor="#666666"
     borderopacity="1"
     objecttolerance="10"
     gridtolerance="10"
     guidetolerance="10"
     inkscape:pageopacity="0"
     inkscape:pageshadow="2"
     inkscape:window-width="1280"
     inkscape:window-height="743"
     id="namedview24"
     showgrid="false"
     inkscape:zoom="0.43457604"
     inkscape:cx="551.37881"
     inkscape:cy="446.53196"
     inkscape:window-x="0"
     inkscape:window-y="0"
     inkscape:window-maximized="1"
     inkscape:current-layer="svg22"
     showguides="true"
     inkscape:guide-bbox="true">
    <sodipodi:guide
       position="0,200"
       orientation="0,1"
       id="guide841"
       inkscape:locked="false"
       inkscape:label=""
       inkscape:color="rgb(0,0,255)" />
  </sodipodi:namedview>
  <defs
     id="defs12">
    <linearGradient
       id="a"
       x1="0.5"
       x2="0.5"
       y1="0"
       y2="1">
      <stop
         offset="0%"
         stop-color="#9FC7FF"
         id="stop2" />
      <stop
         offset="100%"
         stop-color="#9BC1F5"
         id="stop4" />
    </linearGradient>
    <radialGradient
       id="b"
       cx="0.55584997"
       cy="0.10083"
       r="0.58214998"
       fx="0.55584997"
       fy="0.10083"
       gradientTransform="matrix(0,-1,0.719,0,0.483,0.657)">
      <stop
         offset="0%"
         stop-color="#486DA8"
         stop-opacity=".4"
         id="stop7" />
      <stop
         offset="100%"
         stop-color="#486DA8"
         stop-opacity="0"
         id="stop9" />
    </radialGradient>
  </defs>
  <path
     style="display:inline;opacity:1;fill-opacity:1;fill-rule:nonzero;stroke:none;stroke-width:7.95288324;stroke-linecap:butt;stroke-linejoin:round;stroke-miterlimit:4;stroke-dasharray:none;stroke-dashoffset:0;stroke-opacity:1"
     d="m 499.999,249.51505 c -109.16389,0 -203.4763,63.56694 -247.95925,155.69934 A 500.00215,137.75433 0 0 0 0,524.70728 500.00215,137.75433 0 0 0 499.999,662.45814 500.00215,137.75433 0 0 0 1000,524.70728 500.00215,137.75433 0 0 0 748.00025,405.29639 C 703.5338,313.11899 609.19539,249.51505 499.999,249.51505 Z M 242.26776,428.15537 c -11.26299,30.04847 -17.46148,62.57094 -17.46148,96.55191 0,12.50648 0.94499,24.79397 2.52999,36.85846 71.72743,15.25598 167.60484,24.79797 272.66773,24.79797 105.06139,0 200.9403,-9.54149 272.66823,-24.79797 1.7,-12.06399 2.51499,-24.35148 2.51499,-36.85846 0,-33.93447 -6.19849,-66.41544 -17.42348,-96.42941 A 417.6317,100.22809 0 0 1 917.62408,506.98679 417.6317,100.22809 0 0 1 499.9905,607.21119 417.6317,100.22809 0 0 1 82.35692,506.98679 417.6317,100.22809 0 0 1 242.25726,428.15537 Z m 22.33898,239.17276 C 312.86169,746.80205 400.2311,799.9 499.999,799.9 c 99.7699,0 187.13931,-53.09795 235.39426,-132.57187 -70.58792,10.23899 -150.51184,15.97799 -235.39426,15.97799 -84.88042,0 -164.80434,-5.739 -235.39226,-15.97799 z"
     id="circle1284"
     inkscape:connector-curvature="0" />
</svg>
