<?xml version="1.0" encoding="UTF-8" standalone="no"?>
<svg
   xmlns:dc="http://purl.org/dc/elements/1.1/"
   xmlns:cc="http://creativecommons.org/ns#"
   xmlns:rdf="http://www.w3.org/1999/02/22-rdf-syntax-ns#"
   xmlns:svg="http://www.w3.org/2000/svg"
   xmlns="http://www.w3.org/2000/svg"
   xmlns:sodipodi="http://sodipodi.sourceforge.net/DTD/sodipodi-0.dtd"
   xmlns:inkscape="http://www.inkscape.org/namespaces/inkscape"
   width="1000"
   height="1000"
   viewBox="0 0 1000 1000"
   version="1.1"
   id="svg22"
   sodipodi:docname="i (12-я копия).svg"
   inkscape:version="0.92.3 (2405546, 2018-03-11)">
  <metadata
     id="metadata26">
    <rdf:RDF>
      <cc:Work
         rdf:about="">
        <dc:format>image/svg+xml</dc:format>
        <dc:type
           rdf:resource="http://purl.org/dc/dcmitype/StillImage" />
        <dc:title />
      </cc:Work>
    </rdf:RDF>
  </metadata>
  <sodipodi:namedview
     pagecolor="#ffffff"
     bordercolor="#666666"
     borderopacity="1"
     objecttolerance="10"
     gridtolerance="10"
     guidetolerance="10"
     inkscape:pageopacity="0"
     inkscape:pageshadow="2"
     inkscape:window-width="1280"
     inkscape:window-height="743"
     id="namedview24"
     showgrid="false"
     inkscape:zoom="0.43457604"
     inkscape:cx="367.29134"
     inkscape:cy="446.53196"
     inkscape:window-x="0"
     inkscape:window-y="0"
     inkscape:window-maximized="1"
     inkscape:current-layer="svg22"
     showguides="true"
     inkscape:guide-bbox="true">
    <sodipodi:guide
       position="0,200"
       orientation="0,1"
       id="guide841"
       inkscape:locked="false"
       inkscape:label=""
       inkscape:color="rgb(0,0,255)" />
  </sodipodi:namedview>
  <defs
     id="defs12">
    <linearGradient
       id="a"
       x1="0.5"
       x2="0.5"
       y1="0"
       y2="1">
      <stop
         offset="0%"
         stop-color="#9FC7FF"
         id="stop2" />
      <stop
         offset="100%"
         stop-color="#9BC1F5"
         id="stop4" />
    </linearGradient>
    <radialGradient
       id="b"
       cx="0.55584997"
       cy="0.10083"
       r="0.58214998"
       fx="0.55584997"
       fy="0.10083"
       gradientTransform="matrix(0,-1,0.719,0,0.483,0.657)">
      <stop
         offset="0%"
         stop-color="#486DA8"
         stop-opacity=".4"
         id="stop7" />
      <stop
         offset="100%"
         stop-color="#486DA8"
         stop-opacity="0"
         id="stop9" />
    </radialGradient>
  </defs>
  <path
     style="display:inline;opacity:1;fill-opacity:1;fill-rule:nonzero;stroke:none;stroke-width:55.6876564;stroke-linecap:round;stroke-linejoin:miter;stroke-miterlimit:4;stroke-dasharray:none;stroke-opacity:1;paint-order:stroke fill markers"
     d="M 305.59739,0.09807317 C 293.73605,-0.51870775 282.82075,1.7624898 273.27824,7.2595934 254.19551,18.284643 243.7038,40.515255 240.25162,69.610776 c -3.44675,29.09735 -0.1361,65.665514 9.15291,107.562984 6.41096,29.05743 15.90675,60.81465 27.90867,94.23676 -34.96905,6.32161 -67.2365,14.00423 -95.63223,22.96894 -40.91198,12.93481 -74.14814,28.33543 -97.620941,45.87438 -23.470977,17.53849 -37.574518,37.73279 -37.574518,59.76883 0,22.03606 14.107167,42.16007 37.574518,59.69902 23.472801,17.53985 56.708961,32.94227 97.620941,45.87392 28.39891,8.99556 60.6786,16.65051 95.6531,22.97076 -11.99877,33.43707 -21.48095,65.21289 -27.90731,94.28257 -9.2731,41.89746 -12.59832,78.46699 -9.15293,107.56296 3.44675,29.09553 13.9353,51.33341 33.02846,62.35255 19.08318,11.00963 43.51561,8.91846 70.44241,-2.63947 26.92318,-11.55976 56.93663,-32.70236 88.59272,-61.66728 21.94896,-20.08728 44.71021,-44.19092 67.65146,-71.28915 22.94671,27.10276 45.71476,51.19144 67.67733,71.28915 31.6561,28.96492 61.66954,50.10707 88.59089,61.66728 26.9268,11.5602 51.42818,13.59106 70.5159,2.59866 19.08318,-11.02505 29.57172,-33.25704 33.02709,-62.35436 3.44675,-29.09417 0.13608,-65.64238 -9.13615,-107.53938 -6.41049,-29.07014 -15.92352,-60.84142 -27.93089,-94.25854 34.95047,-6.32162 67.20429,-14.00423 95.58462,-22.9694 40.91333,-12.93437 74.14949,-28.33542 97.62047,-45.87392 23.4728,-17.53895 37.57635,-37.66432 37.57635,-59.70173 0,-22.03605 -14.10719,-42.229 -37.57635,-59.7693 -23.47098,-17.53849 -56.70714,-32.93955 -97.62047,-45.87257 -28.38532,-8.96471 -60.64823,-16.6505 -95.60866,-22.97029 11.99876,-33.41621 21.46552,-65.17343 27.88645,-94.23586 9.27311,-41.89746 12.59877,-78.468347 9.15337,-107.56252 C 756.3021,40.519787 745.88158,18.328189 726.79386,7.3085773 707.7057,-3.7010511 683.20431,-1.6715623 656.28115,9.9072413 629.35479,21.467 599.34089,42.606889 567.68707,71.573154 545.72765,91.664966 522.96961,115.76861 500.03196,142.8623 477.0975,115.74865 454.33402,91.643656 432.37688,71.553206 400.72441,42.583757 370.73318,21.418462 343.80956,9.861437 330.33685,4.0881399 317.46917,0.68402447 305.59239,0.10306511 Z M 305.08491,11.779824 c 10.02731,0.462591 21.35032,3.464881 33.8738,8.840898 25.04607,10.751127 54.25089,31.19714 85.27567,59.587441 21.93357,20.070497 44.81814,44.308837 67.9313,71.723177 -25.43881,30.79077 -51.00641,65.49134 -75.93092,103.28809 -45.20726,2.68937 -88.06799,7.46855 -127.46974,14.11035 -12.1702,-33.70283 -21.74489,-65.62696 -28.15765,-94.64766 -9.0672,-41.06208 -12.1185,-76.609839 -8.87899,-103.676313 3.22452,-27.066023 12.46178,-45.105668 27.19936,-53.620943 7.37059,-4.263083 16.14663,-6.122501 26.17395,-5.58962 z m 389.49549,0.02272 c 10.04453,-0.462592 18.81923,1.215434 26.193,5.634071 14.75841,8.520727 23.98889,26.531788 27.20117,53.596457 3.21999,27.069648 0.1361,62.594278 -8.96472,103.656358 -6.39372,29.02705 -15.95844,60.93893 -28.13679,94.64812 -39.40357,-6.64406 -82.2625,-11.42279 -127.47337,-14.11035 -24.91589,-37.80808 -50.47306,-72.50504 -75.90326,-103.31123 23.10046,-27.3962 45.95466,-51.6359 67.88277,-71.700489 31.02344,-28.391664 60.23325,-48.834966 85.27613,-59.588812 12.52984,-5.375111 23.87054,-8.308017 33.92189,-8.825938 z M 499.82063,161.10058 c 23.11452,28.09733 46.3728,59.37203 69.16168,93.43721 -22.60702,-1.06123 -45.57415,-1.85036 -69.16168,-1.85036 -23.58435,0 -46.57506,0.61678 -69.18753,1.85036 22.79568,-34.07561 46.06939,-65.33716 69.18753,-93.43721 z m 0,103.3339 c 26.32996,0 51.97649,0.77097 77.04839,2.24494 13.72983,21.00656 27.27782,42.7646 40.4335,65.55076 13.1643,22.7916 25.24333,45.42312 36.56998,67.81518 -11.31304,22.38571 -23.39388,45.01088 -36.54594,67.79387 -13.16431,22.80386 -26.73814,44.57277 -40.47978,65.59656 -25.06509,1.21545 -50.70117,2.24493 -77.02615,2.24493 -26.30457,0 -51.9284,-0.77099 -76.97991,-2.24493 -13.72983,-21.00837 -27.27283,-42.78499 -40.43169,-65.57524 -13.16431,-22.81792 -25.271,-45.46623 -36.61624,-67.88095 11.32981,-22.40114 23.39026,-45.0263 36.54595,-67.81836 13.14707,-22.75987 26.70185,-44.49977 40.41309,-65.48182 25.07691,-1.21545 50.73338,-2.24494 77.0688,-2.24494 z m -91.4245,2.99323 c -12.25544,19.0002 -24.35897,38.50287 -36.1364,58.90173 -11.79286,20.41743 -22.63606,40.69428 -32.98083,60.82011 -18.11583,-36.76228 -33.58899,-72.54178 -46.37597,-106.60243 35.88062,-5.97194 74.61253,-10.41462 115.4932,-13.133 z m 182.82814,0 c 40.90833,2.68938 79.63843,7.17695 115.53992,13.14889 -12.76975,34.07427 -28.23431,69.8846 -46.35421,106.66953 C 650.07426,367.11261 639.20342,346.8344 627.40692,326.402 615.61406,305.98138 603.48198,286.46056 591.22427,267.43135 Z m -310.11783,15.18021 c 13.95251,37.44435 31.24248,76.95948 51.52386,117.46284 -20.26595,40.47115 -37.55049,79.94183 -51.49845,117.36488 -35.31692,-6.30573 -67.7508,-14.00376 -96.11026,-22.94898 -40.0961,-12.67541 -72.33316,-27.75039 -94.16875,-44.0662 -21.832412,-16.31625 -32.822993,-33.34093 -32.822993,-50.37556 0,-17.03463 11.00419,-34.12912 32.822993,-50.44494 21.83559,-16.31445 54.07265,-31.36947 94.16875,-44.04261 28.35584,-8.96472 60.77973,-16.65414 96.08485,-22.94943 z m 437.40435,0 c 35.30874,6.29257 67.73582,13.98879 96.08848,22.94943 40.09744,12.6754 72.3345,27.72862 94.16873,44.04261 21.83559,16.31671 32.8212,33.40986 32.8212,50.44494 0,17.03463 -10.98742,34.0602 -32.8212,50.37556 -21.83423,16.31673 -54.07129,31.39579 -94.16873,44.0662 -28.34767,8.96471 -60.76614,16.64234 -96.06263,22.94898 -13.95252,-37.41987 -31.24293,-76.91233 -51.52207,-117.39074 20.27776,-40.497 37.54687,-80.0017 51.49622,-117.43698 z M 499.82063,328.6637 a 71.371022,71.371022 0 0 0 -71.35763,71.35807 71.371022,71.371022 0 0 0 71.35763,71.38122 71.371022,71.371022 0 0 0 71.38302,-71.38122 71.371022,71.371022 0 0 0 -71.38302,-71.35807 z m -160.58799,84.20536 c 10.35339,20.14261 21.2052,40.42717 33.00305,60.8641 11.77609,20.41609 23.905,39.93374 36.16044,58.94798 -40.88067,-2.70297 -79.61258,-7.2232 -115.4932,-13.17972 12.76975,-34.06518 28.2275,-69.86192 46.32971,-106.6269 z m 321.17734,0 c 18.10631,36.7668 33.5586,72.56173 46.33017,106.62374 -35.89968,5.98555 -74.63114,10.47675 -115.53993,13.17791 12.27314,-19.04101 24.4261,-38.57136 36.22894,-59.01464 11.79331,-20.41563 22.63967,-40.67569 32.98082,-60.79698 z M 288.78906,530.69247 c 39.38088,6.64223 82.21758,11.42279 127.39944,14.11033 24.93495,37.81398 50.50391,72.55538 75.95314,103.35703 -23.10091,27.40073 -45.96008,51.64043 -67.8814,71.70004 -31.02662,28.38896 -60.23143,48.83676 -85.28111,59.58745 -25.04469,10.73524 -45.29116,11.75884 -60.04279,3.23813 -14.75841,-8.52072 -24.05375,-26.57897 -27.26784,-53.64362 -3.21997,-27.06648 -0.0906,-62.59292 8.98195,-103.65319 6.39372,-29.03475 15.97522,-60.96478 28.15538,-94.69526 z m 422.06677,0 c 12.16974,33.72323 21.71722,65.65461 28.13316,94.6939 9.0849,41.06209 12.1702,76.58671 8.98196,103.65319 -3.22453,27.06602 -12.44412,45.08298 -27.19937,53.5978 -14.75796,8.52073 -34.99627,7.51301 -60.04413,-3.23812 -25.04469,-10.75066 -54.31981,-31.15269 -85.34642,-59.54164 -21.93357,-20.07185 -44.78731,-44.30837 -67.88322,-71.72452 25.45104,-30.80121 50.99777,-65.52627 75.92909,-103.3339 45.20046,-2.68938 88.05121,-7.4681 127.44753,-14.11035 z M 569.0322,545.47492 c -22.80114,34.0847 -46.08344,65.37209 -69.21157,93.48256 -23.10409,-28.10458 -46.37643,-59.37973 -69.16169,-93.45671 22.60024,1.06124 45.58595,1.84582 69.16169,1.84582 23.60115,0 46.5873,-0.77098 69.21157,-1.87756 z"
     id="path4710"
     inkscape:connector-curvature="0" />
</svg>
