<?xml version="1.0" encoding="UTF-8" standalone="no"?>
<svg
   xmlns:dc="http://purl.org/dc/elements/1.1/"
   xmlns:cc="http://creativecommons.org/ns#"
   xmlns:rdf="http://www.w3.org/1999/02/22-rdf-syntax-ns#"
   xmlns:svg="http://www.w3.org/2000/svg"
   xmlns="http://www.w3.org/2000/svg"
   xmlns:sodipodi="http://sodipodi.sourceforge.net/DTD/sodipodi-0.dtd"
   xmlns:inkscape="http://www.inkscape.org/namespaces/inkscape"
   width="1000"
   height="1000"
   viewBox="0 0 1000 1000"
   version="1.1"
   id="svg22"
   sodipodi:docname="i (10-я копия).svg"
   inkscape:version="0.92.4 (unknown)">
  <metadata
     id="metadata26">
    <rdf:RDF>
      <cc:Work
         rdf:about="">
        <dc:format>image/svg+xml</dc:format>
        <dc:type
           rdf:resource="http://purl.org/dc/dcmitype/StillImage" />
        <dc:title />
      </cc:Work>
    </rdf:RDF>
  </metadata>
  <sodipodi:namedview
     pagecolor="#ffffff"
     bordercolor="#666666"
     borderopacity="1"
     objecttolerance="10"
     gridtolerance="10"
     guidetolerance="10"
     inkscape:pageopacity="0"
     inkscape:pageshadow="2"
     inkscape:window-width="1268"
     inkscape:window-height="732"
     id="namedview24"
     showgrid="false"
     inkscape:zoom="0.21728802"
     inkscape:cx="-632.71963"
     inkscape:cy="188.08647"
     inkscape:window-x="0"
     inkscape:window-y="0"
     inkscape:window-maximized="1"
     inkscape:current-layer="svg22"
     showguides="true"
     inkscape:guide-bbox="true">
    <sodipodi:guide
       position="0,200"
       orientation="0,1"
       id="guide841"
       inkscape:locked="false"
       inkscape:label=""
       inkscape:color="rgb(0,0,255)" />
  </sodipodi:namedview>
  <defs
     id="defs12">
    <linearGradient
       id="a"
       x1="0.5"
       x2="0.5"
       y1="0"
       y2="1">
      <stop
         offset="0%"
         stop-color="#9FC7FF"
         id="stop2" />
      <stop
         offset="100%"
         stop-color="#9BC1F5"
         id="stop4" />
    </linearGradient>
    <radialGradient
       id="b"
       cx="0.55584997"
       cy="0.10083"
       r="0.58214998"
       fx="0.55584997"
       fy="0.10083"
       gradientTransform="matrix(0,-1,0.719,0,0.483,0.657)">
      <stop
         offset="0%"
         stop-color="#486DA8"
         stop-opacity=".4"
         id="stop7" />
      <stop
         offset="100%"
         stop-color="#486DA8"
         stop-opacity="0"
         id="stop9" />
    </radialGradient>
  </defs>
  <path
     inkscape:connector-curvature="0"
     id="path4634"
     d="m 583.69673,102.87885 c -142.46546,0 -265.5799,71.92997 -320.90837,177.04991 h 5.537 c 136.93442,0 251.71287,95.45196 251.71287,218.55289 0,70.54297 -38.72298,132.78594 -96.81446,172.89792 48.41198,20.74798 102.37795,33.19398 160.47096,33.19398 30.42899,0 59.46146,-4.155 88.50891,-9.6945 L 1000,800 860.32751,591.1406 c 47.03104,-52.56397 76.05004,-117.58893 76.05004,-188.1299 0,-165.98141 -159.03899,-300.13985 -352.68281,-300.13985 z m -315.36938,201.9379 c -125.86743,0 -226.860377,87.16146 -226.860377,193.6649 0,45.64498 17.990498,87.12346 48.425475,120.31894 L -2.5e-6,754.34902 211.59489,686.57706 c 17.99049,4.155 37.36797,5.53699 56.73246,5.53699 125.86944,0 226.82639,-87.12745 226.82639,-193.6324 0,-106.50344 -100.95694,-193.6649 -226.82639,-193.6649 z"
     style="display:inline;fill-opacity:1;fill-rule:nonzero;stroke:none;stroke-width:17.2897377" />
</svg>
