<?xml version="1.0" encoding="UTF-8" standalone="no"?>
<svg
   xmlns:dc="http://purl.org/dc/elements/1.1/"
   xmlns:cc="http://creativecommons.org/ns#"
   xmlns:rdf="http://www.w3.org/1999/02/22-rdf-syntax-ns#"
   xmlns:svg="http://www.w3.org/2000/svg"
   xmlns="http://www.w3.org/2000/svg"
   xmlns:sodipodi="http://sodipodi.sourceforge.net/DTD/sodipodi-0.dtd"
   xmlns:inkscape="http://www.inkscape.org/namespaces/inkscape"
   width="1000"
   height="1000"
   viewBox="0 0 1000 1000"
   version="1.1"
   id="svg22"
   sodipodi:docname="i (63-я копия).svg"
   inkscape:version="0.92.3 (2405546, 2018-03-11)">
  <metadata
     id="metadata26">
    <rdf:RDF>
      <cc:Work
         rdf:about="">
        <dc:format>image/svg+xml</dc:format>
        <dc:type
           rdf:resource="http://purl.org/dc/dcmitype/StillImage" />
        <dc:title />
      </cc:Work>
    </rdf:RDF>
  </metadata>
  <sodipodi:namedview
     pagecolor="#ffffff"
     bordercolor="#666666"
     borderopacity="1"
     objecttolerance="10"
     gridtolerance="10"
     guidetolerance="10"
     inkscape:pageopacity="0"
     inkscape:pageshadow="2"
     inkscape:window-width="1280"
     inkscape:window-height="743"
     id="namedview24"
     showgrid="false"
     inkscape:zoom="0.43457604"
     inkscape:cx="275.24761"
     inkscape:cy="446.53196"
     inkscape:window-x="0"
     inkscape:window-y="0"
     inkscape:window-maximized="1"
     inkscape:current-layer="svg22"
     showguides="true"
     inkscape:guide-bbox="true">
    <sodipodi:guide
       position="0,200"
       orientation="0,1"
       id="guide841"
       inkscape:locked="false"
       inkscape:label=""
       inkscape:color="rgb(0,0,255)" />
  </sodipodi:namedview>
  <defs
     id="defs12">
    <linearGradient
       id="a"
       x1="0.5"
       x2="0.5"
       y1="0"
       y2="1">
      <stop
         offset="0%"
         stop-color="#9FC7FF"
         id="stop2" />
      <stop
         offset="100%"
         stop-color="#9BC1F5"
         id="stop4" />
    </linearGradient>
    <radialGradient
       id="b"
       cx="0.55584997"
       cy="0.10083"
       r="0.58214998"
       fx="0.55584997"
       fy="0.10083"
       gradientTransform="matrix(0,-1,0.719,0,0.483,0.657)">
      <stop
         offset="0%"
         stop-color="#486DA8"
         stop-opacity=".4"
         id="stop7" />
      <stop
         offset="100%"
         stop-color="#486DA8"
         stop-opacity="0"
         id="stop9" />
    </radialGradient>
  </defs>
  <path
     style="color:#000000;font-style:normal;font-variant:normal;font-weight:normal;font-stretch:normal;font-size:medium;line-height:normal;font-family:sans-serif;font-variant-ligatures:normal;font-variant-position:normal;font-variant-caps:normal;font-variant-numeric:normal;font-variant-alternates:normal;font-feature-settings:normal;text-indent:0;text-align:start;text-decoration:none;text-decoration-line:none;text-decoration-style:solid;text-decoration-color:#000000;letter-spacing:normal;word-spacing:normal;text-transform:none;writing-mode:lr-tb;direction:ltr;text-orientation:mixed;dominant-baseline:auto;baseline-shift:baseline;text-anchor:start;white-space:normal;shape-padding:0;clip-rule:nonzero;display:inline;overflow:visible;visibility:visible;opacity:1;isolation:auto;mix-blend-mode:normal;color-interpolation:sRGB;color-interpolation-filters:linearRGB;solid-color:#000000;solid-opacity:1;vector-effect:none;fill:#000000;fill-opacity:1;fill-rule:nonzero;stroke:none;stroke-width:65.11629486;stroke-linecap:butt;stroke-linejoin:bevel;stroke-miterlimit:4;stroke-dasharray:none;stroke-dashoffset:0;stroke-opacity:1;paint-order:stroke fill markers;color-rendering:auto;image-rendering:auto;shape-rendering:auto;text-rendering:auto;enable-background:accumulate"
     d="M 500.01061,0 C 279.47219,0 100.01259,179.4716 100.01259,400 c 0,220.5292 179.4596,400 399.99802,400 220.5324,0 399.9768,-179.4708 399.9768,-400 0,-220.5284 -179.4444,-400 -399.9768,-400 z m 0,65.098 c 185.3404,0 334.8948,149.5656 334.8948,334.902 0,185.3376 -149.5544,334.9032 -334.8948,334.9032 -185.34042,0 -334.83882,-149.5656 -334.83882,-334.9032 0,-185.3364 149.4984,-334.902 334.83882,-334.902 z m -117.92882,97.7292 c -19.4948,0 -38.9956,7.3368 -53.7072,22.0388 l -43.4676,43.46 c -29.412,29.4268 -29.412,78.056 0,107.484 l 72.298,72.2204 c 29.4244,29.4256 77.9792,29.4264 107.41722,0 l 2.36,-2.44 27.3488,27.326 -2.42,2.472 c -29.432,29.4256 -29.4304,77.9692 0,107.3948 l 72.2492,72.3096 c 29.4244,29.4288 78.0352,29.4288 107.4612,0 l 43.4764,-43.4768 c 29.4168,-29.4264 29.4168,-77.9668 0,-107.3936 l -72.316,-72.3108 c -29.4272,-29.4268 -77.9608,-29.4284 -107.4004,0 l -2.42,2.472 -27.32,-27.326 2.388,-2.472 c 29.4228,-29.426 29.4228,-77.9852 0,-107.4128 L 435.74499,184.88 c -14.71,-14.7112 -34.2124,-22.038 -53.7208,-22.038 z m 0,53.9972 h 0.012 c 5.3672,0.003 10.7644,2.244 15.162,6.5884 l 72.28722,72.2928 c 8.7232,8.7324 8.7232,21.6116 0,30.342 l -2.432,2.452 -15.23,-15.2248 c -25.69002,-27.0572 -65.61242,12.8472 -38.54962,38.536 l 15.2348,15.2244 -2.388,2.472 c -8.708,8.7428 -21.5796,8.7308 -30.3224,0 l -72.2904,-72.3104 c -8.738,-8.7276 -8.7684,-21.5756 0,-30.3044 l 43.4464,-43.4788 c 4.4448,-4.3648 9.8116,-6.584 15.1636,-6.59 z M 589.10341,423.874 h 0.018 c 5.3368,-0.005 10.8548,2.22 15.1528,6.5872 l 72.3008,72.2936 c 8.7384,8.7276 8.7384,21.5792 0,30.3228 l -43.4616,43.4592 c -8.7232,8.7308 -21.5824,8.7428 -30.3208,0 l -72.2948,-72.2936 c -8.7384,-8.7292 -8.7384,-21.5928 0,-30.3232 l 2.404,-2.496 15.2484,15.2436 c 25.6932,27.0548 65.5852,-12.8476 38.5192,-38.536 l -15.2316,-15.244 2.448,-2.44 c 4.3996,-4.3692 9.8268,-6.5764 15.168,-6.59 z"
     id="path2011"
     inkscape:connector-curvature="0" />
</svg>
