<?xml version="1.0" encoding="UTF-8" standalone="no"?>
<svg
   xmlns:dc="http://purl.org/dc/elements/1.1/"
   xmlns:cc="http://creativecommons.org/ns#"
   xmlns:rdf="http://www.w3.org/1999/02/22-rdf-syntax-ns#"
   xmlns:svg="http://www.w3.org/2000/svg"
   xmlns="http://www.w3.org/2000/svg"
   xmlns:sodipodi="http://sodipodi.sourceforge.net/DTD/sodipodi-0.dtd"
   xmlns:inkscape="http://www.inkscape.org/namespaces/inkscape"
   width="1000"
   height="1000"
   viewBox="0 0 1000 1000"
   version="1.1"
   id="svg22"
   sodipodi:docname="i (71-я копия).svg"
   inkscape:version="0.92.3 (2405546, 2018-03-11)">
  <metadata
     id="metadata26">
    <rdf:RDF>
      <cc:Work
         rdf:about="">
        <dc:format>image/svg+xml</dc:format>
        <dc:type
           rdf:resource="http://purl.org/dc/dcmitype/StillImage" />
        <dc:title />
      </cc:Work>
    </rdf:RDF>
  </metadata>
  <sodipodi:namedview
     pagecolor="#ffffff"
     bordercolor="#666666"
     borderopacity="1"
     objecttolerance="10"
     gridtolerance="10"
     guidetolerance="10"
     inkscape:pageopacity="0"
     inkscape:pageshadow="2"
     inkscape:window-width="1280"
     inkscape:window-height="743"
     id="namedview24"
     showgrid="false"
     inkscape:zoom="0.21728802"
     inkscape:cx="-396.5315"
     inkscape:cy="459.02427"
     inkscape:window-x="0"
     inkscape:window-y="0"
     inkscape:window-maximized="1"
     inkscape:current-layer="svg22"
     showguides="true"
     inkscape:guide-bbox="true">
    <sodipodi:guide
       position="0,200"
       orientation="0,1"
       id="guide841"
       inkscape:locked="false"
       inkscape:label=""
       inkscape:color="rgb(0,0,255)" />
  </sodipodi:namedview>
  <defs
     id="defs12">
    <linearGradient
       id="a"
       x1="0.5"
       x2="0.5"
       y1="0"
       y2="1">
      <stop
         offset="0%"
         stop-color="#9FC7FF"
         id="stop2" />
      <stop
         offset="100%"
         stop-color="#9BC1F5"
         id="stop4" />
    </linearGradient>
    <radialGradient
       id="b"
       cx="0.55584997"
       cy="0.10083"
       r="0.58214998"
       fx="0.55584997"
       fy="0.10083"
       gradientTransform="matrix(0,-1,0.719,0,0.483,0.657)">
      <stop
         offset="0%"
         stop-color="#486DA8"
         stop-opacity=".4"
         id="stop7" />
      <stop
         offset="100%"
         stop-color="#486DA8"
         stop-opacity="0"
         id="stop9" />
    </radialGradient>
  </defs>
  <path
     style="color:#000000;font-style:normal;font-variant:normal;font-weight:normal;font-stretch:normal;font-size:medium;line-height:normal;font-family:sans-serif;font-variant-ligatures:normal;font-variant-position:normal;font-variant-caps:normal;font-variant-numeric:normal;font-variant-alternates:normal;font-feature-settings:normal;text-indent:0;text-align:start;text-decoration:none;text-decoration-line:none;text-decoration-style:solid;text-decoration-color:#000000;letter-spacing:normal;word-spacing:normal;text-transform:none;writing-mode:lr-tb;direction:ltr;text-orientation:mixed;dominant-baseline:auto;baseline-shift:baseline;text-anchor:start;white-space:normal;shape-padding:0;clip-rule:nonzero;display:inline;overflow:visible;visibility:visible;opacity:1;isolation:auto;mix-blend-mode:normal;color-interpolation:sRGB;color-interpolation-filters:linearRGB;solid-color:#000000;solid-opacity:1;vector-effect:none;fill:#000000;fill-opacity:1;fill-rule:nonzero;stroke:none;stroke-width:65.11651611;stroke-linecap:butt;stroke-linejoin:bevel;stroke-miterlimit:4;stroke-dasharray:none;stroke-dashoffset:0;stroke-opacity:1;paint-order:stroke fill markers;color-rendering:auto;image-rendering:auto;shape-rendering:auto;text-rendering:auto;enable-background:accumulate"
     d="M 499.99178,0 C 279.46222,0 100.00741,179.4728 100.00741,400.0008 100.00741,620.5288 279.46222,800 499.99178,800 720.51939,800 899.99258,620.5288 899.99258,400.0008 899.99258,179.4728 720.51939,0 499.99178,0 Z M 339.52501,166.062 c 1.964,-0.08 3.808,-0.04 5.5788,0.12 h 0.0164 c 7.0452,0.528 12.5028,2.86 16.3896,6.3404 l 0.0348,0.04 c 2.556,2.236 4.4296,4.9556 5.6692,7.94 11.58037,27.7916 24.90277,54.4644 39.79077,79.906 8.5116,14.654 9.8872,31.3368 -8.8288,46.784 -1.36,1.18 -2.692,2.208 -3.78,3.452 -32.46597,-45.6424 -57.14797,-90.962 -72.78317,-132.74 -0.908,-2.408 -1.888,-4.8528 -2.508,-7.2308 7.7404,-2.912 14.5288,-4.3448 20.4216,-4.614 z m -28.18,7.7584 0.036,0.0184 -0.0196,0.018 c 0.908,2.288 1.664,4.5884 2.436,6.9228 16.14481,43.1376 41.61721,89.624 75.05398,136.3376 -8.98,13.824 1.828,22.456 1.828,22.456 25.91839,69.6808 97.6676,135.2404 171.31239,171.3116 0,0 8.85921,9.4576 22.0028,2.108 46.304,33.4028 92.4064,58.912 135.2288,75.1812 3.14401,1.3 6.30401,2.184 9.41841,3.272 l -0.035,0.08 c -2.328,4.522 -5.14,9.3808 -8.5416,14.5708 -29.4412,45.0012 -83.5444,33.264 -117.91519,15.6068 C 462.44198,549.9344 351.05322,439.6312 280.38202,298.938 c -17.3448,-34.4924 -35.01481,-84.8876 10.3256,-113.7544 7.46839,-4.75 14.28679,-8.4432 20.6592,-11.3008 -0.006,-0.0124 -0.0136,-0.0236 -0.0184,-0.0352 z m 307.46917,314.9712 c 7.8308,-0.724 15.5412,1.988 22.8916,6.3404 25.4588,15.1016 52.1228,28.6744 79.798,40.734 2.98,1.316 5.8508,3.012 8.3148,5.2324 8.3152,7.3924 12.23081,20.4332 2.44801,42.8956 -3.32401,-1.208 -6.682,-2.352 -10.0532,-3.6 -41.35121,-15.7036 -86.1932,-40.3248 -131.30401,-72.6196 1.36,-1.332 2.812,-2.896 4.3844,-4.6684 7.7556,-9.3716 15.6924,-13.6592 23.51,-14.2804 z"
     id="path1754"
     inkscape:connector-curvature="0" />
</svg>
