<?xml version="1.0" encoding="UTF-8" standalone="no"?>
<svg
   xmlns:dc="http://purl.org/dc/elements/1.1/"
   xmlns:cc="http://creativecommons.org/ns#"
   xmlns:rdf="http://www.w3.org/1999/02/22-rdf-syntax-ns#"
   xmlns:svg="http://www.w3.org/2000/svg"
   xmlns="http://www.w3.org/2000/svg"
   xmlns:sodipodi="http://sodipodi.sourceforge.net/DTD/sodipodi-0.dtd"
   xmlns:inkscape="http://www.inkscape.org/namespaces/inkscape"
   width="1000"
   height="1000"
   viewBox="0 0 1000 1000"
   version="1.1"
   id="svg22"
   sodipodi:docname="i (104-я копия).svg"
   inkscape:version="0.92.3 (2405546, 2018-03-11)">
  <metadata
     id="metadata26">
    <rdf:RDF>
      <cc:Work
         rdf:about="">
        <dc:format>image/svg+xml</dc:format>
        <dc:type
           rdf:resource="http://purl.org/dc/dcmitype/StillImage" />
        <dc:title />
      </cc:Work>
    </rdf:RDF>
  </metadata>
  <sodipodi:namedview
     pagecolor="#ffffff"
     bordercolor="#666666"
     borderopacity="1"
     objecttolerance="10"
     gridtolerance="10"
     guidetolerance="10"
     inkscape:pageopacity="0"
     inkscape:pageshadow="2"
     inkscape:window-width="1280"
     inkscape:window-height="743"
     id="namedview24"
     showgrid="false"
     inkscape:zoom="0.43457604"
     inkscape:cx="183.20388"
     inkscape:cy="446.53196"
     inkscape:window-x="0"
     inkscape:window-y="0"
     inkscape:window-maximized="1"
     inkscape:current-layer="svg22"
     showguides="true"
     inkscape:guide-bbox="true">
    <sodipodi:guide
       position="0,200"
       orientation="0,1"
       id="guide841"
       inkscape:locked="false"
       inkscape:label=""
       inkscape:color="rgb(0,0,255)" />
  </sodipodi:namedview>
  <defs
     id="defs12">
    <linearGradient
       id="a"
       x1="0.5"
       x2="0.5"
       y1="0"
       y2="1">
      <stop
         offset="0%"
         stop-color="#9FC7FF"
         id="stop2" />
      <stop
         offset="100%"
         stop-color="#9BC1F5"
         id="stop4" />
    </linearGradient>
    <radialGradient
       id="b"
       cx="0.55584997"
       cy="0.10083"
       r="0.58214998"
       fx="0.55584997"
       fy="0.10083"
       gradientTransform="matrix(0,-1,0.719,0,0.483,0.657)">
      <stop
         offset="0%"
         stop-color="#486DA8"
         stop-opacity=".4"
         id="stop7" />
      <stop
         offset="100%"
         stop-color="#486DA8"
         stop-opacity="0"
         id="stop9" />
    </radialGradient>
  </defs>
  <path
     inkscape:connector-curvature="0"
     style="display:inline;fill-rule:nonzero;stroke-width:43.97473145"
     d="m 322.93972,0.04422 c -20.48846,1.04655 -40.38203,20.41593 -29.85367,45.811679 l 51.72834,124.793851 c 16.84206,40.63265 77.80804,15.35073 60.96274,-25.28146 L 354.04833,20.66395 C 347.73278,5.42659 335.23251,-0.58325 322.93972,0.04422 Z m 354.03081,0.0918 c -12.2928,-0.62884 -24.7917,5.29287 -31.1091,20.53023 l -51.7283,124.79385 c -16.8421,40.6331 44.117,65.82459 60.9627,25.19194 L 706.82423,45.945406 C 717.35163,20.54966 697.45803,1.17981 676.97053,0.13373 Z m -176.7912,239.18833 c -121.41505,0 -219.91349,98.40939 -219.91349,219.82354 h 439.73709 c 0,-121.41415 -98.4104,-219.82354 -219.8236,-219.82354 z M 72.455574,249.36524 c -31.49556,0.61507 -46.4006,49.18449 -10.84783,63.92107 l 124.793846,51.63883 c 40.62989,16.84253 65.82551,-44.12068 25.19195,-60.96274 L 86.889194,252.32127 c -5.07896,-2.10686 -9.93439,-3.04784 -14.43362,-2.96062 z m 855.088556,0 c -4.4983,-0.0918 -9.2651,0.76195 -14.3441,2.86882 l -124.7938,51.72834 c -40.6318,16.84252 -15.3521,77.71484 25.2814,60.87324 l 124.7044,-51.63884 c 35.5527,-14.73703 20.6486,-63.21787 -10.8479,-63.83156 z M 500.17933,514.104 c -8.4426,0 -16.8668,3.24062 -23.3095,9.6824 l -65.983,65.89299 c -12.89,12.88492 -12.89,33.82366 0,46.70813 12.89,12.88492 33.7337,12.88492 46.6186,0 l 9.6824,-9.6824 v 140.3034 c 0,18.20579 14.7912,32.99148 32.9915,32.99148 18.2053,0 32.9915,-14.78615 32.9915,-32.99148 v -140.3034 l 9.5924,9.6824 h 0.092 c 12.8946,12.82984 33.7521,12.86656 46.6186,0 12.89,-12.88447 12.89,-33.82321 0,-46.70813 l -65.9829,-65.89299 c -6.445,-6.44269 -14.8669,-9.6824 -23.3091,-9.6824 z"
     id="path4318" />
</svg>
