<?xml version="1.0" encoding="UTF-8" standalone="no"?>
<svg
   xmlns:dc="http://purl.org/dc/elements/1.1/"
   xmlns:cc="http://creativecommons.org/ns#"
   xmlns:rdf="http://www.w3.org/1999/02/22-rdf-syntax-ns#"
   xmlns:svg="http://www.w3.org/2000/svg"
   xmlns="http://www.w3.org/2000/svg"
   xmlns:sodipodi="http://sodipodi.sourceforge.net/DTD/sodipodi-0.dtd"
   xmlns:inkscape="http://www.inkscape.org/namespaces/inkscape"
   width="1000"
   height="1000"
   viewBox="0 0 1000 1000"
   version="1.1"
   id="svg22"
   sodipodi:docname="i (106-я копия).svg"
   inkscape:version="0.92.3 (2405546, 2018-03-11)">
  <metadata
     id="metadata26">
    <rdf:RDF>
      <cc:Work
         rdf:about="">
        <dc:format>image/svg+xml</dc:format>
        <dc:type
           rdf:resource="http://purl.org/dc/dcmitype/StillImage" />
        <dc:title />
      </cc:Work>
    </rdf:RDF>
  </metadata>
  <sodipodi:namedview
     pagecolor="#ffffff"
     bordercolor="#666666"
     borderopacity="1"
     objecttolerance="10"
     gridtolerance="10"
     guidetolerance="10"
     inkscape:pageopacity="0"
     inkscape:pageshadow="2"
     inkscape:window-width="1280"
     inkscape:window-height="743"
     id="namedview24"
     showgrid="false"
     inkscape:zoom="0.43457604"
     inkscape:cx="230.79155"
     inkscape:cy="446.53196"
     inkscape:window-x="0"
     inkscape:window-y="0"
     inkscape:window-maximized="1"
     inkscape:current-layer="svg22"
     showguides="true"
     inkscape:guide-bbox="true">
    <sodipodi:guide
       position="0,200"
       orientation="0,1"
       id="guide841"
       inkscape:locked="false"
       inkscape:label=""
       inkscape:color="rgb(0,0,255)" />
  </sodipodi:namedview>
  <defs
     id="defs12">
    <linearGradient
       id="a"
       x1="0.5"
       x2="0.5"
       y1="0"
       y2="1">
      <stop
         offset="0%"
         stop-color="#9FC7FF"
         id="stop2" />
      <stop
         offset="100%"
         stop-color="#9BC1F5"
         id="stop4" />
    </linearGradient>
    <radialGradient
       id="b"
       cx="0.55584997"
       cy="0.10083"
       r="0.58214998"
       fx="0.55584997"
       fy="0.10083"
       gradientTransform="matrix(0,-1,0.719,0,0.483,0.657)">
      <stop
         offset="0%"
         stop-color="#486DA8"
         stop-opacity=".4"
         id="stop7" />
      <stop
         offset="100%"
         stop-color="#486DA8"
         stop-opacity="0"
         id="stop9" />
    </radialGradient>
  </defs>
  <path
     inkscape:connector-curvature="0"
     style="display:inline;fill-rule:nonzero;stroke-width:35.47171021"
     d="m 542.20634,0.7448 c -111.37156,0 -203.87731,80.961136 -221.63298,187.27902 -26.62219,-12.13159 -56.18681,-18.84568 -87.35762,-18.84568 -116.31414,0 -210.640147,94.22699 -210.640147,210.54213 0,116.31468 94.326007,210.73815 210.640147,210.73815 h 589.71314 c 85.31221,0 154.49553,-69.18332 154.49553,-154.49552 0,-85.31324 -69.18332,-154.49556 -154.49553,-154.49556 -24.3768,0 -47.43237,5.5512 -67.92292,15.60625 7.63578,-22.51986 11.77831,-46.64537 11.77831,-71.75087 C 766.78427,101.25771 666.27235,0.7448 542.20634,0.7448 Z M 143.20768,672.31913 c -14.9861,0 -27.09058,12.21401 -27.09058,27.18906 v 34.15746 L 86.474081,716.48891 C 55.126392,698.42923 28.041355,745.40274 59.383504,763.50469 l 29.54454,17.07922 -29.54454,17.17722 c -31.342149,18.10092 -4.25662,65.01918 27.090577,46.91775 L 116.1171,827.69815 v 34.15796 c 0,14.97655 12.11553,27.09058 27.09058,27.09058 14.96752,0 27.09057,-12.11603 27.09057,-27.09058 v -34.15796 l 29.64302,16.98073 c 31.3477,18.0577 58.43072,-28.81582 27.09058,-46.91775 l -29.54454,-17.17722 29.54454,-17.07922 c 31.34014,-18.10094 4.25663,-65.11769 -27.09058,-47.01578 l -29.64302,17.17674 v -34.15746 c 0,-14.97705 -12.11754,-27.18906 -27.09057,-27.18906 z m 698.2724,0 c -14.967,0 -27.09058,12.21401 -27.09058,27.18906 v 34.15746 l -29.64253,-17.17674 c -31.34616,-18.05968 -58.43321,28.91383 -27.09106,47.01578 l 29.54454,17.07922 -29.54454,17.17722 c -31.34215,18.10092 -4.25662,65.01918 27.09106,46.91775 l 29.64253,-16.98073 v 34.15796 c 0,14.97655 12.11402,27.09058 27.09058,27.09058 14.9866,0 27.09057,-12.11603 27.09057,-27.09058 v -34.15796 l 29.64302,16.98073 c 31.34568,18.0577 58.43073,-28.81582 27.09059,-46.91775 l -29.54455,-17.17722 29.54455,-17.07922 c 31.34014,-18.10094 4.25661,-65.11769 -27.09059,-47.01578 l -29.64302,17.17674 v -34.15746 c 0,-14.97705 -12.11754,-27.18906 -27.09057,-27.18906 z M 500.00002,784.11735 c -14.96751,0 -27.09058,12.21352 -27.09058,27.18907 v 34.15745 l -29.64302,-17.17672 c -31.34768,-18.05972 -58.43274,28.91383 -27.09057,47.01574 l 29.54452,17.07924 -29.54452,17.17672 c -31.34217,18.10141 -4.25662,65.01967 27.09057,46.91827 l 29.64302,-16.98075 v 34.15796 c 0,14.97655 12.11553,27.09047 27.09058,27.09047 14.96748,0 27.18905,-12.11592 27.18905,-27.09047 v -34.15796 l 29.54454,16.98075 c 31.34568,18.05768 58.43072,-28.81634 27.09055,-46.91827 l -29.54452,-17.17672 29.54452,-17.07924 c 31.34017,-18.10141 4.25663,-65.11767 -27.09055,-47.01574 l -29.54454,17.17672 v -34.15745 c 0,-14.97707 -12.21602,-27.18907 -27.18905,-27.18907 z"
     id="path4475" />
</svg>
