<?xml version="1.0" encoding="UTF-8" standalone="no"?>
<svg
   xmlns:dc="http://purl.org/dc/elements/1.1/"
   xmlns:cc="http://creativecommons.org/ns#"
   xmlns:rdf="http://www.w3.org/1999/02/22-rdf-syntax-ns#"
   xmlns:svg="http://www.w3.org/2000/svg"
   xmlns="http://www.w3.org/2000/svg"
   xmlns:sodipodi="http://sodipodi.sourceforge.net/DTD/sodipodi-0.dtd"
   xmlns:inkscape="http://www.inkscape.org/namespaces/inkscape"
   width="1000"
   height="1000"
   viewBox="0 0 1000 1000"
   version="1.1"
   id="svg22"
   sodipodi:docname="i (12-я копия).svg"
   inkscape:version="0.92.4 (unknown)">
  <metadata
     id="metadata26">
    <rdf:RDF>
      <cc:Work
         rdf:about="">
        <dc:format>image/svg+xml</dc:format>
        <dc:type
           rdf:resource="http://purl.org/dc/dcmitype/StillImage" />
        <dc:title />
      </cc:Work>
    </rdf:RDF>
  </metadata>
  <sodipodi:namedview
     pagecolor="#ffffff"
     bordercolor="#666666"
     borderopacity="1"
     objecttolerance="10"
     gridtolerance="10"
     guidetolerance="10"
     inkscape:pageopacity="0"
     inkscape:pageshadow="2"
     inkscape:window-width="1268"
     inkscape:window-height="732"
     id="namedview24"
     showgrid="false"
     inkscape:zoom="0.43457604"
     inkscape:cx="-79.120752"
     inkscape:cy="446.53196"
     inkscape:window-x="0"
     inkscape:window-y="0"
     inkscape:window-maximized="1"
     inkscape:current-layer="svg22"
     showguides="true"
     inkscape:guide-bbox="true">
    <sodipodi:guide
       position="0,200"
       orientation="0,1"
       id="guide841"
       inkscape:locked="false"
       inkscape:label=""
       inkscape:color="rgb(0,0,255)" />
  </sodipodi:namedview>
  <defs
     id="defs12">
    <linearGradient
       id="a"
       x1="0.5"
       x2="0.5"
       y1="0"
       y2="1">
      <stop
         offset="0%"
         stop-color="#9FC7FF"
         id="stop2" />
      <stop
         offset="100%"
         stop-color="#9BC1F5"
         id="stop4" />
    </linearGradient>
    <radialGradient
       id="b"
       cx="0.55584997"
       cy="0.10083"
       r="0.58214998"
       fx="0.55584997"
       fy="0.10083"
       gradientTransform="matrix(0,-1,0.719,0,0.483,0.657)">
      <stop
         offset="0%"
         stop-color="#486DA8"
         stop-opacity=".4"
         id="stop7" />
      <stop
         offset="100%"
         stop-color="#486DA8"
         stop-opacity="0"
         id="stop9" />
    </radialGradient>
  </defs>
  <path
     style="color:#000000;font-style:normal;font-variant:normal;font-weight:normal;font-stretch:normal;font-size:medium;line-height:normal;font-family:sans-serif;font-variant-ligatures:normal;font-variant-position:normal;font-variant-caps:normal;font-variant-numeric:normal;font-variant-alternates:normal;font-feature-settings:normal;text-indent:0;text-align:start;text-decoration:none;text-decoration-line:none;text-decoration-style:solid;text-decoration-color:#000000;letter-spacing:normal;word-spacing:normal;text-transform:none;writing-mode:lr-tb;direction:ltr;text-orientation:mixed;dominant-baseline:auto;baseline-shift:baseline;text-anchor:start;white-space:normal;shape-padding:0;clip-rule:nonzero;display:inline;overflow:visible;visibility:visible;opacity:1;isolation:auto;mix-blend-mode:normal;color-interpolation:sRGB;color-interpolation-filters:linearRGB;solid-color:#000000;solid-opacity:1;vector-effect:none;fill-opacity:1;fill-rule:nonzero;stroke:none;stroke-width:39.68675613;stroke-linecap:round;stroke-linejoin:miter;stroke-miterlimit:4;stroke-dasharray:none;stroke-dashoffset:0;stroke-opacity:1;color-rendering:auto;image-rendering:auto;shape-rendering:auto;text-rendering:auto;enable-background:accumulate"
     d="M 500.02562,0.15773181 C 491.98279,-0.16226782 481.30188,0.0777319 480.1302,0.23773171 384.50827,4.1377272 296.98058,32.142895 232.33409,80.626438 162.99345,132.63118 118.46159,206.32749 118.46311,288.393 c -0.005,82.0683 44.53034,155.68301 113.87098,207.68455 69.32856,52.00354 163.70173,83.37951 267.61141,83.37951 h 0.4536 0.6048 c 0.6048,-0.0196 1.0584,-0.08 1.5572,-0.08 L 694.06951,800 V 534.89671 C 806.56322,483.33157 881.36757,392.04288 881.53689,288.1498 v -0.08 C 881.52933,206.00429 837.08215,132.46078 767.74603,80.465238 698.40839,28.467699 603.8931,4.0173273 500.0515,0.23653171 Z m -0.08,36.71755719 h 1.7992 c 95.12605,0.452 180.86531,29.325966 242.05727,75.210711 61.58053,46.18875 98.01665,108.13828 98.01817,175.9038 -0.152,89.27389 -65.2648,173.85499 -175.25648,219.16694 l -12.21542,5.11 V 693.90852 L 519.69304,538.6295 l -9.85703,0.756 c -3.2956,0.16 -6.56123,0.452 -9.85699,0.604 h -0.152 C 404.01905,539.9667 317.70835,510.69954 256.15354,464.53199 194.57149,418.34324 158.13086,356.39972 158.13386,288.6314 158.13234,220.86587 194.57149,158.75795 256.15354,112.5692 317.73707,66.380455 404.12185,37.113289 499.9887,37.113289 Z M 302.12829,141.44557 a 19.866687,19.866687 0 0 0 2.026,39.62915 h 391.75206 a 19.845366,19.845366 0 1 0 0,-39.62915 H 304.15429 a 19.845366,19.845366 0 0 0 -2.026,0 z m -65.66996,108.12747 a 19.855377,19.855377 0 1 0 0,39.71075 h 527.05446 a 19.855377,19.855377 0 1 0 0,-39.71075 z m 67.6096,130.53105 a 19.854864,19.854864 0 1 0 0,39.70915 h 391.83374 a 19.854864,19.854864 0 1 0 0,-39.70915 z"
     id="path4667"
     inkscape:connector-curvature="0" />
</svg>
