<?xml version="1.0" encoding="UTF-8" standalone="no"?>
<svg
   xmlns:dc="http://purl.org/dc/elements/1.1/"
   xmlns:cc="http://creativecommons.org/ns#"
   xmlns:rdf="http://www.w3.org/1999/02/22-rdf-syntax-ns#"
   xmlns:svg="http://www.w3.org/2000/svg"
   xmlns="http://www.w3.org/2000/svg"
   xmlns:sodipodi="http://sodipodi.sourceforge.net/DTD/sodipodi-0.dtd"
   xmlns:inkscape="http://www.inkscape.org/namespaces/inkscape"
   width="1000"
   height="1000"
   viewBox="0 0 1000 1000"
   version="1.1"
   id="svg22"
   sodipodi:docname="i (83-я копия).svg"
   inkscape:version="0.92.3 (2405546, 2018-03-11)">
  <metadata
     id="metadata26">
    <rdf:RDF>
      <cc:Work
         rdf:about="">
        <dc:format>image/svg+xml</dc:format>
        <dc:type
           rdf:resource="http://purl.org/dc/dcmitype/StillImage" />
        <dc:title />
      </cc:Work>
    </rdf:RDF>
  </metadata>
  <sodipodi:namedview
     pagecolor="#ffffff"
     bordercolor="#666666"
     borderopacity="1"
     objecttolerance="10"
     gridtolerance="10"
     guidetolerance="10"
     inkscape:pageopacity="0"
     inkscape:pageshadow="2"
     inkscape:window-width="1280"
     inkscape:window-height="743"
     id="namedview24"
     showgrid="false"
     inkscape:zoom="0.43457604"
     inkscape:cx="275.24761"
     inkscape:cy="446.53196"
     inkscape:window-x="0"
     inkscape:window-y="0"
     inkscape:window-maximized="1"
     inkscape:current-layer="svg22"
     showguides="true"
     inkscape:guide-bbox="true">
    <sodipodi:guide
       position="0,200"
       orientation="0,1"
       id="guide841"
       inkscape:locked="false"
       inkscape:label=""
       inkscape:color="rgb(0,0,255)" />
  </sodipodi:namedview>
  <defs
     id="defs12">
    <linearGradient
       id="a"
       x1="0.5"
       x2="0.5"
       y1="0"
       y2="1">
      <stop
         offset="0%"
         stop-color="#9FC7FF"
         id="stop2" />
      <stop
         offset="100%"
         stop-color="#9BC1F5"
         id="stop4" />
    </linearGradient>
    <radialGradient
       id="b"
       cx="0.55584997"
       cy="0.10083"
       r="0.58214998"
       fx="0.55584997"
       fy="0.10083"
       gradientTransform="matrix(0,-1,0.719,0,0.483,0.657)">
      <stop
         offset="0%"
         stop-color="#486DA8"
         stop-opacity=".4"
         id="stop7" />
      <stop
         offset="100%"
         stop-color="#486DA8"
         stop-opacity="0"
         id="stop9" />
    </radialGradient>
  </defs>
  <path
     style="display:inline;fill-opacity:1;stroke-width:8.91819572"
     d="m 499.99138,0.02632 c -64.523,0 -116.7902,52.251589 -116.7902,116.7034 -45.48209,-45.572095 -119.46736,-45.572095 -164.96786,0 -45.65289,45.66131 -45.65289,119.56976 0,165.19506 -64.51381,0 -116.843,52.26 -116.843,116.70261 0,0.57598 0.0801,1.13197 0.12003,1.70797 v 355.07372 c 0,29.72675 14.86097,44.59092 44.59012,44.59092 h 707.91751 c 29.7275,0 44.5917,-14.86378 44.5917,-44.59092 v -356.7281 -0.0799 c 0,-64.45061 -52.2972,-116.70261 -116.65102,-116.70261 45.49091,-45.6521 45.49091,-119.55176 0,-165.19505 -45.45648,-45.571703 -119.44815,-45.571703 -165.10985,0 0,-64.451403 -52.2476,-116.7034 -116.825,-116.7034 z m 0.0801,53.561578 c 34.94947,0 63.29703,28.261966 63.29703,63.141822 -0.0168,17.58653 -7.27189,33.29589 -18.60252,44.76491 v 129.20962 l 91.46459,-91.4294 c 0,-16.15974 6.16791,-32.2731 18.42853,-44.64251 24.79361,-24.71282 64.8738,-24.71282 89.39062,0 24.71161,24.66762 24.71161,64.7038 0,89.42502 -12.27581,12.26221 -28.48196,18.48131 -44.71252,18.48131 l -91.27139,91.3938 h 129.20802 c 11.50462,-11.41582 27.24398,-18.51612 44.6961,-18.51612 34.78186,0 63.12464,28.34197 63.12464,63.19424 v 0.0801 H 155.02989 v -0.0801 c 0,-34.85227 28.33117,-63.19424 63.28183,-63.19424 17.30093,0 33.22628,7.1007 44.73091,18.51612 h 129.20801 l -91.46299,-91.377 c -16.02655,0 -32.3887,-6.22709 -44.69451,-18.48011 -24.74802,-24.72122 -24.74802,-64.73181 0,-89.40862 24.72961,-24.71243 64.7118,-24.71243 89.42502,0 12.26061,12.36021 18.56772,28.48397 18.56772,44.62572 l 91.27299,91.42858 V 161.51143 c -11.32342,-11.47423 -18.56811,-27.21277 -18.56811,-44.78171 0,-34.852263 28.31276,-63.141822 63.28062,-63.141822 z M 707.50666,427.69893 v 0.018 c 55.51595,0 99.60567,44.48933 100.99205,99.59768 H 751.9411 c -1.35998,-23.84124 -20.18688,-43.12774 -44.43452,-43.12774 -24.82802,0 -45.21889,20.29569 -45.21889,45.3573 v 147.15014 c 0,25.07081 20.39087,45.42769 45.21889,45.42769 25.12322,0 45.35691,-20.33089 45.35691,-45.3053 v -0.12003 -45.30449 h -43.11014 v -56.48755 h 99.73686 v 101.79204 c 0,56.32913 -45.59689,101.89764 -101.84442,101.89764 -56.22954,0 -101.77523,-45.56851 -101.77523,-101.89764 V 529.09336 c 0.31999,-56.02994 45.72409,-101.39165 101.63602,-101.39165 z m -416.31599,0.018 c 55.40114,0 99.53767,44.52332 100.92085,99.59768 h -56.48793 c -1.35999,-23.84964 -20.30489,-43.12774 -44.43292,-43.12774 -24.96402,0 -45.3749,20.29369 -45.3749,45.3573 0,12.5462 5.14033,23.79843 13.24339,32.06711 h 0.0801 c 7.71028,7.62708 18.42851,11.67701 29.81994,12.31501 v 0.99598 h 2.25196 c 28.21877,0 53.65038,11.43662 71.95649,29.82114 18.48172,18.42012 29.88954,43.89973 29.88954,71.9545 0,56.34873 -45.57129,101.89762 -101.84603,101.89762 -55.36474,0 -99.48647,-44.49851 -100.86804,-99.66806 h 56.41672 c 1.35999,23.88803 20.3609,43.12813 44.45132,43.12813 24.99441,0 45.35811,-20.25568 45.35811,-45.35769 0,-12.44382 -5.12512,-23.69244 -13.37939,-31.92751 -8.11828,-8.27388 -19.56411,-13.3778 -31.98032,-13.3778 -28.17516,0 -53.54758,-11.43382 -72.02449,-29.82074 -18.35011,-18.38492 -29.76714,-43.86853 -29.76714,-72.02489 0,-56.26594 45.5457,-101.82724 101.79163,-101.82724 z m 106.79116,0 h 56.47153 l 42.77893,206.33803 h 4.38394 l 42.74615,-206.33802 h 56.36553 L 528.12702,778.60995 H 470.6987 Z"
     id="black-star"
     inkscape:connector-curvature="0" />
</svg>
