<?xml version="1.0" encoding="UTF-8" standalone="no"?>
<svg
   xmlns:dc="http://purl.org/dc/elements/1.1/"
   xmlns:cc="http://creativecommons.org/ns#"
   xmlns:rdf="http://www.w3.org/1999/02/22-rdf-syntax-ns#"
   xmlns:svg="http://www.w3.org/2000/svg"
   xmlns="http://www.w3.org/2000/svg"
   xmlns:sodipodi="http://sodipodi.sourceforge.net/DTD/sodipodi-0.dtd"
   xmlns:inkscape="http://www.inkscape.org/namespaces/inkscape"
   width="1000"
   height="1000"
   viewBox="0 0 1000 1000"
   version="1.1"
   id="svg22"
   sodipodi:docname="i (84-я копия).svg"
   inkscape:version="0.92.3 (2405546, 2018-03-11)">
  <metadata
     id="metadata26">
    <rdf:RDF>
      <cc:Work
         rdf:about="">
        <dc:format>image/svg+xml</dc:format>
        <dc:type
           rdf:resource="http://purl.org/dc/dcmitype/StillImage" />
        <dc:title />
      </cc:Work>
    </rdf:RDF>
  </metadata>
  <sodipodi:namedview
     pagecolor="#ffffff"
     bordercolor="#666666"
     borderopacity="1"
     objecttolerance="10"
     gridtolerance="10"
     guidetolerance="10"
     inkscape:pageopacity="0"
     inkscape:pageshadow="2"
     inkscape:window-width="1280"
     inkscape:window-height="743"
     id="namedview24"
     showgrid="false"
     inkscape:zoom="0.43457604"
     inkscape:cx="91.160152"
     inkscape:cy="446.53196"
     inkscape:window-x="0"
     inkscape:window-y="0"
     inkscape:window-maximized="1"
     inkscape:current-layer="svg22"
     showguides="true"
     inkscape:guide-bbox="true">
    <sodipodi:guide
       position="0,200"
       orientation="0,1"
       id="guide841"
       inkscape:locked="false"
       inkscape:label=""
       inkscape:color="rgb(0,0,255)" />
  </sodipodi:namedview>
  <defs
     id="defs12">
    <linearGradient
       id="a"
       x1="0.5"
       x2="0.5"
       y1="0"
       y2="1">
      <stop
         offset="0%"
         stop-color="#9FC7FF"
         id="stop2" />
      <stop
         offset="100%"
         stop-color="#9BC1F5"
         id="stop4" />
    </linearGradient>
    <radialGradient
       id="b"
       cx="0.55584997"
       cy="0.10083"
       r="0.58214998"
       fx="0.55584997"
       fy="0.10083"
       gradientTransform="matrix(0,-1,0.719,0,0.483,0.657)">
      <stop
         offset="0%"
         stop-color="#486DA8"
         stop-opacity=".4"
         id="stop7" />
      <stop
         offset="100%"
         stop-color="#486DA8"
         stop-opacity="0"
         id="stop9" />
    </radialGradient>
  </defs>
  <path
     style="display:inline;fill-opacity:1;stroke:none;stroke-width:0.09705505"
     d="M 493.74431,0.37416283 C 482.58263,0.38732218 457.05385,1.8531804 446.60865,3.1901729 399.34171,9.2987324 359.16038,21.237158 318.00937,41.624126 264.0452,68.313579 218.4297,105.00207 181.1618,151.68427 c -8.73699,11.06864 -24.26277,32.61091 -24.26277,33.87295 0,0.39182 6.40436,0.55343 14.36364,0.55343 h 14.27109 l 5.83037,-8.05187 c 12.90175,-17.76926 38.04752,-45.32313 53.67324,-58.71707 l 5.14571,-4.36849 18.15865,4.46155 c 29.40848,7.18207 67.84047,14.27105 94.33743,17.26975 5.62715,0.55341 10.47657,1.47902 10.86541,1.66514 0.55341,0.39178 -0.55341,4.84841 -2.13035,9.90257 -4.18241,13.29013 -9.69886,33.87296 -9.69886,36.00727 0,1.47902 1.11172,1.66512 12.03148,1.66512 h 11.93895 l 2.62989,-9.81052 c 3.29595,-12.32727 10.2919,-34.16387 11.06914,-34.93913 0.39177,-0.39179 7.47786,-0.098 15.71483,0.55341 32.22403,2.72296 80.45916,3.77591 114.71903,2.6299 17.86186,-0.73951 38.53188,-1.6651 45.81042,-2.23811 7.38532,-0.55341 13.78969,-0.73951 14.17851,-0.19579 0.73955,0.92559 5.53458,15.32645 8.64397,26.01212 0.9256,3.68287 2.62988,9.31046 3.38902,12.32779 l 1.66509,5.62712 h 12.03149 c 9.12537,0 12.12403,-0.39179 12.12403,-1.29781 0,-1.47902 -5.83084,-22.51931 -9.60674,-35.03955 -1.66514,-5.23826 -3.01681,-9.90258 -3.01681,-10.29144 0,-0.39178 6.01597,-1.29289 13.40127,-2.33116 32.60896,-3.9816 65.31784,-9.90257 95.01722,-17.1772 l 16.60325,-4.16281 6.79318,6.01601 c 15.82601,14.06733 39.89043,40.8606 52.21626,57.94133 l 4.46156,6.31178 h 13.97525 c 9.60628,0 13.9748,-0.39178 13.9748,-1.11172 0,-0.55341 -2.51729,-4.66233 -5.53458,-9.03277 C 770.82007,96.731912 694.1461,41.120756 604.66002,15.497484 575.54392,7.1493565 542.93301,1.8185064 515.56427,0.83754338 507.605,0.64175078 499.46058,0.28415536 497.60984,0.09803466 496.68425,0.04895165 495.38642,2.0815262e-7 493.79475,2.0815262e-7 Z m 0.92561,22.69512117 c 8.82906,0.09803 17.76931,2.997222 26.61893,8.736515 12.80873,8.440673 25.33091,22.613811 37.94714,42.994884 6.21923,9.903085 20.76993,39.113227 20.76993,41.539877 0,1.85123 -3.88853,2.13041 -45.13066,3.88857 -34.35635,1.47902 -97.44388,0.098 -121.51222,-2.51728 -4.18239,-0.55339 -4.942,-0.92561 -4.46158,-2.2381 0.39182,-0.92563 4.16282,-9.12538 8.64444,-18.158171 19.60388,-40.085341 40.9566,-64.348119 63.37601,-72.016505 4.53499,-1.479017 9.12534,-2.277294 13.75291,-2.238107 z m -60.48699,4.923869 v 0.0013 c 1.47901,0 1.11171,0.391782 -1.85122,3.516331 -14.93764,15.733451 -33.38816,45.90839 -45.22912,73.569966 l -4.07466,9.69886 -3.68285,-0.39182 c -17.08464,-1.2929 -66.09554,-9.40302 -89.58257,-14.752455 -7.18205,-1.47906 -13.40127,-2.904174 -13.79013,-2.904174 -2.72296,0 0.7395,-3.016805 11.64311,-10.088209 44.44945,-29.1161 86.96148,-46.681677 138.98132,-57.648955 2.42423,-0.553389 5.44202,-0.925591 6.79322,-1.111711 0.39179,-0.01316 0.55341,-0.02224 0.73951,-0.02224 z m 121.82664,0.147091 c 1.85121,0.04908 5.60853,0.92559 12.45756,2.31156 45.51952,9.606772 91.3275,29.021607 132.67346,56.294344 7.57043,4.941989 13.78966,9.421164 13.78966,9.902568 0,2.424228 -72.30693,15.141354 -102.88002,18.158164 l -6.3118,0.55339 -3.38902,-8.44021 C 597.88788,95.554643 587.50436,75.182346 580.60733,64.021157 574.98072,54.988341 563.91156,39.758353 557.21826,31.993512 c -2.40462,-2.737636 -3.48208,-3.922826 -1.11172,-3.868966 z M 409.16886,220.31534 c -6.40483,-0.0191 -11.71706,0.098 -15.03014,0.3918 -65.70473,5.44199 -108.11831,27.46519 -126.65603,65.80119 -8.25558,17.08464 -11.64262,36.68848 -9.69933,57.65288 3.49675,39.59805 20.67202,64.73452 55.51518,81.23443 21.83806,10.29142 41.7343,14.84504 92.0092,21.35271 41.83033,5.33085 54.93187,8.34813 64.2497,14.95621 6.40436,4.46158 8.53276,8.53328 8.53276,16.1037 -0.098,19.40945 -20.76993,27.56315 -66.77428,26.39903 -26.68945,-0.55339 -52.02035,-5.14619 -64.34618,-11.36542 l -3.77594,-1.94428 V 480.2173 469.537 h -41.7343 -41.73431 v 51.82986 51.92191 l 45.42355,0.39182 c 38.72435,0.39179 48.04023,0.73951 64.15321,2.42419 46.97455,5.33086 93.8526,4.16283 126.94839,-3.29596 29.98979,-6.70063 51.72994,-17.26975 68.61621,-33.38811 15.62276,-14.84507 24.16679,-31.15395 28.34087,-53.86572 2.42423,-13.29013 1.47901,-38.33599 -1.94428,-51.34303 -4.56928,-17.47545 -14.45619,-33.96945 -26.49697,-43.96655 -8.16253,-6.88578 -21.25479,-14.56737 -31.64074,-18.63617 -21.54571,-8.44019 -38.72437,-12.03147 -83.17432,-17.65809 -51.43901,-6.40486 -62.98909,-9.42168 -72.40337,-18.92657 -9.03279,-8.92161 -7.47787,-23.39105 3.38901,-30.47466 10.5877,-7.08949 21.64412,-9.21791 46.19731,-9.21791 24.94402,0.098 47.36292,3.68284 64.05722,10.29143 l 5.83088,2.33116 0.3918,11.45749 0.39177,11.36546 h 41.63784 41.73431 V 278.4648 226.05365 l -46.78206,-0.39179 c -40.66621,-0.39182 -49.20679,-0.7395 -64.34764,-2.51728 -12.6608,-1.47902 -41.49043,-2.72297 -60.67947,-2.77682 z m 380.26578,0.007 c -5.21966,0.003 -9.4956,0.098 -11.92031,0.39181 -28.9217,2.9972 -52.31272,9.12535 -73.95636,19.31295 -51.8279,24.55565 -84.04995,70.17116 -92.0073,130.34524 -1.66509,12.71614 -1.94425,43.38327 -0.55338,55.5166 3.68284,30.37869 12.90124,56.38886 27.85355,79.09866 12.32779,18.63566 35.13357,39.11518 56.58328,50.76172 31.73674,17.26978 76.09018,25.91372 119.66839,23.3891 83.17622,-4.94246 142.28365,-45.90644 165.09189,-114.42666 6.70063,-20.18863 9.51419,-39.4056 9.51419,-65.02889 0.098,-53.47733 -15.62275,-95.21166 -48.13913,-127.72413 C 914.88,245.36528 880.4257,229.06032 837.13842,222.55752 c -8.01461,-1.29781 -32.11824,-2.20383 -47.7684,-2.20383 z m -779.143681,6.57087 0.195793,42.89842 0.391795,42.99686 27.952005,0.39183 27.853575,0.19579 v 87.34837 87.3503 H 38.537686 10.391757 l 0.195792,42.89842 0.391783,42.99493 111.903538,0.39179 111.80897,0.19579 V 531.36499 488.1737 h -28.14788 -28.14449 v -87.35033 -87.34786 h 28.14449 28.14788 v -43.19129 l -0.001,-43.18935 H 122.59063 Z m 786.120051,75.1852 c 8.1258,-0.0491 17.7879,0.7395 23.32247,1.97857 14.36364,3.49675 27.27274,12.41983 35.23202,24.55517 11.45749,17.26975 16.21438,38.14156 16.21438,71.0429 -0.098,40.08534 -6.88576,63.28194 -23.77795,80.07226 -12.12356,12.23474 -23.29261,16.69577 -43.77214,17.65813 -39.30762,1.8512 -63.08555,-18.04698 -72.3069,-60.56049 -2.90418,-13.58641 -3.68288,-48.43151 -1.47902,-64.64051 5.83036,-41.53989 24.65114,-64.54208 56.97164,-69.49189 2.51728,-0.3918 5.8862,-0.5534 9.56956,-0.5534 z M 171.21074,615.1142 c -11.36494,0 -14.36359,0.39181 -13.79012,1.11172 12.2352,20.8679 40.18132,54.44849 62.50476,75.21894 64.92895,60.36798 139.75901,95.30713 228.56388,106.76122 17.08461,2.13037 69.29747,2.42423 87.3503,0.5534 109.38039,-12.12403 208.27931,-67.25767 275.24802,-153.53988 7.47788,-9.60627 20.28513,-28.04994 20.28513,-29.31005 0,-0.39179 -6.31181,-0.73951 -13.9753,-0.73951 h -13.88219 l -8.44071,11.06864 c -4.55461,6.10856 -13.105,16.49255 -18.92457,23.19661 -10.08772,11.34684 -31.05747,32.22209 -35.71639,35.32801 -1.9443,1.29783 -3.58982,1.11171 -17.47348,-2.51726 -26.78742,-6.79321 -62.11589,-13.49337 -90.55228,-17.08464 -6.70063,-0.73951 -13.49384,-1.66512 -15.2339,-2.03731 l -3.10983,-0.55343 2.42423,-6.99644 c 2.62989,-7.57091 11.06911,-37.85114 11.06911,-39.50062 0,-0.73951 -4.07463,-0.92559 -12.23521,-0.73951 l -12.23521,0.39179 -3.20293,11.64313 c -1.66511,6.40437 -4.66233,16.21436 -6.49691,21.83808 l -3.29596,10.19889 h -6.31177 c -3.40373,0 -16.01114,-0.73953 -28.04998,-1.47906 -38.33599,-2.51725 -120.0572,-1.66511 -151.40558,1.47906 l -5.442,0.55338 -4.06975,-12.90175 c -2.13037,-7.18401 -5.14473,-17.27173 -6.60709,-22.51782 l -2.62993,-9.42116 h -11.93893 c -10.86539,0 -12.03149,0.19579 -12.03149,1.66509 0,2.13038 5.71971,22.90574 9.69937,35.42598 1.66511,5.33082 2.90417,9.69932 2.72294,9.79187 -0.19579,0.098 -8.1444,1.11172 -17.76977,2.33117 -31.05796,3.77593 -61.14574,9.31051 -91.52392,16.78834 l -15.826,3.88857 -5.53457,-4.7554 c -15.2339,-13.19805 -42.21916,-43.18934 -54.54496,-60.66087 l -3.20291,-4.5546 z m 301.42474,65.38443 c 27.96131,0.0366 74.56708,0.73951 86.50452,1.66512 18.82814,1.29783 20.86592,1.47902 20.86592,3.10986 0,2.90418 -18.04694,37.36777 -25.3309,48.33508 -10.97608,16.60321 -27.0778,32.80483 -38.23949,38.5299 -9.90258,5.05365 -16.30742,6.49743 -25.13648,5.83088 -9.03281,-0.7395 -14.54877,-2.72298 -23.68147,-8.64444 -13.97524,-9.12533 -27.56513,-25.04048 -41.34595,-48.72194 -6.40437,-11.06915 -18.63566,-36.19974 -17.86186,-36.97746 0.39178,-0.39179 18.25072,-1.29779 44.45141,-2.81601 3.20289,-0.1958 10.45842,-0.1958 19.77086,-0.1958 z m -94.9002,5.81226 v 0 c 0.55343,0 1.11172,0.0159 1.66514,0.0348 l 3.68285,0.098 4.66236,10.68027 c 12.03148,27.66159 26.88582,52.12029 42.608,70.07518 2.90419,3.38901 4.7554,6.10804 4.18241,6.10804 -0.55343,0 -7.18209,-1.2978 -14.65995,-2.90413 -36.10572,-7.57046 -72.20896,-21.25482 -105.4012,-39.79251 -12.8087,-7.08902 -38.33746,-23.48704 -40.08342,-25.62132 -0.7395,-0.9256 2.723,-2.03731 15.71535,-4.84845 20.47755,-4.36848 38.72434,-7.47785 62.01742,-10.68026 9.81003,-1.29784 19.1205,-2.62993 20.67154,-2.81602 1.2978,-0.19579 3.18331,-0.39181 4.94246,-0.39181 z m 229.38765,10e-4 c 0.55341,-0.0388 1.11171,0.0334 1.99815,0.14709 1.85122,0.39178 10.38398,1.2978 18.92655,2.42423 24.74959,3.20289 55.90354,8.82954 81.91566,14.84505 l 5.14572,1.11171 -8.53327,5.92343 c -28.92364,19.89624 -68.90861,39.696 -100.64582,49.78957 -17.65812,5.62712 -50.66525,13.5864 -51.7314,12.5129 -0.19579,-0.3918 2.03731,-3.20291 5.05313,-6.70064 7.18207,-8.25559 15.43715,-19.7018 22.22692,-30.96146 6.31182,-10.384 18.3433,-34.26186 21.93406,-43.38379 1.66515,-4.51542 2.18427,-5.64525 3.72207,-5.75641 z"
     id="path833"
     inkscape:connector-curvature="0" />
</svg>
