<?xml version="1.0" encoding="UTF-8" standalone="no"?>
<svg
   xmlns:dc="http://purl.org/dc/elements/1.1/"
   xmlns:cc="http://creativecommons.org/ns#"
   xmlns:rdf="http://www.w3.org/1999/02/22-rdf-syntax-ns#"
   xmlns:svg="http://www.w3.org/2000/svg"
   xmlns="http://www.w3.org/2000/svg"
   xmlns:sodipodi="http://sodipodi.sourceforge.net/DTD/sodipodi-0.dtd"
   xmlns:inkscape="http://www.inkscape.org/namespaces/inkscape"
   width="1000"
   height="1000"
   viewBox="0 0 1000 1000"
   version="1.1"
   id="svg22"
   sodipodi:docname="i (18-я копия).svg"
   inkscape:version="0.92.4 (unknown)">
  <metadata
     id="metadata26">
    <rdf:RDF>
      <cc:Work
         rdf:about="">
        <dc:format>image/svg+xml</dc:format>
        <dc:type
           rdf:resource="http://purl.org/dc/dcmitype/StillImage" />
        <dc:title />
      </cc:Work>
    </rdf:RDF>
  </metadata>
  <sodipodi:namedview
     pagecolor="#ffffff"
     bordercolor="#666666"
     borderopacity="1"
     objecttolerance="10"
     gridtolerance="10"
     guidetolerance="10"
     inkscape:pageopacity="0"
     inkscape:pageshadow="2"
     inkscape:window-width="1268"
     inkscape:window-height="732"
     id="namedview24"
     showgrid="false"
     inkscape:zoom="0.43457604"
     inkscape:cx="-79.120752"
     inkscape:cy="446.53196"
     inkscape:window-x="0"
     inkscape:window-y="0"
     inkscape:window-maximized="1"
     inkscape:current-layer="svg22"
     showguides="true"
     inkscape:guide-bbox="true">
    <sodipodi:guide
       position="0,200"
       orientation="0,1"
       id="guide841"
       inkscape:locked="false"
       inkscape:label=""
       inkscape:color="rgb(0,0,255)" />
  </sodipodi:namedview>
  <defs
     id="defs12">
    <linearGradient
       id="a"
       x1="0.5"
       x2="0.5"
       y1="0"
       y2="1">
      <stop
         offset="0%"
         stop-color="#9FC7FF"
         id="stop2" />
      <stop
         offset="100%"
         stop-color="#9BC1F5"
         id="stop4" />
    </linearGradient>
    <radialGradient
       id="b"
       cx="0.55584997"
       cy="0.10083"
       r="0.58214998"
       fx="0.55584997"
       fy="0.10083"
       gradientTransform="matrix(0,-1,0.719,0,0.483,0.657)">
      <stop
         offset="0%"
         stop-color="#486DA8"
         stop-opacity=".4"
         id="stop7" />
      <stop
         offset="100%"
         stop-color="#486DA8"
         stop-opacity="0"
         id="stop9" />
    </radialGradient>
  </defs>
  <path
     inkscape:connector-curvature="0"
     id="path5528"
     d="M 466.57301,0.17036993 C 307.33472,2.6957412 165.56445,45.409373 87.366241,91.922521 47.852051,115.45049 5.6568614,164.26367 29.574851,227.3383 c 2.66858,7.21712 5.3768,13.56827 8.0831,19.16513 0.004,0.0253 0.0377,0.0477 0.0396,0.0955 2.72587,-2.52537 5.32285,-5.41308 8.24588,-7.83056 38.92032,-34.23669 89.552359,-63.26605 149.000269,-83.20694 2.54447,-18.88204 16.63548,-20.1686 16.63548,-20.1686 43.71089,-23.89603 161.59084,-43.48127 290.00051,-41.374088 125.60407,2.076629 246.13973,24.349068 281.83244,48.957838 0,0 15.13791,-0.0955 16.96057,20.91714 60.3063,19.74803 113.05121,46.94757 154.95951,78.25025 2.1817,1.80452 4.454,3.49924 6.6581,5.1782 0,0.0477 0,0.0955 0,0.14322 3.6281,-7.75847 7.1451,-16.79778 10.501,-27.29358 20.542,-64.05566 -27.7031,-101.68226 -66.3728,-123.290662 C 826.81608,52.520992 666.81494,3.3378258 498.65859,0.21619874 487.905,0.07298357 477.19293,-0.16570933 466.57444,0.17275594 Z M 194.82295,166.67066 c -57.40899,19.63775 -106.240809,47.8589 -143.666919,80.7928 -2.95979,2.72587 -5.88186,5.59306 -8.84118,8.29935 14.32635,25.9531 27.64161,30.98522 38.66778,27.58241 3.30352,-0.90226 6.35115,-2.81658 9.16581,-4.92567 26.095349,-20.11227 53.674419,-37.20651 82.333809,-51.12469 8.24541,-4.02436 15.42625,-9.5988 19.87214,-17.95258 0,0 0,-0.0434 0,-0.0434 4.54949,-8.24541 6.17069,-19.53129 3.40854,-34.5828 -0.53944,-2.9216 -1.08366,-5.55725 -0.90226,-8.02914 z m 605.29152,8.11938 c -0.14322,2.07663 -0.53945,4.12938 -0.72086,6.47718 -5.34051,30.3035 7.19898,45.83477 24.12518,53.66533 29.57598,13.56827 58.42872,29.94022 86.37682,48.95928 2.9788,2.05754 6.3874,3.30351 9.996,3.57084 5.5753,0.38191 11.7642,-1.4417 18.1239,-6.26092 0,0 -0.04,-0.0415 -0.04,-0.0415 l 0.095,-0.0415 c 6.4237,-4.81731 13.0092,-12.68415 19.3766,-24.50041 -2.0575,-1.92864 -4.4731,-3.68064 -6.8385,-5.43122 -40.5458,-30.27248 -91.74981,-56.97745 -150.37519,-76.41708 z M 225.3642,191.75013 V 296.20791 L 84.863781,628.54254 V 800 H 926.23981 V 628.54254 L 773.8654,284.87524 v -93.12511 h -98.37683 v 29.41748 h -0.0401 v 49.20847 c 0,9.94156 -4.90753,18.76651 -13.80267,26.41663 -8.87699,7.6501 -21.75066,14.10962 -37.6648,19.33317 -31.83113,10.46478 -75.84517,16.00389 -124.62781,16.00389 -48.77882,0 -92.83629,-5.52097 -124.666,-16.00389 -15.91366,-5.23262 -28.77635,-11.67399 -37.66432,-19.33317 -8.87747,-7.65012 -13.80314,-16.4913 -13.80314,-26.41663 v -78.62595 z m 255.50031,204.20853 c 90.8265,0 164.87623,74.04638 164.87623,164.87622 0,90.82937 -74.04973,164.87575 -164.87623,164.87575 -90.82984,0 -165.04235,-74.04638 -165.04235,-164.87575 0,-90.82984 74.21251,-164.87622 165.04235,-164.87622 z m 0,42.50167 c -67.77114,0 -122.33254,54.60341 -122.33254,122.37455 0,67.76924 54.5614,122.20603 122.33254,122.20603 67.76924,0 122.20843,-54.43679 122.20843,-122.20603 0,-67.77114 -54.43919,-122.37455 -122.20843,-122.37455 z"
     style="display:inline;opacity:1;fill-opacity:1;fill-rule:nonzero;stroke:none;stroke-width:57.26150131;stroke-linecap:butt;stroke-linejoin:miter;stroke-miterlimit:4;stroke-dasharray:none;stroke-opacity:1;paint-order:stroke fill markers" />
</svg>
