<?xml version="1.0" encoding="UTF-8" standalone="no"?>
<svg
   xmlns:dc="http://purl.org/dc/elements/1.1/"
   xmlns:cc="http://creativecommons.org/ns#"
   xmlns:rdf="http://www.w3.org/1999/02/22-rdf-syntax-ns#"
   xmlns:svg="http://www.w3.org/2000/svg"
   xmlns="http://www.w3.org/2000/svg"
   xmlns:sodipodi="http://sodipodi.sourceforge.net/DTD/sodipodi-0.dtd"
   xmlns:inkscape="http://www.inkscape.org/namespaces/inkscape"
   width="1000"
   height="1000"
   viewBox="0 0 1000 1000"
   version="1.1"
   id="svg22"
   sodipodi:docname="i (24-я копия).svg"
   inkscape:version="0.92.4 (unknown)">
  <metadata
     id="metadata26">
    <rdf:RDF>
      <cc:Work
         rdf:about="">
        <dc:format>image/svg+xml</dc:format>
        <dc:type
           rdf:resource="http://purl.org/dc/dcmitype/StillImage" />
        <dc:title />
      </cc:Work>
    </rdf:RDF>
  </metadata>
  <sodipodi:namedview
     pagecolor="#ffffff"
     bordercolor="#666666"
     borderopacity="1"
     objecttolerance="10"
     gridtolerance="10"
     guidetolerance="10"
     inkscape:pageopacity="0"
     inkscape:pageshadow="2"
     inkscape:window-width="1268"
     inkscape:window-height="732"
     id="namedview24"
     showgrid="false"
     inkscape:zoom="0.43457604"
     inkscape:cx="-79.120752"
     inkscape:cy="446.53196"
     inkscape:window-x="0"
     inkscape:window-y="0"
     inkscape:window-maximized="1"
     inkscape:current-layer="svg22"
     showguides="true"
     inkscape:guide-bbox="true">
    <sodipodi:guide
       position="0,200"
       orientation="0,1"
       id="guide841"
       inkscape:locked="false"
       inkscape:label=""
       inkscape:color="rgb(0,0,255)" />
  </sodipodi:namedview>
  <defs
     id="defs12">
    <linearGradient
       id="a"
       x1="0.5"
       x2="0.5"
       y1="0"
       y2="1">
      <stop
         offset="0%"
         stop-color="#9FC7FF"
         id="stop2" />
      <stop
         offset="100%"
         stop-color="#9BC1F5"
         id="stop4" />
    </linearGradient>
    <radialGradient
       id="b"
       cx="0.55584997"
       cy="0.10083"
       r="0.58214998"
       fx="0.55584997"
       fy="0.10083"
       gradientTransform="matrix(0,-1,0.719,0,0.483,0.657)">
      <stop
         offset="0%"
         stop-color="#486DA8"
         stop-opacity=".4"
         id="stop7" />
      <stop
         offset="100%"
         stop-color="#486DA8"
         stop-opacity="0"
         id="stop9" />
    </radialGradient>
  </defs>
  <path
     style="display:inline;fill-opacity:1;stroke:none;stroke-width:719.99957275;stroke-miterlimit:4;stroke-dasharray:none;stroke-opacity:1"
     d="M 500.00382,-1.7672107e-8 A 400.00004,399.99902 0 0 0 100.00002,400.0038 400.00004,399.99902 0 0 0 500.00382,800 400.00004,399.99902 0 0 0 899.99997,400.0038 400.00004,399.99902 0 0 0 500.00382,-1.7672107e-8 Z M 502.99582,12.16999 c 73.36356,0.04 145.64913,22.87959 205.4079,72.57437 164.58196,97.40315 202.93505,516.11094 -199.08109,575.90451 l -8.46601,80.24836 c -71.07756,-9.6152 -192.8463,-117.83354 -195.4315,-195.4255 40.36078,-101.59995 147.20192,-180.10671 186.5011,-177.27191 8.9048,26.35238 3.78,62.00676 17.4012,77.35156 75.69636,-28.25119 159.19032,-101.82915 199.0811,-202.6083 C 656.50215,136.41953 568.4786,68.47437 497.43983,51.27437 l -5.382,77.30637 C 310.86151,163.83032 210.00718,270.91186 183.40838,399.003 c -18.29759,88.12036 -3.22,189.66711 64.69478,294.63945 C 174.80919,636.74248 83.262835,516.44174 125.27441,298.45385 175.02238,122.06514 341.61311,12.03679 503.00942,12.16999 Z"
     id="path5395"
     inkscape:connector-curvature="0" />
</svg>
