<?xml version="1.0" encoding="UTF-8" standalone="no"?>
<svg
   xmlns:dc="http://purl.org/dc/elements/1.1/"
   xmlns:cc="http://creativecommons.org/ns#"
   xmlns:rdf="http://www.w3.org/1999/02/22-rdf-syntax-ns#"
   xmlns:svg="http://www.w3.org/2000/svg"
   xmlns="http://www.w3.org/2000/svg"
   xmlns:sodipodi="http://sodipodi.sourceforge.net/DTD/sodipodi-0.dtd"
   xmlns:inkscape="http://www.inkscape.org/namespaces/inkscape"
   width="1000"
   height="1000"
   viewBox="0 0 1000 1000"
   version="1.1"
   id="svg22"
   sodipodi:docname="i (4-я копия).svg"
   inkscape:version="0.92.4 (unknown)">
  <metadata
     id="metadata26">
    <rdf:RDF>
      <cc:Work
         rdf:about="">
        <dc:format>image/svg+xml</dc:format>
        <dc:type
           rdf:resource="http://purl.org/dc/dcmitype/StillImage" />
        <dc:title />
      </cc:Work>
    </rdf:RDF>
  </metadata>
  <sodipodi:namedview
     pagecolor="#ffffff"
     bordercolor="#666666"
     borderopacity="1"
     objecttolerance="10"
     gridtolerance="10"
     guidetolerance="10"
     inkscape:pageopacity="0"
     inkscape:pageshadow="2"
     inkscape:window-width="1268"
     inkscape:window-height="732"
     id="namedview24"
     showgrid="false"
     inkscape:zoom="0.43457604"
     inkscape:cx="-580.75908"
     inkscape:cy="446.53196"
     inkscape:window-x="0"
     inkscape:window-y="0"
     inkscape:window-maximized="1"
     inkscape:current-layer="svg22"
     showguides="true"
     inkscape:guide-bbox="true">
    <sodipodi:guide
       position="0,200"
       orientation="0,1"
       id="guide841"
       inkscape:locked="false"
       inkscape:label=""
       inkscape:color="rgb(0,0,255)" />
  </sodipodi:namedview>
  <defs
     id="defs12">
    <linearGradient
       id="a"
       x1="0.5"
       x2="0.5"
       y1="0"
       y2="1">
      <stop
         offset="0%"
         stop-color="#9FC7FF"
         id="stop2" />
      <stop
         offset="100%"
         stop-color="#9BC1F5"
         id="stop4" />
    </linearGradient>
    <radialGradient
       id="b"
       cx="0.55584997"
       cy="0.10083"
       r="0.58214998"
       fx="0.55584997"
       fy="0.10083"
       gradientTransform="matrix(0,-1,0.719,0,0.483,0.657)">
      <stop
         offset="0%"
         stop-color="#486DA8"
         stop-opacity=".4"
         id="stop7" />
      <stop
         offset="100%"
         stop-color="#486DA8"
         stop-opacity="0"
         id="stop9" />
    </radialGradient>
  </defs>
  <path
     style="display:inline;opacity:1;fill-opacity:1;fill-rule:nonzero;stroke:none;stroke-width:87.08961487;stroke-linecap:round;stroke-linejoin:round;stroke-miterlimit:4;stroke-dasharray:none;stroke-opacity:1;paint-order:stroke fill markers"
     d="m 500.10402,0 c -0.61199,0 -1.21999,0.15999816 -1.84798,0.15999816 C 278.41537,1.219986 100.0437,180.08913 100.04218,400.1594 c 0,220.69306 179.37038,399.8422 400.07544,399.8406 220.70026,0.002 399.8402,-179.14754 399.8402,-399.8406 C 899.95782,180.08913 721.81227,1.1759865 501.9792,0.15999816 501.3672,0.15239825 500.75921,0 500.13122,0 Z m 19.69777,38.930352 c 39.84274,8.662701 77.71231,43.293102 107.79396,99.728458 9.46789,17.77699 17.6406,38.03236 25.04531,59.48011 -1.07198,0.32 -1.78798,0.75599 -2.87196,1.05999 -39.80755,9.41869 -84.00224,13.89344 -129.97131,15.27982 z m -39.62554,0.08 V 214.50513 c -46.01387,-1.35998 -90.17337,-5.92593 -129.97331,-15.35502 -1.07199,-0.32 -1.89198,-0.75599 -2.93196,-1.05999 7.40631,-21.44935 15.57462,-41.70432 25.05011,-59.48011 30.01725,-56.324956 68.04882,-90.902559 107.87156,-99.651258 z m 132.91687,16.285013 c 59.75571,19.520176 111.83311,54.793365 153.31264,99.961245 -0.764,0.452 -1.07199,0.90799 -1.84798,1.35999 -1.37599,0.75599 -1.83198,1.79998 -3.26797,2.55597 -20.91175,11.14187 -48.06144,18.65538 -74.21674,26.75249 C 679.10156,163.02453 670.24766,141.21558 659.85458,121.7178 646.30954,96.272893 630.55012,73.92235 613.09432,55.333364 Z m -226.2114,0.08 c -17.465,18.573787 -33.22002,40.89673 -46.76186,66.305635 -10.41468,19.49738 -19.23938,41.30793 -27.21849,64.20886 -26.1401,-8.1035 -53.29291,-15.60342 -74.21671,-26.75449 -1.37438,-0.75599 -1.86317,-1.79998 -3.26796,-2.55597 -0.76359,-0.452 -1.22158,-0.90799 -1.84758,-1.35999 41.47629,-45.13588 93.60129,-80.342669 153.3142,-99.882444 z M 789.90269,182.2447 c 41.94231,55.83976 68.26881,124.10938 72.19797,198.52732 H 721.19548 c -1.54399,-57.64014 -10.20069,-111.39352 -23.65253,-160.21536 28.08127,-8.88949 57.47854,-16.7702 80.72987,-29.16246 4.56555,-2.44797 6.77992,-6.25873 11.14747,-8.8439 0.16,-0.08 0.32,-0.16 0.46,-0.32 z m -579.83214,0.08 c 0.152,0.12 0.304,0.32 0.458,0.452 4.29103,2.52397 6.36785,6.28913 10.82687,8.6927 23.32898,12.44226 52.8472,20.39856 81.04127,29.31366 -13.45344,48.78704 -22.15774,102.48002 -23.65413,160.05976 H 137.8373 c 3.93996,-74.37594 30.24962,-142.62556 72.19649,-198.44732 z m 453.03999,50.64062 c 12.01827,44.78669 19.92817,94.49771 21.40496,147.8095 H 519.80179 V 251.11111 c 50.52142,-1.35998 98.55207,-7.04472 142.45676,-17.83459 0.32,-0.08 0.612,-0.32 0.91599,-0.32 z m -326.32584,0.08 c 0.31999,0.08 0.61199,0.32 0.91599,0.32 43.94869,10.77867 91.98854,16.42861 142.53596,17.83579 V 380.78762 H 315.52134 c 1.54398,-53.27539 9.36109,-102.96681 21.32736,-147.7323 z M 137.8725,420.32597 h 140.90686 c 1.57199,57.16854 10.24669,110.55152 23.57613,159.05297 -28.16367,8.90429 -57.65725,16.8142 -80.96331,29.23646 -4.53538,2.41997 -6.61216,6.21353 -10.91851,8.7683 -0.152,0.12 -0.304,0.32 -0.61079,0.45199 -41.727,-55.60216 -67.97418,-123.52417 -72.04382,-197.51732 z m 177.58524,0 h 164.71851 v 128.57812 c -50.55222,1.35998 -98.59047,7.07512 -142.53796,17.83459 -0.32,0.08 -0.612,0.32 -0.91599,0.32 -11.92627,-44.45269 -19.79098,-93.79612 -21.32536,-146.72551 z m 204.34405,0 H 684.5155 c -1.55598,52.96739 -9.45269,102.32722 -21.40496,146.80151 -0.31999,-0.08 -0.45999,-0.32 -0.76399,-0.32 -43.92589,-10.79427 -91.98254,-16.41501 -142.53436,-17.83779 z m 201.39369,0 h 140.90518 c -4.07716,74.03274 -30.32126,141.97556 -72.03918,197.59452 -0.15999,-0.11999 -0.31999,-0.31999 -0.61199,-0.45199 -4.44355,-2.61597 -6.62752,-6.45513 -11.22387,-8.9195 -23.23253,-12.38146 -52.601,-20.28057 -80.65187,-29.15966 13.36184,-48.51945 22.01734,-101.93243 23.57653,-159.12977 z m -241.01923,165.1801 v 175.64798 c -39.82314,-8.8139 -77.85431,-43.5623 -107.87356,-99.88445 -9.46789,-17.777 -17.6466,-37.98077 -25.04851,-59.40132 1.07198,-0.32 1.80398,-0.75599 2.85596,-1.05999 39.82115,-9.43349 84.00824,-13.98384 130.05251,-15.35382 z m 39.62554,0.08 c 45.97987,1.35998 90.15776,5.92633 129.97131,15.35542 1.07198,0.32 1.84798,0.60399 2.87196,0.90799 -7.42151,21.41895 -15.57262,41.62592 -25.04531,59.40132 -30.08165,56.43535 -67.95122,91.23695 -107.79396,99.96285 z m -206.97962,28.53927 c 7.98631,23.00653 16.86461,44.87028 27.29769,64.44326 13.60624,25.5477 29.49086,47.95704 47.07186,66.53563 -59.91891,-19.55497 -112.19791,-54.88257 -153.77999,-100.19245 0.76359,-0.45199 1.06878,-0.90799 1.78677,-1.35998 1.54239,-0.75599 1.96998,-1.90398 3.51236,-2.70797 20.90396,-11.12707 48.02921,-18.65859 74.13771,-26.75449 z m 374.3289,0.08 c 26.1161,8.0883 53.25338,15.54582 74.13754,26.67729 1.54399,0.75599 1.98398,1.96398 3.51196,2.79597 0.764,0.45199 1.07199,0.90799 1.75598,1.35998 -41.57872,45.31908 -93.83332,80.66307 -153.77823,100.19085 17.5734,-18.59659 33.43482,-41.02993 47.07146,-66.61083 10.42988,-19.55658 19.29898,-41.38833 27.29809,-64.37086 z"
     id="path4801"
     inkscape:connector-curvature="0" />
</svg>
