<?xml version="1.0" encoding="UTF-8" standalone="no"?>
<svg
   xmlns:dc="http://purl.org/dc/elements/1.1/"
   xmlns:cc="http://creativecommons.org/ns#"
   xmlns:rdf="http://www.w3.org/1999/02/22-rdf-syntax-ns#"
   xmlns:svg="http://www.w3.org/2000/svg"
   xmlns="http://www.w3.org/2000/svg"
   xmlns:sodipodi="http://sodipodi.sourceforge.net/DTD/sodipodi-0.dtd"
   xmlns:inkscape="http://www.inkscape.org/namespaces/inkscape"
   width="1000"
   height="1000"
   viewBox="0 0 1000 1000"
   version="1.1"
   id="svg22"
   sodipodi:docname="i (6-я копия).svg"
   inkscape:version="0.92.4 (unknown)">
  <metadata
     id="metadata26">
    <rdf:RDF>
      <cc:Work
         rdf:about="">
        <dc:format>image/svg+xml</dc:format>
        <dc:type
           rdf:resource="http://purl.org/dc/dcmitype/StillImage" />
        <dc:title />
      </cc:Work>
    </rdf:RDF>
  </metadata>
  <sodipodi:namedview
     pagecolor="#ffffff"
     bordercolor="#666666"
     borderopacity="1"
     objecttolerance="10"
     gridtolerance="10"
     guidetolerance="10"
     inkscape:pageopacity="0"
     inkscape:pageshadow="2"
     inkscape:window-width="1268"
     inkscape:window-height="732"
     id="namedview24"
     showgrid="false"
     inkscape:zoom="0.43457604"
     inkscape:cx="247.63449"
     inkscape:cy="446.53196"
     inkscape:window-x="0"
     inkscape:window-y="0"
     inkscape:window-maximized="1"
     inkscape:current-layer="svg22"
     showguides="true"
     inkscape:guide-bbox="true">
    <sodipodi:guide
       position="0,200"
       orientation="0,1"
       id="guide841"
       inkscape:locked="false"
       inkscape:label=""
       inkscape:color="rgb(0,0,255)" />
  </sodipodi:namedview>
  <defs
     id="defs12">
    <linearGradient
       id="a"
       x1="0.5"
       x2="0.5"
       y1="0"
       y2="1">
      <stop
         offset="0%"
         stop-color="#9FC7FF"
         id="stop2" />
      <stop
         offset="100%"
         stop-color="#9BC1F5"
         id="stop4" />
    </linearGradient>
    <radialGradient
       id="b"
       cx="0.55584997"
       cy="0.10083"
       r="0.58214998"
       fx="0.55584997"
       fy="0.10083"
       gradientTransform="matrix(0,-1,0.719,0,0.483,0.657)">
      <stop
         offset="0%"
         stop-color="#486DA8"
         stop-opacity=".4"
         id="stop7" />
      <stop
         offset="100%"
         stop-color="#486DA8"
         stop-opacity="0"
         id="stop9" />
    </radialGradient>
  </defs>
  <path
     inkscape:connector-curvature="0"
     id="path5572"
     d="M 499.94831,0 C 358.08878,0 242.63124,115.02594 243.16724,256.88827 c 0.32,106.55395 74.43477,166.76912 108.34035,251.55468 10.01439,25.10638 16.00439,43.93477 28.13958,76.08156 h 240.70428 c 12.12,-32.09239 18.01039,-50.91758 28.04079,-75.98196 C 682.31022,423.72699 757.03421,363.39502 756.83421,256.88827 756.67421,115.02274 641.80984,0 499.94831,0 Z m -2.228,75.88076 h 0.12 a 183.06583,183.06583 0 0 1 42.01078,5.0644 259.2485,259.2485 0 0 0 -19.39799,4.4144 259.2485,259.2485 0 0 0 -24.52198,8.16399 259.2485,259.2485 0 0 0 -23.72159,10.658 259.2485,259.2485 0 0 0 -22.40839,12.83559 259.2485,259.2485 0 0 0 -21.10519,15.07279 259.2485,259.2485 0 0 0 -19.50119,17.0864 259.2485,259.2485 0 0 0 -17.68759,18.99279 259.2485,259.2485 0 0 0 -15.58319,20.60599 259.2485,259.2485 0 0 0 -13.5748,22.10878 259.2485,259.2485 0 0 0 -11.37759,23.31639 259.2485,259.2485 0 0 0 -8.8624,24.32199 259.2485,259.2485 0 0 0 -6.42359,25.12799 259.2485,259.2485 0 0 0 -3.804,25.62198 259.2485,259.2485 0 0 0 -1.056,24.02439 183.06583,183.06583 0 0 1 -16.08039,-74.37516 183.06583,183.06583 0 0 1 183.0163,-183.01191 z m -98.59435,537.59053 c -20.49159,0 -36.98398,16.4864 -36.98398,36.98478 0,20.48839 16.49519,36.97759 36.98398,36.97759 h 201.8095 c 20.49359,0 36.98398,-16.4908 36.98398,-36.97759 0,-20.49998 -16.49519,-36.98478 -36.98398,-36.98478 z m 19.19959,80.39956 c -16.94199,0 -30.55598,13.5912 -30.55598,30.54919 0,16.93839 13.63519,30.55678 30.55598,30.55678 h 163.31192 c 16.94079,0 30.55479,-13.63679 30.55479,-30.55678 0,-16.93839 -13.6352,-30.54919 -30.55479,-30.54919 z m 43.51518,65.92997 c -11.16639,0 -20.10079,8.9804 -20.10079,20.10119 0,11.18719 8.9848,20.09799 20.10079,20.09799 h 76.37996 c 11.1664,0 20.10239,-8.9804 20.10239,-20.09799 0,-11.15719 -8.98279,-20.10119 -20.10239,-20.10119 z"
     style="display:inline;opacity:1;fill-opacity:1;fill-rule:evenodd;stroke:none;stroke-width:513.72503662;stroke-linecap:round;stroke-linejoin:round;stroke-miterlimit:4;stroke-dasharray:none;stroke-opacity:0.4976526;paint-order:stroke fill markers" />
</svg>
