<?xml version="1.0" encoding="UTF-8" standalone="no"?>
<svg
   xmlns:dc="http://purl.org/dc/elements/1.1/"
   xmlns:cc="http://creativecommons.org/ns#"
   xmlns:rdf="http://www.w3.org/1999/02/22-rdf-syntax-ns#"
   xmlns:svg="http://www.w3.org/2000/svg"
   xmlns="http://www.w3.org/2000/svg"
   xmlns:sodipodi="http://sodipodi.sourceforge.net/DTD/sodipodi-0.dtd"
   xmlns:inkscape="http://www.inkscape.org/namespaces/inkscape"
   width="1000"
   height="1000"
   viewBox="0 0 1000 1000"
   version="1.1"
   id="svg22"
   sodipodi:docname="i (13-я копия).svg"
   inkscape:version="0.92.4 (unknown)">
  <metadata
     id="metadata26">
    <rdf:RDF>
      <cc:Work
         rdf:about="">
        <dc:format>image/svg+xml</dc:format>
        <dc:type
           rdf:resource="http://purl.org/dc/dcmitype/StillImage" />
        <dc:title />
      </cc:Work>
    </rdf:RDF>
  </metadata>
  <sodipodi:namedview
     pagecolor="#ffffff"
     bordercolor="#666666"
     borderopacity="1"
     objecttolerance="10"
     gridtolerance="10"
     guidetolerance="10"
     inkscape:pageopacity="0"
     inkscape:pageshadow="2"
     inkscape:window-width="1268"
     inkscape:window-height="732"
     id="namedview24"
     showgrid="false"
     inkscape:zoom="0.43457604"
     inkscape:cx="-580.75908"
     inkscape:cy="446.53196"
     inkscape:window-x="0"
     inkscape:window-y="0"
     inkscape:window-maximized="1"
     inkscape:current-layer="svg22"
     showguides="true"
     inkscape:guide-bbox="true">
    <sodipodi:guide
       position="0,200"
       orientation="0,1"
       id="guide841"
       inkscape:locked="false"
       inkscape:label=""
       inkscape:color="rgb(0,0,255)" />
  </sodipodi:namedview>
  <defs
     id="defs12">
    <linearGradient
       id="a"
       x1="0.5"
       x2="0.5"
       y1="0"
       y2="1">
      <stop
         offset="0%"
         stop-color="#9FC7FF"
         id="stop2" />
      <stop
         offset="100%"
         stop-color="#9BC1F5"
         id="stop4" />
    </linearGradient>
    <radialGradient
       id="b"
       cx="0.55584997"
       cy="0.10083"
       r="0.58214998"
       fx="0.55584997"
       fy="0.10083"
       gradientTransform="matrix(0,-1,0.719,0,0.483,0.657)">
      <stop
         offset="0%"
         stop-color="#486DA8"
         stop-opacity=".4"
         id="stop7" />
      <stop
         offset="100%"
         stop-color="#486DA8"
         stop-opacity="0"
         id="stop9" />
    </radialGradient>
  </defs>
  <path
     style="display:inline;stroke-width:1.0507865"
     d="m 189.77522,800 c 0,0 -49.74146,-0.1 -64.07266,-3.70492 C 82.351965,785.33481 41.365825,752.82199 18.125815,710.95336 9.754485,695.89218 4.179605,679.39503 1.175165,660.92691 c -0.75497999,-4.8199 -0.94497999,-14.0977 -1.13496999,-74.96943 -0.1,-49.40696 -0.03,-71.06501 0.39999,-74.97093 C 4.050105,479.03522 21.180245,444.38145 46.978705,416.79502 c 7.21835,-7.70983 16.23266,-16.17616 23.20552,-21.74704 16.98864,-13.60572 38.849185,-24.69648 58.381275,-29.64588 12.01875,-3.03994 58.60228,-3.00494 58.60228,-3.00494 l 632.36576,-2.01995 45.10205,0.19999 6.85986,1.50997 c 13.5302,2.94994 27.2724,8.56032 42.6021,17.36664 26.178,15.04218 45.61,34.72377 63.0657,63.88966 13.1147,21.92104 20.4771,43.0101 22.2705,63.81966 0.75495,9.01431 0.75495,155.30525 0,164.21706 -2.1899,25.22048 -13.0582,45.03206 -41.4136,75.50042 -16.5727,17.80113 -29.0904,27.58992 -46.455,36.30324 -15.5337,7.78584 -31.3279,12.58574 -49.675,15.09919 -5.72588,0.75498 -51.92041,0.75498 -51.92041,0.75498 z M 854.7978,767.71968 c 21.76955,-2.05996 40.19965,-10.39329 62.33415,-28.16241 25.4035,-20.39758 39.6162,-41.06764 46.3511,-67.40259 3.9699,-15.51468 3.8949,-14.00321 3.8949,-92.24307 0,-64.86664 -0.05,-70.49253 -0.945,-76.3434 -3.0049,-19.1221 -9.5238,-35.42476 -20.7451,-51.90292 -10.3747,-15.25018 -21.131,-25.82896 -37.0272,-36.46423 -14.8722,-9.95879 -28.0209,-15.40118 -45.58403,-18.85911 l -6.04737,-1.13497 -108.47173,-0.2 c -68.66706,-0.1 -110.70018,0.01 -114.5401,0.39999 -22.96952,2.05996 -46.52853,14.5317 -68.08307,36.02925 -24.87598,24.82148 -39.51968,50.96593 -41.98213,74.95793 -0.39999,3.55492 -0.56498,27.64092 -0.56498,65.28813 -0.0205,61.48771 -0.56499,84.40073 -1.88996,92.15057 -4.8949,27.41793 -18.85911,55.10435 -40.26616,79.86733 -5.06439,5.85788 -22.39303,22.37603 -22.39303,22.37603 l -2.73994,2.30495 196.34638,0.004 c 0,0 198.32635,-0.19999 202.39127,-0.56499 z M 827.06038,604.89359 v -79.36834 l 26.77544,0.1 26.77343,0.1 0.1,79.22484 0.1,79.22485 h -26.91143 -26.91544 z m -227.01275,14.73969 c -0.19999,-34.93877 -0.39999,-84.12274 -0.39999,-109.29371 v -45.76955 h 95.2895 95.29101 v 25.81196 25.81346 h -65.08164 -65.08064 v 25.81396 25.81346 h 57.6668 57.66879 v 24.71548 24.71399 h -57.3943 -57.3933 v 32.95281 32.95531 H 630.49749 600.37912 Z M 847.93044,508.13011 c -6.33087,-1.13497 -13.75721,-4.7049 -18.38711,-9.03281 -15.83567,-14.85319 -8.56033,-37.48471 14.2672,-44.31607 5.72588,-1.69997 15.09918,-1.90996 20.87806,-0.39999 15.76016,4.04491 26.14246,17.15914 23.88396,30.16587 -2.4349,14.0027 -16.7431,24.14699 -33.72025,23.91849 -3.03994,-0.042 -6.16038,-0.19999 -6.91636,-0.39999 z M 194.76412,681.92447 c 0.39999,-1.32497 5.89587,-29.72338 12.52874,-63.20017 7.01085,-35.47176 12.17024,-60.33124 12.35924,-59.58876 0.19999,0.75499 5.61238,29.14189 12.09424,63.20218 l 11.77276,61.9282 28.82189,-0.1 28.8184,-0.1 25.39597,-108.74623 c 13.96521,-59.80924 25.40547,-109.05371 25.41697,-109.4317 0.0205,-0.56499 -6.42537,-0.75499 -30.43787,-0.75499 H 291.0776 l -0.39999,1.69997 c -0.56499,2.94993 -17.30964,116.53156 -17.30964,117.07604 -0.002,0.4 -0.1,0.4 -0.19999,0.4 -0.1,-0.1 -5.57489,-25.93296 -12.11325,-57.3493 -6.53836,-31.41484 -12.15075,-58.29078 -12.45324,-59.72475 l -0.56499,-2.60995 h -27.38192 c -15.06119,0 -27.50493,0.2 -27.65593,0.39999 -0.19999,0.2 -5.74488,26.99644 -12.41574,59.45276 -6.67086,32.45582 -12.32074,59.56025 -12.52873,60.23274 -0.2,0.75498 -4.00492,-22.49503 -9.6378,-59.31476 -5.08339,-33.2948 -9.35381,-60.65823 -9.5243,-60.81123 -0.2,-0.19999 -14.13471,-0.39999 -31.06135,-0.39999 l -30.785365,-0.19999 0.39999,1.50996 c 0.75499,3.43993 50.391455,217.43545 50.621945,218.07044 0.2,0.56499 6.34937,0.75498 28.23241,0.75498 h 27.98292 z m 240.15197,-77.02888 v -79.36284 h -26.91344 -26.91143 v 79.36284 79.36283 h 26.91143 26.91344 z m -18.00912,-97.16597 c 11.16826,-2.13496 19.59059,-8.22033 23.98049,-17.34764 1.88996,-3.87492 1.98496,-4.4199 1.98496,-9.6188 0,-5.21539 -0.1,-5.70688 -2.07995,-9.82629 -7.27535,-15.23118 -28.34591,-22.12504 -46.36453,-15.17468 -2.17496,0.94498 -5.55539,2.66494 -7.50185,4.06491 -17.42313,12.43424 -15.08018,34.75978 4.64991,44.52557 7.95583,3.94992 16.47865,5.08339 25.31697,3.38493 z"
     id="path4900"
     inkscape:connector-curvature="0"
     sodipodi:nodetypes="ccssccscccccscccccsccccscscccscscsccsscccccccccccccccsccccccccccccccccccccccssccccscscccscsccccsccscscscscccscccccccccccscscssss" />
</svg>
