<?xml version="1.0" encoding="UTF-8" standalone="no"?>
<svg
   xmlns:dc="http://purl.org/dc/elements/1.1/"
   xmlns:cc="http://creativecommons.org/ns#"
   xmlns:rdf="http://www.w3.org/1999/02/22-rdf-syntax-ns#"
   xmlns:svg="http://www.w3.org/2000/svg"
   xmlns="http://www.w3.org/2000/svg"
   xmlns:sodipodi="http://sodipodi.sourceforge.net/DTD/sodipodi-0.dtd"
   xmlns:inkscape="http://www.inkscape.org/namespaces/inkscape"
   width="1000"
   height="1000"
   viewBox="0 0 1000 1000"
   version="1.1"
   id="svg22"
   sodipodi:docname="i (9-я копия).svg"
   inkscape:version="0.92.4 (unknown)">
  <metadata
     id="metadata26">
    <rdf:RDF>
      <cc:Work
         rdf:about="">
        <dc:format>image/svg+xml</dc:format>
        <dc:type
           rdf:resource="http://purl.org/dc/dcmitype/StillImage" />
        <dc:title />
      </cc:Work>
    </rdf:RDF>
  </metadata>
  <sodipodi:namedview
     pagecolor="#ffffff"
     bordercolor="#666666"
     borderopacity="1"
     objecttolerance="10"
     gridtolerance="10"
     guidetolerance="10"
     inkscape:pageopacity="0"
     inkscape:pageshadow="2"
     inkscape:window-width="1268"
     inkscape:window-height="732"
     id="namedview24"
     showgrid="false"
     inkscape:zoom="0.61458333"
     inkscape:cx="644.64372"
     inkscape:cy="578.96506"
     inkscape:window-x="0"
     inkscape:window-y="0"
     inkscape:window-maximized="1"
     inkscape:current-layer="svg22"
     showguides="true"
     inkscape:guide-bbox="true">
    <sodipodi:guide
       position="0,200"
       orientation="0,1"
       id="guide841"
       inkscape:locked="false"
       inkscape:label=""
       inkscape:color="rgb(0,0,255)" />
  </sodipodi:namedview>
  <defs
     id="defs12">
    <linearGradient
       id="a"
       x1="0.5"
       x2="0.5"
       y1="0"
       y2="1">
      <stop
         offset="0%"
         stop-color="#9FC7FF"
         id="stop2" />
      <stop
         offset="100%"
         stop-color="#9BC1F5"
         id="stop4" />
    </linearGradient>
    <radialGradient
       id="b"
       cx="0.55584997"
       cy="0.10083"
       r="0.58214998"
       fx="0.55584997"
       fy="0.10083"
       gradientTransform="matrix(0,-1,0.719,0,0.483,0.657)">
      <stop
         offset="0%"
         stop-color="#486DA8"
         stop-opacity=".4"
         id="stop7" />
      <stop
         offset="100%"
         stop-color="#486DA8"
         stop-opacity="0"
         id="stop9" />
    </radialGradient>
  </defs>
  <path
     inkscape:connector-curvature="0"
     id="rect5392"
     d="m 387.67065,0.05082 c -63.12646,0.01001168 -114.29072,38.164748 -114.281,85.2228 0.0454,18.21898 7.92302,35.94745 22.47697,50.58385 H 295.704 c 0.16262,0.12197 0.32524,0.16262 0.4594,0.32524 6.72395,6.71871 14.74101,12.66102 23.79216,17.63496 24.05642,22.51844 18.08379,42.63823 -22.58145,60.06462 H 153.77388 c -33.40953,0 -60.325631,26.91447 -60.325631,60.32115 v 90.96045 c 8.128581,19.23473 16.965361,31.3105 26.425801,35.90168 9.63444,4.65582 19.86326,1.99616 30.58237,-7.63665 7.99035,-16.20918 19.00137,-29.28385 31.79471,-38.26984 12.79984,-8.97339 27.37266,-13.89062 42.47846,-13.90607 12.09285,0 23.63116,3.08979 34.11204,8.69734 10.47926,5.60837 19.92018,13.7215 27.8471,23.73687 7.91351,10.03368 14.3671,21.96675 18.78915,35.21828 4.44076,13.24501 6.83778,27.81945 6.83778,43.11145 -0.003,15.28875 -2.47589,29.81237 -6.89917,43.05616 -4.44075,13.24502 -10.8175,25.2029 -18.73833,35.2195 -7.91351,10.00318 -17.36947,18.13622 -27.84588,23.73727 -10.47925,5.59292 -22.02041,8.69694 -34.11164,8.69694 -19.1335,-0.0337 -37.7336,-8.02084 -52.95486,-22.69082 v 0.32524 c -0.16262,-0.32524 -0.4594,-0.4594 -0.4594,-0.76838 -7.22197,-7.03902 -13.52188,-15.45625 -18.68914,-24.95205 -11.1712,-11.40172 -21.74111,-15.35055 -31.68738,-11.26308 -9.77267,4.00859 -18.91518,16.20755 -27.426321,36.31839 v 199.97825 c 0,33.4079 26.917731,60.32563 60.324411,60.32563 h 142.60133 c 20.50073,-8.68148 32.68424,-18.01142 36.42573,-28.00525 3.79718,-10.14141 -0.76838,-20.95891 -12.89172,-32.37282 -9.06568,-4.97822 -17.06985,-10.92483 -23.79217,-17.63495 -0.12196,-0.12197 -0.16262,-0.16262 -0.4594,-0.32524 h 0.16262 c -14.55126,-14.64356 -22.43225,-32.36632 -22.4786,-50.58874 -0.002,-11.77005 3.22802,-22.96849 8.98925,-33.16194 5.77749,-10.2028 14.12072,-19.39938 24.47598,-27.1084 10.34102,-7.71348 22.64731,-13.96745 36.32287,-18.26673 13.6601,-4.31757 28.66467,-6.6841 44.42665,-6.6841 h 0.0386 c 15.76685,0.003 30.76369,2.39865 44.42827,6.6841 13.691,4.31798 26.02819,10.5565 36.37369,18.26673 10.341,7.69845 18.6924,16.86088 24.4776,27.05596 5.7775,10.20279 8.9889,21.44921 8.9889,33.21438 -0.01,15.9376 -6.0231,31.20927 -16.7377,44.32541 -10.7252,13.1072 -26.16322,24.06456 -45.16459,31.36946 -7.49842,9.95684 -8.95794,19.50021 -3.90288,28.4801 4.99407,8.83516 16.67671,17.08042 34.79424,24.74187 h 156.33993 c 33.4079,0 60.324,-26.91773 60.324,-60.32563 V 538.57933 c 16.4336,-38.94268 35.8391,-47.24038 57.1143,-28.10689 15.98286,32.42107 44.05621,52.13764 74.2748,52.16494 48.38259,1.5e-4 87.60178,-49.58981 87.5921,-110.75419 -0.0143,-61.14294 -39.22647,-110.69945 -87.5921,-110.69929 -19.13343,0.0309 -37.7326,7.98095 -52.9549,22.63512 v -0.32524 c -0.1626,0.32524 -0.3252,0.4594 -0.4594,0.76838 -7.21718,7.03732 -13.52128,15.45558 -18.6847,24.95083 -22.1712,22.6339 -42.0373,15.83149 -59.2194,-24.90001 v -90.1689 c 0,-33.40668 -26.9177,-60.32278 -60.3256,-60.32278 H 470.0293 C 434.16258,198.45572 425.39491,180.53618 440.12912,160.91889 478.13393,146.30549 502.01818,117.1006 502.03465,85.2228 502.04437,38.14958 450.84835,-0.01144092 387.70155,0 Z"
     style="display:inline;opacity:1;fill-opacity:1;fill-rule:nonzero;stroke:none;stroke-width:243.40846252;stroke-linecap:round;stroke-linejoin:miter;stroke-miterlimit:4;stroke-dasharray:none;stroke-opacity:1;paint-order:stroke fill markers"
     sodipodi:nodetypes="cccccccsscccccccccccccccccccssccccccccccscccccccccssccccccccccssccccc" />
</svg>
