<?xml version="1.0" encoding="UTF-8" standalone="no"?>
<svg
   xmlns:dc="http://purl.org/dc/elements/1.1/"
   xmlns:cc="http://creativecommons.org/ns#"
   xmlns:rdf="http://www.w3.org/1999/02/22-rdf-syntax-ns#"
   xmlns:svg="http://www.w3.org/2000/svg"
   xmlns="http://www.w3.org/2000/svg"
   xmlns:sodipodi="http://sodipodi.sourceforge.net/DTD/sodipodi-0.dtd"
   xmlns:inkscape="http://www.inkscape.org/namespaces/inkscape"
   width="1000"
   height="1000"
   viewBox="0 0 1000 1000"
   version="1.1"
   id="svg22"
   sodipodi:docname="i (12-я копия).svg"
   inkscape:version="0.92.4 (unknown)">
  <metadata
     id="metadata26">
    <rdf:RDF>
      <cc:Work
         rdf:about="">
        <dc:format>image/svg+xml</dc:format>
        <dc:type
           rdf:resource="http://purl.org/dc/dcmitype/StillImage" />
        <dc:title />
      </cc:Work>
    </rdf:RDF>
  </metadata>
  <sodipodi:namedview
     pagecolor="#ffffff"
     bordercolor="#666666"
     borderopacity="1"
     objecttolerance="10"
     gridtolerance="10"
     guidetolerance="10"
     inkscape:pageopacity="0"
     inkscape:pageshadow="2"
     inkscape:window-width="1268"
     inkscape:window-height="732"
     id="namedview24"
     showgrid="false"
     inkscape:zoom="0.15364583"
     inkscape:cx="-676.14668"
     inkscape:cy="977.0399"
     inkscape:window-x="0"
     inkscape:window-y="0"
     inkscape:window-maximized="1"
     inkscape:current-layer="svg22"
     showguides="true"
     inkscape:guide-bbox="true">
    <sodipodi:guide
       position="0,200"
       orientation="0,1"
       id="guide841"
       inkscape:locked="false"
       inkscape:label=""
       inkscape:color="rgb(0,0,255)" />
  </sodipodi:namedview>
  <defs
     id="defs12">
    <linearGradient
       id="a"
       x1="0.5"
       x2="0.5"
       y1="0"
       y2="1">
      <stop
         offset="0%"
         stop-color="#9FC7FF"
         id="stop2" />
      <stop
         offset="100%"
         stop-color="#9BC1F5"
         id="stop4" />
    </linearGradient>
    <radialGradient
       id="b"
       cx="0.55584997"
       cy="0.10083"
       r="0.58214998"
       fx="0.55584997"
       fy="0.10083"
       gradientTransform="matrix(0,-1,0.719,0,0.483,0.657)">
      <stop
         offset="0%"
         stop-color="#486DA8"
         stop-opacity=".4"
         id="stop7" />
      <stop
         offset="100%"
         stop-color="#486DA8"
         stop-opacity="0"
         id="stop9" />
    </radialGradient>
  </defs>
  <path
     inkscape:connector-curvature="0"
     id="path5858"
     d="m 838.92489,0.09885123 c -7.7197,0.37393 -15.0865,3.26716997 -20.9833,8.26746997 C 719.29799,92.109031 634.84344,154.1758 481.42041,185.49197 c -102.05847,20.8332 -196.86326,9.78654 -307.3855,10.95271 h -52.19142 c -49.457115,0 -89.268375,39.80799 -89.268375,89.26651 v 97.41759 c 0,49.45851 39.81126,89.26837 89.268375,89.26837 h 3.42608 c 2.65019,0.52817 5.35273,0.88339 8.09079,0.88339 l 50.28021,-0.88339 c -2.20615,7.03118 -14.18528,46.32829 -13.58467,68.37534 2.43518,89.68156 17.9465,162.92354 50.68966,220.21202 16.7649,29.33718 58.25835,39.59953 86.17181,38.99004 86.61865,-1.88832 124.75333,-45.97681 124.75333,-45.97681 -59.00667,-41.17001 -100.24026,-106.15714 -60.77346,-142.16699 -28.32711,-19.3174 -32.01915,-58.493 -21.37026,-88.56166 5.45883,-24.32378 32.9376,-43.39392 55.01269,-54.53406 6.00663,1.23862 144.69659,28.45751 199.38444,53.32769 70.06548,31.86163 212.90698,143.23548 212.90698,143.23548 13.3378,10.61664 32.38509,10.06931 45.08819,-1.41157 l 25.9705,-23.30671 c 7.3668,-6.60677 11.5711,-16.00489 11.6066,-25.90127 l 1.2386,-210.47129 c 36.969,-0.8834 66.6899,-31.09322 66.6899,-68.2814 0,-36.92316 -29.297,-66.93714 -65.8934,-68.26223 l 1.2386,-206.987249 c 0.1402,-9.73419 -3.9215,-19.05285 -11.0233,-25.71946 L 864.57138,9.4866912 c -6.8896,-6.46562 -16.111,-9.87533997 -25.5624,-9.45139997 z m -6.3418,83.78336977 -2.7577,503.427029 C 792.92509,558.3231 706.29573,491.75334 632.82939,458.346 571.20807,430.32271 428.61901,401.71656 428.61901,401.71656 l -0.14022,-134.92735 c 1.23861,0.14022 10.95271,-1.41156 66.93901,-12.75456 150.68872,-30.75949 245.48459,-95.19881 337.13438,-170.161309 z"
     style="color:#000000;font-style:normal;font-variant:normal;font-weight:normal;font-stretch:normal;font-size:medium;line-height:normal;font-family:sans-serif;font-variant-ligatures:normal;font-variant-position:normal;font-variant-caps:normal;font-variant-numeric:normal;font-variant-alternates:normal;font-feature-settings:normal;text-indent:0;text-align:start;text-decoration:none;text-decoration-line:none;text-decoration-style:solid;text-decoration-color:#000000;letter-spacing:normal;word-spacing:normal;text-transform:none;writing-mode:lr-tb;direction:ltr;text-orientation:mixed;dominant-baseline:auto;baseline-shift:baseline;text-anchor:start;white-space:normal;shape-padding:0;clip-rule:nonzero;display:inline;overflow:visible;visibility:visible;opacity:1;isolation:auto;mix-blend-mode:normal;color-interpolation:sRGB;color-interpolation-filters:linearRGB;solid-color:#000000;solid-opacity:1;vector-effect:none;fill-opacity:1;fill-rule:nonzero;stroke:none;stroke-width:83.38876343;stroke-linecap:butt;stroke-linejoin:round;stroke-miterlimit:4;stroke-dasharray:none;stroke-dashoffset:0;stroke-opacity:1;color-rendering:auto;image-rendering:auto;shape-rendering:auto;text-rendering:auto;enable-background:accumulate" />
</svg>
