<?xml version="1.0" encoding="UTF-8" standalone="no"?>
<svg
   xmlns:dc="http://purl.org/dc/elements/1.1/"
   xmlns:cc="http://creativecommons.org/ns#"
   xmlns:rdf="http://www.w3.org/1999/02/22-rdf-syntax-ns#"
   xmlns:svg="http://www.w3.org/2000/svg"
   xmlns="http://www.w3.org/2000/svg"
   xmlns:sodipodi="http://sodipodi.sourceforge.net/DTD/sodipodi-0.dtd"
   xmlns:inkscape="http://www.inkscape.org/namespaces/inkscape"
   width="1000"
   height="1000"
   viewBox="0 0 1000 1000"
   version="1.1"
   id="svg22"
   sodipodi:docname="i (13-я копия).svg"
   inkscape:version="0.92.4 (unknown)">
  <metadata
     id="metadata26">
    <rdf:RDF>
      <cc:Work
         rdf:about="">
        <dc:format>image/svg+xml</dc:format>
        <dc:type
           rdf:resource="http://purl.org/dc/dcmitype/StillImage" />
        <dc:title />
      </cc:Work>
    </rdf:RDF>
  </metadata>
  <sodipodi:namedview
     pagecolor="#ffffff"
     bordercolor="#666666"
     borderopacity="1"
     objecttolerance="10"
     gridtolerance="10"
     guidetolerance="10"
     inkscape:pageopacity="0"
     inkscape:pageshadow="2"
     inkscape:window-width="1268"
     inkscape:window-height="732"
     id="namedview24"
     showgrid="false"
     inkscape:zoom="0.15364583"
     inkscape:cx="-264.68829"
     inkscape:cy="1022.7908"
     inkscape:window-x="0"
     inkscape:window-y="0"
     inkscape:window-maximized="1"
     inkscape:current-layer="svg22"
     showguides="true"
     inkscape:guide-bbox="true">
    <sodipodi:guide
       position="0,200"
       orientation="0,1"
       id="guide841"
       inkscape:locked="false"
       inkscape:label=""
       inkscape:color="rgb(0,0,255)" />
  </sodipodi:namedview>
  <defs
     id="defs12">
    <linearGradient
       id="a"
       x1="0.5"
       x2="0.5"
       y1="0"
       y2="1">
      <stop
         offset="0%"
         stop-color="#9FC7FF"
         id="stop2" />
      <stop
         offset="100%"
         stop-color="#9BC1F5"
         id="stop4" />
    </linearGradient>
    <radialGradient
       id="b"
       cx="0.55584997"
       cy="0.10083"
       r="0.58214998"
       fx="0.55584997"
       fy="0.10083"
       gradientTransform="matrix(0,-1,0.719,0,0.483,0.657)">
      <stop
         offset="0%"
         stop-color="#486DA8"
         stop-opacity=".4"
         id="stop7" />
      <stop
         offset="100%"
         stop-color="#486DA8"
         stop-opacity="0"
         id="stop9" />
    </radialGradient>
  </defs>
  <path
     style="color:#000000;font-style:normal;font-variant:normal;font-weight:normal;font-stretch:normal;font-size:medium;line-height:normal;font-family:sans-serif;font-variant-ligatures:normal;font-variant-position:normal;font-variant-caps:normal;font-variant-numeric:normal;font-variant-alternates:normal;font-feature-settings:normal;text-indent:0;text-align:start;text-decoration:none;text-decoration-line:none;text-decoration-style:solid;text-decoration-color:#000000;letter-spacing:normal;word-spacing:normal;text-transform:none;writing-mode:lr-tb;direction:ltr;text-orientation:mixed;dominant-baseline:auto;baseline-shift:baseline;text-anchor:start;white-space:normal;shape-padding:0;clip-rule:nonzero;display:inline;overflow:visible;visibility:visible;opacity:1;isolation:auto;mix-blend-mode:normal;color-interpolation:sRGB;color-interpolation-filters:linearRGB;solid-color:#000000;solid-opacity:1;vector-effect:none;fill-opacity:1;fill-rule:evenodd;stroke:none;stroke-width:171.9805603;stroke-linecap:round;stroke-linejoin:round;stroke-miterlimit:4;stroke-dasharray:none;stroke-dashoffset:0;stroke-opacity:1;paint-order:stroke fill markers;color-rendering:auto;image-rendering:auto;shape-rendering:auto;text-rendering:auto;enable-background:accumulate"
     d="M 138.8939,409.7807 C 62.804445,409.7807 -2.5e-5,472.58516 -2.5e-5,548.67463 V 661.07207 C -2.5e-5,737.16153 62.804445,800 138.8939,800 h 186.91992 c 76.08941,0 138.8939,-62.83847 138.8939,-138.92793 v -6.3495 h 70.5845 v 6.3495 C 535.29222,737.16153 598.09672,800 674.18612,800 H 861.10603 C 937.19553,800 1000,737.16153 1000,661.07207 V 548.67463 C 1000,472.58516 937.19553,409.7807 861.10603,409.7807 H 674.18612 c -76.0894,0 -138.8939,62.80446 -138.8939,138.89393 v 6.38749 h -70.5845 v -6.38749 c 0,-76.08947 -62.80449,-138.89393 -138.8939,-138.89393 z m 0,99.66445 h 186.91992 c 22.5845,0 39.1955,16.64849 39.1955,39.22948 v 6.38749 h -39.46749 c -68.19051,-1.7 -68.19051,101.43295 0,99.66595 h 39.46749 v 6.3495 c 0,22.58449 -16.611,39.22798 -39.1955,39.22798 H 138.8939 c -22.58499,0 -39.220475,-16.64899 -39.220475,-39.22798 V 548.67813 c 0,-22.58449 16.629985,-39.22748 39.220475,-39.22748 z m 535.29222,0 h 186.91991 c 22.58649,0 39.22049,16.64849 39.22049,39.22948 v 112.39744 c 0,22.58649 -16.63,39.22748 -39.22049,39.22748 H 674.18612 c -22.58449,0 -39.1955,-16.64849 -39.1955,-39.22748 v -6.3495 h 39.4655 c 68.192,1.7 68.192,-101.43345 0,-99.66445 h -39.4655 v -6.36849 c 0,-22.58649 16.61101,-39.22948 39.1955,-39.22948 z"
     id="rect19475"
     inkscape:connector-curvature="0" />
</svg>
