<?xml version="1.0" encoding="UTF-8" standalone="no"?>
<svg
   xmlns:dc="http://purl.org/dc/elements/1.1/"
   xmlns:cc="http://creativecommons.org/ns#"
   xmlns:rdf="http://www.w3.org/1999/02/22-rdf-syntax-ns#"
   xmlns:svg="http://www.w3.org/2000/svg"
   xmlns="http://www.w3.org/2000/svg"
   xmlns:sodipodi="http://sodipodi.sourceforge.net/DTD/sodipodi-0.dtd"
   xmlns:inkscape="http://www.inkscape.org/namespaces/inkscape"
   width="1000"
   height="1000"
   viewBox="0 0 1000 1000"
   version="1.1"
   id="svg22"
   sodipodi:docname="f3 (7-я копия).svg"
   inkscape:version="0.92.4 (unknown)">
  <metadata
     id="metadata26">
    <rdf:RDF>
      <cc:Work
         rdf:about="">
        <dc:format>image/svg+xml</dc:format>
        <dc:type
           rdf:resource="http://purl.org/dc/dcmitype/StillImage" />
        <dc:title />
      </cc:Work>
    </rdf:RDF>
  </metadata>
  <sodipodi:namedview
     pagecolor="#ffffff"
     bordercolor="#666666"
     borderopacity="1"
     objecttolerance="10"
     gridtolerance="10"
     guidetolerance="10"
     inkscape:pageopacity="0"
     inkscape:pageshadow="2"
     inkscape:window-width="1268"
     inkscape:window-height="732"
     id="namedview24"
     showgrid="false"
     inkscape:zoom="0.43457604"
     inkscape:cx="473.14163"
     inkscape:cy="446.53196"
     inkscape:window-x="0"
     inkscape:window-y="0"
     inkscape:window-maximized="1"
     inkscape:current-layer="svg22"
     showguides="true"
     inkscape:guide-bbox="true">
    <sodipodi:guide
       position="0,200"
       orientation="0,1"
       id="guide841"
       inkscape:locked="false"
       inkscape:label=""
       inkscape:color="rgb(0,0,255)" />
  </sodipodi:namedview>
  <defs
     id="defs12">
    <linearGradient
       id="a"
       x1="0.5"
       x2="0.5"
       y1="0"
       y2="1">
      <stop
         offset="0%"
         stop-color="#9FC7FF"
         id="stop2" />
      <stop
         offset="100%"
         stop-color="#9BC1F5"
         id="stop4" />
    </linearGradient>
    <radialGradient
       id="b"
       cx="0.55584997"
       cy="0.10083"
       r="0.58214998"
       fx="0.55584997"
       fy="0.10083"
       gradientTransform="matrix(0,-1,0.719,0,0.483,0.657)">
      <stop
         offset="0%"
         stop-color="#486DA8"
         stop-opacity=".4"
         id="stop7" />
      <stop
         offset="100%"
         stop-color="#486DA8"
         stop-opacity="0"
         id="stop9" />
    </radialGradient>
  </defs>
  <path
     inkscape:connector-curvature="0"
     id="path1232"
     d="m 582.68337,0.03661 c -5.61058,0.13942 -11.27739,1.055 -16.93027,2.7049 v 0.0158 c -15.07122,4.32226 -29.96956,13.68345 -43.00746,28.01014 l -5.51577,6.11298 0.94811,8.16815 c 12.36261,101.5472 -33.49662,212.88781 -145.90107,315.0708 v -1.22696 c 0,-24.35341 -20.18126,-44.53653 -44.53467,-44.53653 H 79.774367 c -24.35341,4.7e-4 -44.53606,20.18312 -44.53606,44.53653 v 396.57106 c 0,24.35526 20.18265,44.53652 44.53606,44.53652 H 327.74689 c 23.61304,0 43.25518,-18.98683 44.43056,-42.34054 10.67785,8.06266 23.67811,15.01871 39.81131,19.58033 l 2.44464,0.70179 357.35742,-2.28197 c 41.51466,0.70178 74.88069,-10.06484 96.78202,-30.78522 19.76577,-18.7075 26.79897,-45.71097 23.56703,-73.21359 33.16112,-25.91453 44.69362,-66.86544 32.85802,-108.72262 20.5675,-16.86334 32.5281,-39.28242 35.1052,-61.13031 2.4028,-20.42572 -3.4625,-37.39921 -10.3655,-52.84317 17.876,-33.04488 20.0794,-68.94756 5.1081,-97.23888 -15.9938,-30.22332 -49.621,-50.34834 -90.86281,-49.76693 L 666.78535,299.90466 C 696.91804,222.49057 695.89557,137.7449 670.84735,77.35031 656.9357,43.81186 637.14716,16.86974 609.71519,5.06577 601.14316,1.37558 591.97903,-0.29198 582.63643,0.04172 Z m -0.41828,35.45465 c 1.21302,-0.0465 2.44463,-0.0465 3.65765,0.0465 3.22079,0.37181 6.39742,1.055 9.59078,2.5097 13.86797,5.97216 30.43293,24.794 42.14766,53.03605 23.42947,56.48271 27.58163,146.22222 -9.22362,218.44541 l -13.15177,25.81647 248.96943,2.58406 h 0.27886 c 29.85151,-0.3718 48.99631,12.45417 58.60111,30.60815 9.6052,18.15583 9.7664,42.8197 -6.1144,68.36754 l -6.0447,9.6261 6.1149,9.55546 c 4.3734,6.8157 9.3588,24.66944 7.3776,41.55184 -1.9846,16.88053 -9.048,32.44766 -26.28963,43.00978 l -13.13736,8.02733 5.89687,14.21096 c 15.62472,37.52702 6.41136,70.19776 -25.02498,88.21138 l -11.34386,6.51686 2.7142,12.78787 c 4.33156,20.48846 -0.41828,35.97797 -13.4218,48.31269 -13.0286,12.33101 -36.46132,21.54812 -71.4224,20.98576 h -0.13943 l -351.4573,2.24944 c -23.82591,-7.0439 -35.31523,-18.04337 -46.258,-32.97981 -0.66925,-0.8784 -1.45934,-2.24944 -2.20296,-3.28585 V 407.54392 C 503.65378,297.70913 563.4479,171.5134 553.38771,51.99627 564.59492,40.87736 573.76881,35.99413 582.36315,35.48476 Z m -304.7787,637.8845 a 28.610634,28.610634 0 0 1 28.60828,28.62548 28.610634,28.610634 0 0 1 -28.60828,28.60549 28.610634,28.610634 0 0 1 -28.60689,-28.60549 28.610634,28.610634 0 0 1 28.60689,-28.62548 z"
     style="color:#000000;font-style:normal;font-variant:normal;font-weight:normal;font-stretch:normal;font-size:medium;line-height:normal;font-family:sans-serif;font-variant-ligatures:normal;font-variant-position:normal;font-variant-caps:normal;font-variant-numeric:normal;font-variant-alternates:normal;font-feature-settings:normal;text-indent:0;text-align:start;text-decoration:none;text-decoration-line:none;text-decoration-style:solid;text-decoration-color:#000000;letter-spacing:normal;word-spacing:normal;text-transform:none;writing-mode:lr-tb;direction:ltr;text-orientation:mixed;dominant-baseline:auto;baseline-shift:baseline;text-anchor:start;white-space:normal;shape-padding:0;clip-rule:nonzero;display:inline;overflow:visible;visibility:visible;opacity:1;isolation:auto;mix-blend-mode:normal;color-interpolation:sRGB;color-interpolation-filters:linearRGB;solid-color:#000000;solid-opacity:1;vector-effect:none;fill-opacity:0.98421056;fill-rule:nonzero;stroke:none;stroke-width:35.96581268;stroke-linecap:round;stroke-linejoin:round;stroke-miterlimit:4;stroke-dasharray:none;stroke-dashoffset:0;stroke-opacity:1;color-rendering:auto;image-rendering:auto;shape-rendering:auto;text-rendering:auto;enable-background:accumulate" />
</svg>
