<?xml version="1.0" ?><!DOCTYPE svg  PUBLIC '-//W3C//DTD SVG 1.1//EN'  'http://www.w3.org/Graphics/SVG/1.1/DTD/svg11.dtd'><svg height="512px" style="enable-background:new 0 0 512 512;" version="1.1" viewBox="0 0 512 512" width="512px" xml:space="preserve" xmlns="http://www.w3.org/2000/svg" xmlns:xlink="http://www.w3.org/1999/xlink"><g id="comp_x5F_206-mastercard_x2C__Credit_card"><g><g><circle cx="331" cy="221" r="95" style="fill:none;stroke:#000000;stroke-width:20;stroke-miterlimit:10;"/><circle cx="181" cy="221" r="95" style="fill:none;stroke:#000000;stroke-width:20;stroke-miterlimit:10;"/></g><path d="M412.17,347.914v15.412c-6.549-8.704-23.879-4.073-23.879,11.101c0,15.494,17.969,19.646,23.879,11.101v3.674h6.309    v-41.287H412.17z M403.703,383.77c-5.43,0-8.944-4.152-8.944-9.343c0-5.192,3.515-9.343,8.944-9.343    c5.272,0,8.945,4.15,8.945,9.343C412.648,379.858,408.976,383.77,403.703,383.77z"/><path d="M172.906,359.812v3.515c-2.156-2.636-5.19-4.313-9.344-4.313c-8.226,0-14.534,6.549-14.534,15.413    c0,8.945,6.309,15.414,14.534,15.414c4.154,0,7.188-1.518,9.344-4.313v3.674h6.31v-29.39H172.906z M164.442,383.77    c-5.671,0-8.944-4.152-8.944-9.343c0-5.192,3.273-9.343,8.944-9.343c5.19,0,8.625,4.15,8.704,9.343    C173.146,379.858,169.632,383.77,164.442,383.77z"/><path d="M250.452,376.982h21.961c0-12.938-5.909-18.05-13.896-18.05c-8.463,0-14.534,6.311-14.534,15.414    c0,16.372,18.049,19.088,26.993,11.341l-3.034-4.792C261.712,386.008,252.288,385.527,250.452,376.982z M258.277,364.845    c4.151,0,6.949,2.395,7.667,6.947h-15.253C251.331,367.639,253.965,364.845,258.277,364.845z"/><path d="M352.833,359.812v3.515c-6.629-8.785-23.88-3.834-23.88,11.101c0,15.333,17.891,19.725,23.88,11.101v3.674h6.549v-29.39    H352.833z M344.367,383.77c-5.43,0-8.704-4.152-8.704-9.343c0-5.192,3.274-9.343,8.704-9.343s8.944,4.15,8.944,9.343    C353.312,379.858,349.797,383.77,344.367,383.77z"/><path d="M428.94,385.927c0,0.239,0.239,0.399,0.239,0.879c0,0.239-0.239,0.397-0.239,0.878c-0.239,0.238-0.239,0.4-0.399,0.64    c-0.24,0.239-0.398,0.397-0.879,0.397c-0.24,0.241-0.398,0.241-0.879,0.241c-0.238,0-0.399,0-0.877-0.241    c-0.239,0-0.4-0.239-0.641-0.397c-0.239-0.239-0.398-0.401-0.398-0.64c-0.238-0.399-0.238-0.639-0.238-0.878    c0-0.398,0-0.64,0.238-0.879c0-0.399,0.24-0.639,0.398-0.879c0.24-0.238,0.401-0.238,0.641-0.399    c0.399-0.239,0.639-0.239,0.877-0.239c0.4,0,0.639,0,0.879,0.239c0.4,0.239,0.639,0.239,0.879,0.399    C428.781,385.207,428.701,385.527,428.94,385.927z"/><path d="M427.184,387.045c0.397,0,0.397-0.239,0.639-0.239c0.24-0.239,0.24-0.398,0.24-0.64c0-0.239,0-0.4-0.24-0.639    c-0.241,0-0.4-0.239-0.878-0.239h-1.277v2.796h0.639v-1.12h0.239l0.877,1.12h0.641L427.184,387.045L427.184,387.045z"/><path d="M143.358,370.753c0-6.95-4.551-11.5-11.739-11.739c-3.674,0-7.586,1.118-10.223,5.189    c-1.917-3.272-5.19-5.189-9.743-5.189c-3.035,0-6.069,1.118-8.464,4.313v-3.515H96.64v29.31h6.549    c0-15.094-1.997-24.117,7.187-24.117c8.146,0,6.549,8.145,6.549,24.117h6.309c0-14.613-1.997-24.117,7.187-24.117    c8.146,0,6.549,7.985,6.549,24.117h6.548v-18.368H143.358z"/><path d="M211.558,380.256c0-11.978-18.286-6.549-18.286-12.139c0-4.553,9.503-3.833,14.773-0.878l2.636-5.191    c-7.507-4.871-24.118-4.791-24.118,6.55c0,11.419,18.288,6.628,18.288,11.979c0,5.031-10.781,4.631-16.53,0.639l-2.796,5.032    C194.469,392.314,211.558,391.039,211.558,380.256L211.558,380.256z"/><path d="M239.83,387.684l-1.757-5.431c-3.034,1.676-9.742,3.513-9.742-3.275v-13.256h10.461v-5.91h-10.461v-8.942h-6.549v8.942    h-6.07v5.829h6.07v13.337C221.782,393.035,235.597,390.478,239.83,387.684L239.83,387.684z"/><path d="M297.648,359.812c-3.672-1.596-9.262-1.438-12.137,3.515v-3.515h-6.551v29.31h6.551V372.59    c0-9.264,7.587-8.066,10.222-6.708L297.648,359.812L297.648,359.812z"/><path d="M306.113,374.427c0-9.104,9.265-12.061,16.532-6.708l3.033-5.191c-9.262-7.267-26.111-3.274-26.111,11.98    c0,15.812,17.887,19.006,26.111,11.978l-3.033-5.19C315.298,386.485,306.113,383.372,306.113,374.427z"/><path d="M386.295,359.812c-1.917-0.958-8.785-2.315-12.14,3.515v-3.515h-6.309v29.31h6.309V372.59    c0-8.787,7.188-8.226,10.223-6.708L386.295,359.812L386.295,359.812z"/><polygon points="424.548,287.937 424.548,291.61 425.188,291.61 425.188,287.937 426.704,287.937 426.704,287.299     423.031,287.299 423.031,287.937 424.548,287.937   "/><path d="M429.819,386.806c0-0.398,0-0.879-0.239-1.278c-0.24-0.239-0.4-0.64-0.64-0.879s-0.64-0.397-0.878-0.639    c-0.399,0-0.879-0.24-1.279-0.24c-0.238,0-0.639,0.24-1.116,0.24c-0.401,0.241-0.641,0.399-0.879,0.639    c-0.399,0.239-0.639,0.64-0.639,0.879c-0.24,0.399-0.24,0.88-0.24,1.278c0,0.239,0,0.639,0.24,1.116    c0,0.24,0.239,0.641,0.639,0.88c0.238,0.239,0.4,0.399,0.879,0.639c0.398,0.239,0.878,0.239,1.116,0.239c0.4,0,0.88,0,1.279-0.239    c0.238-0.239,0.639-0.399,0.878-0.639s0.399-0.64,0.64-0.88C429.819,387.444,429.819,387.045,429.819,386.806z"/><polygon points="432.375,287.219 431.258,287.219 429.978,290.014 428.701,287.219 427.583,287.219 427.583,291.53     428.223,291.53 428.223,288.256 429.5,291.052 430.377,291.052 431.496,288.256 431.496,291.53 432.375,291.53   "/><path d="M434.5,426h-357C51.819,426,31,405.182,31,379.5    v-247C31,106.819,51.819,86,77.5,86h357c25.682,0,46.5,20.819,46.5,46.5v247C481,405.182,460.182,426,434.5,426z" style="fill:none;stroke:#000000;stroke-width:20;stroke-miterlimit:10;"/></g></g><g id="Layer_1"/></svg>