<?xml version="1.0" encoding="UTF-8" standalone="no"?>
<svg
   xmlns:dc="http://purl.org/dc/elements/1.1/"
   xmlns:cc="http://creativecommons.org/ns#"
   xmlns:rdf="http://www.w3.org/1999/02/22-rdf-syntax-ns#"
   xmlns:svg="http://www.w3.org/2000/svg"
   xmlns="http://www.w3.org/2000/svg"
   xmlns:sodipodi="http://sodipodi.sourceforge.net/DTD/sodipodi-0.dtd"
   xmlns:inkscape="http://www.inkscape.org/namespaces/inkscape"
   enable-background="new 0 0 64 64"
   height="64px"
   id="Layer_1"
   version="1.1"
   viewBox="0 0 64 64"
   width="64px"
   xml:space="preserve"
   sodipodi:docname="iconfinder__Click_Bank_1156714.svg"
   inkscape:version="0.92.4 (unknown)"><metadata
     id="metadata187"><rdf:RDF><cc:Work
         rdf:about=""><dc:format>image/svg+xml</dc:format><dc:type
           rdf:resource="http://purl.org/dc/dcmitype/StillImage" /></cc:Work></rdf:RDF></metadata><defs
     id="defs185" /><sodipodi:namedview
     pagecolor="#ffffff"
     bordercolor="#666666"
     borderopacity="1"
     objecttolerance="10"
     gridtolerance="10"
     guidetolerance="10"
     inkscape:pageopacity="0"
     inkscape:pageshadow="2"
     inkscape:window-width="1268"
     inkscape:window-height="732"
     id="namedview183"
     showgrid="false"
     inkscape:zoom="3.6875"
     inkscape:cx="27.254237"
     inkscape:cy="32"
     inkscape:window-x="0"
     inkscape:window-y="0"
     inkscape:window-maximized="1"
     inkscape:current-layer="Layer_1" /><g
     id="g180"
     transform="translate(0,-6.5084746)"><g
       id="g164"><g
         id="g56"><g
           id="g6"><g
             id="g4"><path
               d="m 7.7,56.5 c -0.4,0.2 -1.3,0.4 -2.3,0.4 -2.5,0 -4.3,-1.6 -4.3,-4.5 0,-2.8 1.9,-4.6 4.6,-4.6 1.1,0 1.8,0.2 2.1,0.4 l -0.3,0.9 c -0.4,-0.2 -1,-0.4 -1.8,-0.4 -2.1,0 -3.4,1.3 -3.4,3.6 0,2.2 1.2,3.5 3.4,3.5 0.7,0 1.4,-0.1 1.9,-0.4 z"
               id="path2"
               inkscape:connector-curvature="0"
               style="fill:#a23c42" /></g></g><g
           id="g12"><g
             id="g10"><path
               d="m 9.1,48 h 1.2 v 7.9 H 14 v 1 H 9.1 Z"
               id="path8"
               inkscape:connector-curvature="0"
               style="fill:#a23c42" /></g></g><g
           id="g18"><g
             id="g16"><path
               d="m 16.4,48 v 8.8 H 15.2 V 48 Z"
               id="path14"
               inkscape:connector-curvature="0"
               style="fill:#a23c42" /></g></g><g
           id="g24"><g
             id="g22"><path
               d="m 24.6,56.5 c -0.4,0.2 -1.3,0.4 -2.3,0.4 -2.5,0 -4.3,-1.6 -4.3,-4.5 0,-2.8 1.9,-4.6 4.6,-4.6 1.1,0 1.8,0.2 2.1,0.4 l -0.3,0.9 c -0.4,-0.2 -1,-0.4 -1.8,-0.4 -2.1,0 -3.4,1.3 -3.4,3.6 0,2.2 1.2,3.5 3.4,3.5 0.7,0 1.4,-0.1 1.9,-0.4 z"
               id="path20"
               inkscape:connector-curvature="0"
               style="fill:#a23c42" /></g></g><g
           id="g30"><g
             id="g28"><path
               d="m 26,48 h 1.1 v 4.2 0 c 0.2,-0.3 0.5,-0.7 0.7,-0.9 L 30.5,48 H 32 l -3.2,3.7 3.4,5.1 h -1.3 l -2.9,-4.3 -0.8,1 v 3.4 H 26 Z"
               id="path26"
               inkscape:connector-curvature="0"
               style="fill:#a23c42" /></g></g><g
           id="g36"><g
             id="g34"><path
               d="m 33.1,48.1 c 0.5,-0.1 1.3,-0.2 2.1,-0.2 1.1,0 1.9,0.2 2.4,0.6 0.5,0.3 0.7,0.9 0.7,1.6 0,0.9 -0.6,1.6 -1.5,1.9 v 0 c 0.8,0.2 1.8,0.9 1.8,2.2 0,0.8 -0.3,1.3 -0.8,1.8 -0.6,0.6 -1.6,0.8 -3,0.8 -0.8,0 -1.4,-0.1 -1.8,-0.1 v -8.6 z m 1.1,3.6 h 1 c 1.2,0 1.9,-0.6 1.9,-1.5 0,-1 -0.8,-1.4 -1.9,-1.4 -0.5,0 -0.8,0 -1,0.1 z m 0,4.2 c 0.2,0 0.5,0 1,0 1.2,0 2.3,-0.4 2.3,-1.7 0,-1.2 -1,-1.7 -2.3,-1.7 h -0.9 v 3.4 z"
               id="path32"
               inkscape:connector-curvature="0"
               style="fill:#9a847a" /></g></g><g
           id="g42"><g
             id="g40"><path
               d="m 41.6,54 -0.9,2.8 h -1.2 l 3,-8.8 h 1.4 l 3,8.8 h -1.2 l -1,-2.8 z m 2.9,-0.9 -0.9,-2.5 C 43.4,50 43.3,49.5 43.1,49 v 0 c -0.1,0.5 -0.3,1.1 -0.4,1.6 l -0.9,2.5 z"
               id="path38"
               inkscape:connector-curvature="0"
               style="fill:#9a847a" /></g></g><g
           id="g48"><g
             id="g46"><path
               d="M 48.2,56.8 V 48 h 1.3 l 2.8,4.5 c 0.6,1 1.2,2 1.6,2.9 v 0 C 53.8,54.2 53.8,53.2 53.8,51.8 V 48 h 1.1 v 8.8 h -1.2 l -2.8,-4.5 c -0.6,-1 -1.2,-2 -1.6,-2.9 v 0 c 0.1,1.1 0.1,2.2 0.1,3.6 v 3.8 z"
               id="path44"
               inkscape:connector-curvature="0"
               style="fill:#9a847a" /></g></g><g
           id="g54"><g
             id="g52"><path
               d="m 56.8,48 h 1.1 v 4.2 0 c 0.2,-0.3 0.5,-0.7 0.7,-0.9 L 61.3,48 h 1.4 l -3.2,3.7 3.4,5.1 h -1.3 l -2.9,-4.3 -0.8,1 v 3.4 H 56.8 V 48 Z"
               id="path50"
               inkscape:connector-curvature="0"
               style="fill:#9a847a" /></g></g></g><g
         id="g162"><g
           id="g64"><g
             id="g62"><g
               id="g60"><path
                 d="m 18.2,7.1 c 8.9,0 17.8,0 26.7,0 V 7.2 C 36,7.2 27.1,7.2 18.2,7.1 Z"
                 id="path58"
                 inkscape:connector-curvature="0"
                 style="fill:#ba6d71" /></g></g></g><g
           id="g72"><g
             id="g70"><g
               id="g68"><path
                 d="m 14.6,11.4 v 0 c 0.1,7.6 0.1,15.1 0.1,22.7 h -0.1 c 0,-7.6 0,-15.1 0,-22.7 z"
                 id="path66"
                 inkscape:connector-curvature="0"
                 style="fill:#d29ea1" /></g></g></g><g
           id="g114"><g
             id="g80"><g
               id="g78"><g
                 id="g76"><path
                   d="m 14.7,11.4 c 0.1,-1.9 1.5,-4 3.5,-4.2 8.9,0 17.8,0 26.7,0 2.2,0.4 3.7,2.8 3.5,4.9 0,4.7 0,9.3 0,14 -1.7,0 -3.4,0 -5,0 C 44.3,23 43.7,19.6 41.9,16.9 40,14 36.7,12.1 33.2,11.7 29.5,11.2 25.6,12.6 23,15.4 c -1.8,1.7 -2.8,4.2 -3.1,6.6 -0.1,0.7 -0.1,1.5 0,2.2 0.2,2.1 1,4.2 2.4,5.8 2,2.7 5.3,4.3 8.7,4.6 0,1.3 0,2.5 0,3.8 -4.1,0 -8.1,0 -12.2,0 -2.3,0 -4,-2.2 -4.1,-4.3 0,-7.6 0,-15.1 0,-22.7 z"
                   id="path74"
                   inkscape:connector-curvature="0"
                   style="fill:#ce495c" /></g></g></g><g
             id="g88"><g
               id="g86"><g
                 id="g84"><path
                   d="m 44.9,7.2 c 2.2,0.4 3.7,2.8 3.5,4.9 0,4.7 0,9.3 0,14 -1.7,0 -3.4,0 -5,0 C 44.3,23 43.7,19.6 41.9,16.9 40,14 36.7,12.1 33.2,11.7 29.5,11.2 25.6,12.6 23,15.4 c -1.8,1.7 -2.8,4.2 -3.1,6.6 -0.1,0.7 -0.1,1.5 0,2.2 0.2,2.1 1,4.2 2.4,5.8 2,2.7 5.3,4.3 8.7,4.6 0,1.3 0,2.5 0,3.8 -4.1,0 -8.1,0 -12.2,0 -2.3,0 -4,-2.2 -4.1,-4.3 0,-7.6 0,-15.1 0,-22.7"
                   id="path82"
                   inkscape:connector-curvature="0"
                   style="fill:#a23c42" /></g></g></g><g
             id="g112"><g
               id="g96"><g
                 id="g94"><g
                   id="g92"><path
                     d="m 28.5,15.6 c 3.1,-1.3 6.8,-0.7 9.3,1.5 1.4,1.3 2.5,3.2 2.6,5.2 0,0.6 0,1.1 0,1.7 -0.3,4.1 -4.2,7.4 -8.2,7.4 -0.2,0 -0.5,0 -0.7,0 -1.7,0 -3.4,-0.7 -4.9,-1.6 -1.9,-1.3 -3.1,-3.5 -3.3,-5.7 -0.5,-3.6 1.9,-7.2 5.2,-8.5 z"
                     id="path90"
                     inkscape:connector-curvature="0"
                     style="fill:#b79c91" /></g></g></g><g
               id="g104"><g
                 id="g102"><g
                   id="g100"><path
                     d="m 37.8,17.1 c 1.4,1.3 2.5,3.2 2.6,5.2 0,0.6 0,1.1 0,1.7 -0.3,4.1 -4.2,7.4 -8.2,7.4 -0.2,0 -0.5,0 -0.7,0 -1.7,0 -3.4,-0.7 -4.9,-1.6 -1.9,-1.3 -3.1,-3.5 -3.3,-5.7"
                     id="path98"
                     inkscape:connector-curvature="0"
                     style="fill:#9a847a" /></g></g></g><g
               id="g110"><g
                 id="g108"><path
                   d="m 37.7,32 c 1,-2 4.1,-2.4 5.7,-0.8 1,0.8 1.2,2.5 0.5,3.5 -0.5,0.9 -1.6,1.4 -2.6,1.4 -0.3,0 -0.5,0 -0.8,0 -1,0 -2.1,-0.6 -2.6,-1.5 -0.6,-0.8 -0.7,-1.8 -0.2,-2.6 z"
                   id="path106"
                   inkscape:connector-curvature="0"
                   style="fill:#877168" /></g></g></g></g><g
           id="g122"><g
             id="g120"><g
               id="g118"><path
                 d="m 20,24.2 c -0.1,-0.7 -0.1,-1.5 0,-2.2 0,0.8 0.1,1.5 0,2.2 z"
                 id="path116"
                 inkscape:connector-curvature="0"
                 style="fill:#debbbc" /></g></g></g><g
           id="g130"><g
             id="g128"><g
               id="g126"><path
                 d="m 40.4,22.3 v 0 c 0.1,0.6 0.1,1.1 0.1,1.7 h -0.1 c 0,-0.6 0,-1.1 0,-1.7 z"
                 id="path124"
                 inkscape:connector-curvature="0"
                 style="fill:#d0d1d1" /></g></g></g><g
           id="g144"><g
             id="g136"><g
               id="g134"><path
                 d="m 31.5,31.4 c 0.2,0 0.5,0 0.7,0 -0.1,0.2 -0.6,0.2 -0.7,0 z"
                 id="path132"
                 inkscape:connector-curvature="0"
                 style="fill:#e0e0e0" /></g></g><g
             id="g142"><g
               id="g140"><path
                 d="m 40.4,36.1 c 0.3,0 0.5,0 0.8,0 -0.1,0.2 -0.6,0.1 -0.8,0 z"
                 id="path138"
                 inkscape:connector-curvature="0"
                 style="fill:#e0e0e0" /></g></g></g><g
           id="g152"><g
             id="g150"><g
               id="g148"><path
                 d="m 31,34.6 h 0.1 c 0,1.3 0,2.6 0,3.8 H 31 c 0,-1.2 0,-2.5 0,-3.8 z"
                 id="path146"
                 inkscape:connector-curvature="0"
                 style="fill:#d19ea0" /></g></g></g><g
           id="g160"><g
             id="g158"><g
               id="g156"><path
                 d="m 45.7,36.2 c 0.8,-0.1 1.8,0.3 2.2,1.1 0.4,0.6 0.3,1.5 -0.3,2 -0.8,0.9 -2.3,1 -3.2,0.2 C 43.8,39 43.6,38 44,37.3 c 0.3,-0.7 1,-1.1 1.7,-1.1 z"
                 id="path154"
                 inkscape:connector-curvature="0"
                 style="fill:#877168" /></g></g></g></g></g><g
       id="g168"><path
         d="m 37.8,17.1 c 0,0 -0.1,0 0,0 L 25.8,29 c 0.3,0.3 0.6,0.5 0.9,0.7 1.4,1 3.1,1.7 4.9,1.6 0.2,0 0.5,0 0.7,0 4,0 7.9,-3.3 8.2,-7.4 0,-0.6 0,-1.2 0,-1.7 -0.2,-1.9 -1.3,-3.7 -2.7,-5.1 z"
         id="path166"
         inkscape:connector-curvature="0"
         style="fill:#877168" /></g><g
       id="g178"><g
         id="g172"><path
           d="m 16.9,37.9 c 0.6,0.3 1.2,0.5 1.9,0.5 4.1,0 8.1,0 12.2,0 0,-1.3 0,-2.5 0,-3.8 -2.8,-0.2 -5.5,-1.4 -7.5,-3.3 z"
           id="path170"
           inkscape:connector-curvature="0"
           style="fill:#843139" /></g><g
         id="g176"><path
           d="M 46.8,8.1 40,14.8 c 0.7,0.6 1.3,1.4 1.9,2.1 1.8,2.6 2.4,6.1 1.5,9.2 1.7,0 3.4,0 5,0 0,-4.7 0,-9.3 0,-14 0.2,-1.5 -0.5,-3.1 -1.6,-4 z"
           id="path174"
           inkscape:connector-curvature="0"
           style="fill:#843139" /></g></g></g></svg>