<?xml version="1.0" encoding="UTF-8" standalone="no"?>
<!-- Created with Inkscape (http://www.inkscape.org/) -->

<svg
   xmlns:dc="http://purl.org/dc/elements/1.1/"
   xmlns:cc="http://creativecommons.org/ns#"
   xmlns:rdf="http://www.w3.org/1999/02/22-rdf-syntax-ns#"
   xmlns:svg="http://www.w3.org/2000/svg"
   xmlns="http://www.w3.org/2000/svg"
   xmlns:sodipodi="http://sodipodi.sourceforge.net/DTD/sodipodi-0.dtd"
   xmlns:inkscape="http://www.inkscape.org/namespaces/inkscape"
   width="219.832"
   height="64.301003"
   viewBox="0 0 58.163882 17.012974"
   version="1.1"
   id="svg8"
   inkscape:version="0.92.3 (unknown)"
   sodipodi:docname="logo.svg">
  <defs
     id="defs2" />
  <sodipodi:namedview
     id="base"
     pagecolor="#ffffff"
     bordercolor="#666666"
     borderopacity="1.0"
     inkscape:pageopacity="0.0"
     inkscape:pageshadow="2"
     inkscape:zoom="0.98994949"
     inkscape:cx="374.10026"
     inkscape:cy="204.2684"
     inkscape:document-units="px"
     inkscape:current-layer="layer1"
     showgrid="false"
     units="px"
     inkscape:window-width="1268"
     inkscape:window-height="732"
     inkscape:window-x="0"
     inkscape:window-y="0"
     inkscape:window-maximized="1" />
  <metadata
     id="metadata5">
    <rdf:RDF>
      <cc:Work
         rdf:about="">
        <dc:format>image/svg+xml</dc:format>
        <dc:type
           rdf:resource="http://purl.org/dc/dcmitype/StillImage" />
        <dc:title></dc:title>
      </cc:Work>
    </rdf:RDF>
  </metadata>
  <g
     inkscape:label="Layer 1"
     inkscape:groupmode="layer"
     id="layer1"
     transform="translate(0,-279.98702)">
    <path
       inkscape:connector-curvature="0"
       id="path830"
       style="font-style:italic;font-variant:normal;font-weight:bold;font-stretch:normal;font-size:medium;line-height:125%;font-family:'Times New Roman';-inkscape-font-specification:'Times New Roman,  Bold Italic';letter-spacing:0px;word-spacing:0px;fill:#000000;fill-opacity:1;stroke:none;stroke-width:0.26458332px;stroke-linecap:butt;stroke-linejoin:miter;stroke-opacity:1"
       d="m 12.482959,279.98708 -0.930176,4.00906 h -0.362769 q -0.06511,-1.63711 -0.809253,-2.43706 -0.734838,-0.80925 -1.925463,-0.80925 -1.283643,0 -2.557984,1.09761 -1.27434,1.0976 -2.158007,3.35793 -0.716236,1.83245 -0.716236,3.61838 0,1.59991 0.781348,2.44637 0.790649,0.83715 2.158008,0.83715 1.106909,0 2.018481,-0.48369 0.911572,-0.48369 1.841748,-1.57199 h 0.446484 q -1.153418,1.73012 -2.334741,2.42775 -1.172021,0.69764 -2.874243,0.69764 -2.27893,0 -3.674194,-1.37666 Q 0,290.41435 0,288.19123 q 0,-2.08359 1.106909,-3.97185 1.106909,-1.89755 3.181201,-3.06027 2.083594,-1.17203 4.139282,-1.17203 0.781348,0 1.944068,0.33487 0.595312,0.16743 0.827856,0.16743 0.465088,0 0.939478,-0.5023 z" />
    <path
       inkscape:connector-curvature="0"
       id="path832"
       style="font-style:italic;font-variant:normal;font-weight:bold;font-stretch:normal;font-size:medium;line-height:125%;font-family:'Times New Roman';-inkscape-font-specification:'Times New Roman,  Bold Italic';letter-spacing:0px;word-spacing:0px;fill:#000000;fill-opacity:1;stroke:none;stroke-width:0.26458332px;stroke-linecap:butt;stroke-linejoin:miter;stroke-opacity:1"
       d="m 22.593969,279.98708 -1.051099,4.27881 h -0.306958 q -0.102319,-1.00459 -0.362768,-1.6092 -0.390674,-0.87437 -1.041797,-1.34876 -0.641821,-0.47439 -1.395264,-0.47439 -0.725537,0 -1.274341,0.55811 -0.539502,0.5488 -0.539502,1.24644 0,0.68833 0.372071,1.35805 0.381372,0.66043 1.785937,1.99988 1.125513,1.0697 1.506885,1.84175 0.390674,0.77204 0.390674,1.67431 0,1.0139 -0.539502,1.86966 -0.539502,0.85576 -1.571997,1.33015 -1.023194,0.46509 -2.32544,0.46509 -0.799951,0 -2.018481,-0.24185 -1.209228,-0.23254 -1.609204,-0.23254 -0.31626,0 -0.567407,0.10232 -0.251148,0.093 -0.623218,0.37207 h -0.362769 l 1.125513,-4.80901 h 0.353467 q 0.120923,1.26504 0.511597,2.15801 0.390673,0.88366 1.11621,1.38596 0.725538,0.49299 1.655713,0.49299 0.920874,0 1.53479,-0.60461 0.623218,-0.61392 0.623218,-1.43247 0,-0.69764 -0.353467,-1.33946 -0.344165,-0.64182 -1.5906,-1.86965 -1.237134,-1.22783 -1.711524,-2.19522 -0.344165,-0.71623 -0.344165,-1.52548 0,-1.40457 1.106909,-2.42776 1.10691,-1.0232 2.892847,-1.0232 0.809253,0 2.130102,0.36277 0.772046,0.21394 1.088306,0.21394 0.269751,0 0.483691,-0.11162 0.213941,-0.12092 0.502295,-0.46509 z" />
    <path
       inkscape:connector-curvature="0"
       id="path834"
       style="font-style:italic;font-variant:normal;font-weight:bold;font-stretch:normal;font-size:medium;line-height:125%;font-family:'Times New Roman';-inkscape-font-specification:'Times New Roman,  Bold Italic';letter-spacing:0px;word-spacing:0px;fill:#000000;fill-opacity:1;stroke:none;stroke-width:0.26458332px;stroke-linecap:butt;stroke-linejoin:miter;stroke-opacity:1"
       d="m 33.197973,279.98708 -1.051099,4.27881 h -0.306958 q -0.102319,-1.00459 -0.362768,-1.6092 -0.390674,-0.87437 -1.041797,-1.34876 -0.641822,-0.47439 -1.395264,-0.47439 -0.725537,0 -1.274341,0.55811 -0.539502,0.5488 -0.539502,1.24644 0,0.68833 0.372071,1.35805 0.381372,0.66043 1.785937,1.99988 1.125513,1.0697 1.506885,1.84175 0.390674,0.77204 0.390674,1.67431 0,1.0139 -0.539502,1.86966 -0.539502,0.85576 -1.571997,1.33015 -1.023194,0.46509 -2.32544,0.46509 -0.799951,0 -2.018481,-0.24185 -1.209229,-0.23254 -1.609204,-0.23254 -0.31626,0 -0.567407,0.10232 -0.251148,0.093 -0.623218,0.37207 h -0.362769 l 1.125513,-4.80901 h 0.353467 q 0.120923,1.26504 0.511596,2.15801 0.390674,0.88366 1.116211,1.38596 0.725537,0.49299 1.655713,0.49299 0.920874,0 1.53479,-0.60461 0.623218,-0.61392 0.623218,-1.43247 0,-0.69764 -0.353467,-1.33946 -0.344165,-0.64182 -1.5906,-1.86965 -1.237134,-1.22783 -1.711524,-2.19522 -0.344165,-0.71623 -0.344165,-1.52548 0,-1.40457 1.106909,-2.42776 1.10691,-1.0232 2.892847,-1.0232 0.809253,0 2.130102,0.36277 0.772046,0.21394 1.088306,0.21394 0.269751,0 0.483691,-0.11162 0.213941,-0.12092 0.502295,-0.46509 z" />
    <path
       inkscape:connector-curvature="0"
       id="path836"
       style="font-style:italic;font-variant:normal;font-weight:bold;font-stretch:normal;font-size:medium;line-height:125%;font-family:'Times New Roman';-inkscape-font-specification:'Times New Roman,  Bold Italic';letter-spacing:0px;word-spacing:0px;fill:#000000;fill-opacity:1;stroke:none;stroke-width:0.26458332px;stroke-linecap:butt;stroke-linejoin:miter;stroke-opacity:1"
       d="m 37.672118,285.61465 -1.088305,4.29741 q -0.762744,3.04167 -1.488281,4.40903 -0.725538,1.36736 -1.702222,2.01848 Q 32.425927,297 31.17019,297 q -0.790649,0 -1.16272,-0.30696 -0.37207,-0.29766 -0.37207,-0.70693 0,-0.38137 0.306958,-0.66043 0.306958,-0.27905 0.809253,-0.27905 0.418579,0 0.641821,0.21394 0.223242,0.21394 0.223242,0.5395 0,0.29766 -0.139526,0.43718 -0.139526,0.14883 -0.139526,0.19534 l 0.04651,0.0651 q 0.05581,0.0465 0.130225,0.0465 0.279053,0 0.47439,-0.17673 0.492993,-0.43718 0.734838,-1.0604 0.167432,-0.42788 0.641822,-2.26033 l 1.897558,-7.4321 h -1.292944 l 0.306958,-1.08831 q 0.697632,0.009 1.013891,-0.17673 0.31626,-0.18604 0.669727,-0.83716 1.023193,-1.88826 2.158008,-2.70681 1.134814,-0.81856 2.530078,-0.81856 0.892968,0 1.292944,0.34417 0.409277,0.34416 0.409277,0.89297 0,0.48369 -0.269751,0.77204 -0.269751,0.27906 -0.669726,0.27906 -0.37207,0 -0.613916,-0.23255 -0.241846,-0.23254 -0.241846,-0.5581 0,-0.23255 0.148828,-0.493 0.15813,-0.26045 0.15813,-0.35346 0,-0.10232 -0.07441,-0.16743 -0.06511,-0.0651 -0.176733,-0.0651 -0.548804,0 -1.125513,0.67903 -0.948779,1.08831 -1.525488,3.44165 h 1.348755 l -0.325562,1.08831 z" />
    <path
       inkscape:connector-curvature="0"
       id="path838"
       style="font-style:italic;font-variant:normal;font-weight:bold;font-stretch:normal;font-size:medium;line-height:125%;font-family:'Times New Roman';-inkscape-font-specification:'Times New Roman,  Bold Italic';letter-spacing:0px;word-spacing:0px;fill:#000000;fill-opacity:1;stroke:none;stroke-width:0.26458332px;stroke-linecap:butt;stroke-linejoin:miter;stroke-opacity:1"
       d="m 48.173801,284.39612 -1.804541,6.18567 -0.186036,0.75344 q -0.02791,0.13952 -0.02791,0.20464 0,0.11162 0.07441,0.19533 0.08372,0.0837 0.167432,0.0837 0.195337,0 0.539502,-0.29766 0.139526,-0.12092 0.669726,-0.85576 l 0.325562,0.16743 q -0.660425,1.20923 -1.413867,1.76734 -0.744141,0.5488 -1.609204,0.5488 -0.530201,0 -0.809253,-0.26975 -0.279053,-0.27905 -0.279053,-0.69763 0,-0.36277 0.297656,-1.34876 l 0.223242,-0.75344 q -1.079003,1.85105 -2.074291,2.6231 -0.576709,0.44648 -1.227832,0.44648 -0.855762,0 -1.237134,-0.69763 -0.381372,-0.70693 -0.381372,-1.5906 0,-1.31155 0.799951,-3.00447 0.799951,-1.70222 2.102197,-2.73472 1.069702,-0.85576 2.00918,-0.85576 0.520898,0 0.837158,0.30696 0.31626,0.29766 0.465088,1.09761 l 0.334863,-1.14412 z m -2.976563,1.76733 q 0,-0.75344 -0.232544,-1.0883 -0.167431,-0.23255 -0.455786,-0.23255 -0.288354,0 -0.595312,0.27905 -0.623218,0.57671 -1.348755,2.34405 -0.716236,1.75803 -0.716236,3.04167 0,0.493 0.15813,0.71624 0.167432,0.21394 0.362769,0.21394 0.418579,0 0.84646,-0.48369 0.613916,-0.68833 1.106909,-1.68362 0.874365,-1.74873 0.874365,-3.10679 z" />
    <path
       inkscape:connector-curvature="0"
       id="path840"
       style="font-style:italic;font-variant:normal;font-weight:bold;font-stretch:normal;font-size:medium;line-height:125%;font-family:'Times New Roman';-inkscape-font-specification:'Times New Roman,  Bold Italic';letter-spacing:0px;word-spacing:0px;fill:#000000;fill-opacity:1;stroke:none;stroke-width:0.26458332px;stroke-linecap:butt;stroke-linejoin:miter;stroke-opacity:1"
       d="m 53.661839,284.26589 -1.153418,3.99046 q 1.16272,-1.74873 1.739425,-2.39056 0.84646,-0.93017 1.46038,-1.26503 0.61392,-0.33487 1.15342,-0.33487 0.48369,0 0.82785,0.36277 0.34417,0.35347 0.34417,0.93018 0,0.5209 -0.22324,1.26504 l -1.19063,3.97185 q -0.14883,0.52089 -0.14883,0.67902 0,0.093 0.0651,0.16744 0.0744,0.0744 0.14882,0.0744 0.093,0 0.19534,-0.0744 0.32556,-0.26975 0.66043,-0.76275 0.0837,-0.13022 0.26975,-0.39067 l 0.35346,0.21394 q -1.36735,2.29753 -2.87424,2.29753 -0.57671,0 -0.90227,-0.29765 -0.325561,-0.29766 -0.325561,-0.74414 0,-0.39068 0.223241,-1.16272 l 1.16272,-3.97185 q 0.12092,-0.39068 0.12092,-0.57671 0,-0.10232 -0.0837,-0.17674 -0.0837,-0.0837 -0.19534,-0.0837 -0.35347,0 -0.85576,0.48369 -1.283643,1.22783 -2.48357,3.65559 l -0.762744,2.76262 h -2.371948 l 1.739428,-5.97173 q 0.251148,-0.88366 0.251148,-1.25573 0,-0.15813 -0.07441,-0.26045 -0.07441,-0.11162 -0.241846,-0.16743 -0.167432,-0.0651 -0.632519,-0.0651 l 0.102319,-0.35346 3.134692,-0.54881 z" />
  </g>
</svg>
